<?xml version="1.0" encoding="UTF-8" standalone="no"?>
<!-- Created with Inkscape (http://www.inkscape.org/) -->

<svg
   width="269.64682mm"
   height="163.78363mm"
   viewBox="0 0 269.64682 163.78363"
   version="1.1"
   id="svg5"
   xmlns="http://www.w3.org/2000/svg"
   xmlns:svg="http://www.w3.org/2000/svg">
  <defs
     id="defs2">
    <rect
       x="-629.51892"
       y="230.69328"
       width="349.94998"
       height="281.52399"
       id="rect2733" />
  </defs>
  <g
     id="layer1"
     transform="translate(58.58333,3.4212162)">
    <g
       id="g17473"
       style="fill:#37c8ab;fill-opacity:1"
       transform="translate(-8.2615006,4.547526)">
      <g
         id="g878"
         transform="translate(1.9950959e-6,7.493238)">
        <text
           xml:space="preserve"
           transform="matrix(3.052978,0,0,3.052978,1879.6835,-665.39069)"
           id="text2731"
           style="font-style:normal;font-variant:normal;font-weight:normal;font-stretch:normal;font-size:40px;line-height:1.25;font-family:'Futura XBlk BT';-inkscape-font-specification:'Futura XBlk BT, Normal';font-variant-ligatures:normal;font-variant-caps:normal;font-variant-numeric:normal;font-variant-east-asian:normal;letter-spacing:0.140396px;white-space:pre;shape-inside:url(#rect2733);fill:#37c8ab;fill-opacity:1;stroke:none"><tspan
             x="-629.51953"
             y="266.08398"
             id="tspan996">4  4</tspan></text>
        <path
           id="rect846"
           style="fill:#37c8ab;fill-opacity:1;stroke-width:2.04816;stroke-linecap:round;stroke-linejoin:round"
           d="m 84.501766,58.282802 c -22.355809,0 -38.890093,21.320146 -37.091786,43.603508 v 46.43534 l 9.273147,-12.24579 9.272747,12.24579 9.272747,-12.24579 9.273145,12.24579 9.27275,-12.24579 9.272754,12.24579 9.27315,-12.24579 9.27275,12.24579 V 101.88631 C 123.39147,79.602948 106.85758,58.282802 84.501766,58.282802 Z M 68.985318,79.315295 a 8.8092831,8.8092831 0 0 1 8.80951,8.80951 8.8092831,8.8092831 0 0 1 -8.80951,8.809111 8.8092831,8.8092831 0 0 1 -8.809109,-8.809111 8.8092831,8.8092831 0 0 1 8.809109,-8.80951 z m 31.032902,0 a 8.8092831,8.8092831 0 0 1 8.80911,8.80951 8.8092831,8.8092831 0 0 1 -8.80911,8.809111 8.8092831,8.8092831 0 0 1 -8.809504,-8.809111 8.8092831,8.8092831 0 0 1 8.809504,-8.80951 z" />
      </g>
    </g>
    <g
       aria-label="ERROR"
       id="text43422"
       style="font-size:76.3496px;line-height:1.25;font-family:'Futura XBlk BT';-inkscape-font-specification:'Futura XBlk BT, Normal';fill:#80b3ff;stroke-width:0.865">
      <path
         d="M -58.58333,52.387062 V -2.1909736 h 36.497198 V 12.609218 h -17.260677 v 5.256491 h 15.657633 v 13.98003 h -15.657633 v 5.741132 h 17.708038 v 14.800191 z"
         id="path838" />
      <path
         d="m 5.5384068,11.863616 v 10.662103 h 3.0569665 q 2.7960057,0 4.2872087,-1.342083 1.528484,-1.379363 1.528484,-3.914408 0,-2.609606 -1.528484,-3.988969 -1.491203,-1.416643 -4.2872087,-1.416643 z M -13.698114,52.387062 V -2.1909736 h 24.679412 q 10.736663,0 16.403235,4.7345701 5.666572,4.73457 5.666572,13.6445085 0,5.815693 -2.870566,9.580981 -2.833286,3.765288 -7.679696,4.399049 L 37.077354,52.387062 H 15.082107 L 5.5384068,34.380784 v 18.006278 z"
         id="path840" />
      <path
         d="m 60.191002,11.863616 v 10.662103 h 3.056967 q 2.796006,0 4.287209,-1.342083 1.528483,-1.379363 1.528483,-3.914408 0,-2.609606 -1.528483,-3.988969 -1.491203,-1.416643 -4.287209,-1.416643 z M 40.954482,52.387062 V -2.1909736 h 24.679412 q 10.736663,0 16.403235,4.7345701 5.666572,4.73457 5.666572,13.6445085 0,5.815693 -2.870566,9.580981 -2.833286,3.765288 -7.679697,4.399049 L 91.729949,52.387062 H 69.734703 L 60.191002,34.380784 v 18.006278 z"
         id="path842" />
      <path
         d="m 122.85881,35.499186 q 4.13809,0 6.63585,-2.796006 2.53505,-2.833286 2.53505,-7.493296 0,-4.697289 -2.53505,-7.530575 -2.49776,-2.870567 -6.63585,-2.870567 -4.13809,0 -6.67314,2.870567 -2.53504,2.870566 -2.53504,7.530575 0,4.66001 2.53504,7.493296 2.53505,2.796006 6.67314,2.796006 z m 29.1903,-10.289302 q 0,6.002093 -2.12497,11.184024 -2.12496,5.144651 -6.22577,9.20818 -4.10081,3.988968 -9.46914,6.113933 -5.33105,2.124964 -11.37042,2.124964 -6.11394,0 -11.44499,-2.124964 -5.33105,-2.124965 -9.46914,-6.188493 -4.063526,-3.951689 -6.15121,-9.09634 -2.087685,-5.144651 -2.087685,-11.221304 0,-6.076652 2.087685,-11.258583 2.087684,-5.1819313 6.15121,-9.1336197 4.10081,-4.02624853 9.43186,-6.113933 5.33105,-2.1249645 11.48227,-2.1249645 6.15121,0 11.48226,2.1249645 5.33105,2.08768447 9.46914,6.113933 4.02625,3.9889684 6.11393,9.1708997 2.12497,5.181931 2.12497,11.221303 z"
         id="path844" />
      <path
         d="m 179.52453,11.863616 v 10.662103 h 3.05697 q 2.796,0 4.2872,-1.342083 1.52849,-1.379363 1.52849,-3.914408 0,-2.609606 -1.52849,-3.988969 -1.4912,-1.416643 -4.2872,-1.416643 z M 160.28801,52.387062 V -2.1909736 h 24.67941 q 10.73666,0 16.40324,4.7345701 5.66657,4.73457 5.66657,13.6445085 0,5.815693 -2.87057,9.580981 -2.83328,3.765288 -7.6797,4.399049 l 14.57652,22.218927 h -21.99525 l -9.5437,-18.006278 v 18.006278 z"
         id="path846" />
    </g>
  </g>
</svg>
