<?xml version="1.0" encoding="UTF-8" standalone="no"?>
<!-- Created with Inkscape (http://www.inkscape.org/) -->

<svg
   width="269.64682mm"
   height="161.4006mm"
   viewBox="0 0 269.64682 161.40061"
   version="1.1"
   id="svg5"
   xmlns="http://www.w3.org/2000/svg"
   xmlns:svg="http://www.w3.org/2000/svg">
  <defs
     id="defs2">
    <rect
       x="-629.51892"
       y="230.69328"
       width="349.94998"
       height="281.52399"
       id="rect2733" />
    <rect
       x="-629.51892"
       y="230.69328"
       width="349.94998"
       height="281.52399"
       id="rect41474" />
    <rect
       x="-629.51892"
       y="230.69328"
       width="349.94998"
       height="281.52399"
       id="rect41615" />
  </defs>
  <g
     id="layer1"
     transform="translate(39.478726,-40.603137)">
    <g
       id="g17473"
       style="fill:#37c8ab"
       transform="translate(-0.51726777)">
      <g
         id="g861">
        <g
           id="g66594">
          <g
             id="g66570"
             transform="translate(0,6.431173)">
            <g
               id="g41603"
               transform="matrix(0.38834258,0,0,0.38834258,101.11961,-22.989858)"
               style="fill:#87deaa;stroke:#37c8ab;stroke-opacity:1">
              <g
                 id="g41595"
                 transform="matrix(0.43609269,0.41239195,-0.41239195,0.43609269,342.57271,401.92478)"
                 style="fill:#87deaa;stroke:#37c8ab;stroke-opacity:1">
                <path
                   style="fill:#87deaa;stroke:#37c8ab;stroke-width:20;stroke-linecap:butt;stroke-linejoin:miter;stroke-miterlimit:4;stroke-dasharray:none;stroke-opacity:1"
                   d="m -353.36294,325.35481 v 86.403"
                   id="path41591" />
                <path
                   style="fill:#87deaa;stroke:#37c8ab;stroke-width:20;stroke-linecap:butt;stroke-linejoin:miter;stroke-miterlimit:4;stroke-dasharray:none;stroke-opacity:1"
                   d="m -310.16144,368.55631 h -86.403"
                   id="path41593" />
              </g>
              <g
                 id="g41601"
                 transform="matrix(0.43609269,0.41239195,-0.41239195,0.43609269,242.52714,402.33819)"
                 style="fill:#87deaa;stroke:#37c8ab;stroke-opacity:1">
                <path
                   style="fill:#87deaa;stroke:#37c8ab;stroke-width:20;stroke-linecap:butt;stroke-linejoin:miter;stroke-miterlimit:4;stroke-dasharray:none;stroke-opacity:1"
                   d="m -353.36294,325.35481 v 86.403"
                   id="path41597" />
                <path
                   style="fill:#87deaa;stroke:#37c8ab;stroke-width:20;stroke-linecap:butt;stroke-linejoin:miter;stroke-miterlimit:4;stroke-dasharray:none;stroke-opacity:1"
                   d="m -310.16144,368.55631 h -86.403"
                   id="path41599" />
              </g>
            </g>
            <g
               id="g66389">
              <path
                 style="fill:#87deaa;stroke:#37c8ab;stroke-width:5.95836;stroke-linecap:butt;stroke-linejoin:miter;stroke-miterlimit:4;stroke-dasharray:none;stroke-opacity:1"
                 d="M 50.373585,120.34935 H 141.3503"
                 id="path41587" />
              <g
                 id="g66299">
                <g
                   id="g66211">
                  <path
                     d="m -34.212293,158.07802 8.285276,-51.99604 h 54.063008 v 23.31474 H -6.256888 l -0.8940996,5.24731 q 2.920709,-0.35778 5.8414179,-0.53665 2.920709,-0.17891 5.7818153,-0.17891 14.3055324,0 22.4716024,7.63245 8.166071,7.63244 8.166071,20.92956 0,15.38417 -10.609929,23.97067 -10.609928,8.52688 -29.6839707,8.52688 -9.2390083,0 -17.6434893,-1.96777 -8.344909,-1.96773 -16.034128,-5.96283 l 3.874411,-24.32842 q 9.894667,4.11438 16.510979,5.84359 6.675915,1.72923 12.0404818,1.72923 6.37790202,0 9.2390084,-1.60998 2.8611064,-1.60996 2.8611064,-5.06841 0,-4.05475 -4.2916596,-6.26098 -4.2916596,-2.20627 -12.278922,-2.20627 -4.232057,0 -9.596624,0.71556 -5.364598,0.6559 -13.709476,2.20623 z"
                     id="path64992"
                     style="font-size:40px;line-height:1.25;font-family:'Futura XBlk BT';-inkscape-font-specification:'Futura XBlk BT, Normal';letter-spacing:0.143862px;word-spacing:3.46656px;white-space:pre;stroke-width:3.05241" />
                  <path
                     d="m 181.32872,149.55114 q 0,9.42131 1.66899,13.83381 1.72857,4.35287 5.36457,4.35287 3.636,0 5.30497,-4.29325 1.66899,-4.35287 1.66899,-13.89343 0,-9.48093 -1.66899,-13.83381 -1.66897,-4.35287 -5.30497,-4.35287 -3.6956,0 -5.36457,4.29325 -1.66899,4.29325 -1.66899,13.89343 z m -30.51847,0 q 0,-21.04885 10.01388,-33.09379 10.07347,-12.10457 27.53815,-12.10457 17.58389,0 27.53816,11.98532 9.95427,11.98532 9.95427,33.21304 0,21.22775 -9.95427,33.2727 -9.95427,12.04494 -27.53816,12.04494 -17.40508,0 -27.47855,-12.16419 -10.07348,-12.16423 -10.07348,-33.15345 z"
                     id="path64994"
                     style="font-size:40px;line-height:1.25;font-family:'Futura XBlk BT';-inkscape-font-specification:'Futura XBlk BT, Normal';letter-spacing:0.143862px;word-spacing:3.46656px;white-space:pre;stroke-width:3.05241" />
                  <path
                     id="path41585"
                     style="fill:none;stroke:#37c8ab;stroke-width:5.95836;stroke-linecap:round;stroke-linejoin:round;stroke-opacity:1"
                     d="M 50.373585,107.91675 H 141.3503 v 84.67664 H 50.373585 Z" />
                </g>
                <rect
                   style="fill:#37c8ab;fill-opacity:1;stroke:none;stroke-width:4.63539;stroke-linecap:round;stroke-linejoin:round;stroke-miterlimit:4;stroke-dasharray:none;stroke-opacity:1"
                   id="rect41589"
                   width="8.9378519"
                   height="15.480309"
                   x="59.359108"
                   y="104.86903" />
                <rect
                   style="fill:#37c8ab;fill-opacity:1;stroke:none;stroke-width:4.63539;stroke-linecap:round;stroke-linejoin:round;stroke-miterlimit:4;stroke-dasharray:none;stroke-opacity:1"
                   id="rect41605"
                   width="8.9378519"
                   height="15.480309"
                   x="73.871071"
                   y="104.86903" />
              </g>
            </g>
            <g
               id="g41611"
               transform="matrix(0.44943995,0,0,0.44943995,117.58009,-47.918125)"
               style="fill:#37c8ab;fill-opacity:1;stroke:#37c8ab;stroke-opacity:1">
              <path
                 style="fill:#37c8ab;fill-opacity:1;stroke:#37c8ab;stroke-width:12;stroke-linecap:butt;stroke-linejoin:miter;stroke-miterlimit:4;stroke-dasharray:none;stroke-opacity:1"
                 d="M -108.00325,472.52929 H 5.2714926"
                 id="path41607" />
              <path
                 id="path41609"
                 style="fill:#37c8ab;fill-opacity:1;stroke:#37c8ab;stroke-width:12;stroke-linejoin:round;stroke-opacity:1"
                 d="M -40.203771,472.52929 H 5.2714926 v 8.26823 c 1.1416044,13.69925 -9.0383791,25.73014 -22.7376296,26.87175 -13.699252,-1.14161 -23.879237,-13.1725 -22.737634,-26.87175 z" />
            </g>
          </g>
          <text
             xml:space="preserve"
             style="font-style:normal;font-variant:normal;font-weight:normal;font-stretch:normal;font-size:76.3496px;line-height:1.25;font-family:'Futura XBlk BT';-inkscape-font-specification:'Futura XBlk BT, Normal';font-variant-ligatures:normal;font-variant-caps:normal;font-variant-numeric:normal;font-variant-east-asian:normal;fill:#80b3ff;fill-opacity:1;stroke:none;stroke-width:0.865;stroke-miterlimit:4;stroke-dasharray:none;stroke-opacity:1"
             x="-44.068829"
             y="96.411415"
             id="text43422"><tspan
               id="tspan43420"
               style="font-style:normal;font-variant:normal;font-weight:normal;font-stretch:normal;font-size:76.3496px;font-family:'Futura XBlk BT';-inkscape-font-specification:'Futura XBlk BT, Normal';font-variant-ligatures:normal;font-variant-caps:normal;font-variant-numeric:normal;font-variant-east-asian:normal;fill:#80b3ff;stroke:none;stroke-width:0.865;stroke-miterlimit:4;stroke-dasharray:none;stroke-opacity:1"
               x="-44.068829"
               y="96.411415">ERROR</tspan></text>
        </g>
      </g>
    </g>
  </g>
</svg>
