<?xml version="1.0" encoding="UTF-8" standalone="no"?>
<!-- Created with Inkscape (http://www.inkscape.org/) -->

<svg
   width="213.17958mm"
   height="200.5088mm"
   viewBox="0 0 213.17959 200.5088"
   version="1.1"
   id="svg5"
   sodipodi:docname="NotFoundE.svg"
   inkscape:version="1.1 (c68e22c387, 2021-05-23)"
   xmlns:inkscape="http://www.inkscape.org/namespaces/inkscape"
   xmlns:sodipodi="http://sodipodi.sourceforge.net/DTD/sodipodi-0.dtd"
   xmlns="http://www.w3.org/2000/svg"
   xmlns:svg="http://www.w3.org/2000/svg">
  <sodipodi:namedview
     id="namedview31"
     pagecolor="#ffffff"
     bordercolor="#666666"
     borderopacity="1.0"
     inkscape:pageshadow="2"
     inkscape:pageopacity="0.0"
     inkscape:pagecheckerboard="0"
     inkscape:document-units="mm"
     showgrid="false"
     fit-margin-top="0"
     fit-margin-left="0"
     fit-margin-right="0"
     fit-margin-bottom="0"
     inkscape:zoom="0.81800953"
     inkscape:cx="333.12571"
     inkscape:cy="415.03184"
     inkscape:window-width="2400"
     inkscape:window-height="1271"
     inkscape:window-x="-9"
     inkscape:window-y="-9"
     inkscape:window-maximized="1"
     inkscape:current-layer="g1318"
     inkscape:snap-bbox="true"
     inkscape:object-paths="true"
     inkscape:snap-intersection-paths="true"
     inkscape:snap-global="false" />
  <defs
     id="defs2">
    <filter
       inkscape:collect="always"
       style="color-interpolation-filters:sRGB"
       id="filter904"
       x="-0.21105724"
       y="-0.098494438"
       width="1.4221145"
       height="1.1969889">
      <feGaussianBlur
         inkscape:collect="always"
         stdDeviation="9.8427101"
         id="feGaussianBlur906" />
    </filter>
    <filter
       inkscape:collect="always"
       style="color-interpolation-filters:sRGB"
       id="filter34563"
       x="-0.038008416"
       y="-0.039831535"
       width="1.0760168"
       height="1.0796631">
      <feGaussianBlur
         inkscape:collect="always"
         stdDeviation="3.082201"
         id="feGaussianBlur34565" />
    </filter>
  </defs>
  <g
     id="g1318"
     transform="translate(7.6259942,7.3972823)">
    <g
       id="g34525"
       style="opacity:0.418647;fill:#999999;fill-opacity:1;filter:url(#filter34563)">
      <path
         id="path34471"
         style="fill:#999999;fill-opacity:1;stroke-width:5.32802;stroke-linejoin:round"
         d="M -0.228712,4.1381421 V 164.90116 a 4.1381421,4.1381421 0 0 0 4.138142,4.13814 h 120.65818 a 4.1381421,4.1381421 0 0 0 4.13814,-4.13814 V 4.1381421 A 4.1381421,4.1381421 0 0 0 124.56761,0 H 3.90943 a 4.1381421,4.1381421 0 0 0 -4.138142,4.1381421 z" />
      <path
         id="path34473"
         style="fill:#999999;fill-opacity:1;stroke-width:5.32802;stroke-linejoin:round"
         d="M 7.530304,12.673061 V 173.43607 a 4.1381421,4.1381421 0 0 0 4.138142,4.13814 H 132.32663 a 4.1381421,4.1381421 0 0 0 4.13814,-4.13814 V 12.673061 A 4.1381421,4.1381421 0 0 0 132.32663,8.5349182 H 11.668446 A 4.1381421,4.1381421 0 0 0 7.530304,12.673061 Z" />
      <path
         id="path34475"
         style="fill:#999999;fill-opacity:1;stroke-width:5.32802;stroke-linejoin:round"
         d="m 21.642013,16.674926 c -2.836862,0 -5.120616,2.593334 -5.120616,5.814631 V 179.89958 c 0,3.2213 2.283754,5.81464 5.120616,5.81464 H 144.17252 c 2.83686,0 5.12113,-2.59334 5.12113,-5.81464 v -23.35929 l -9.0997,-2.11925 9.0997,-6.82491 V 56.446141 L 109.52244,16.674926 Z" />
      <path
         id="path34477"
         style="fill:#999999;fill-opacity:1;stroke-width:5.32802;stroke-linejoin:round"
         d="M 149.29365,56.446141 109.52244,16.674926 v 33.956583 c 0,3.221298 2.28427,5.814632 5.12113,5.814632 z" />
      <g
         id="g34487"
         transform="translate(-22.873725,-4.5324257)"
         style="fill:#999999;fill-opacity:1">
        <path
           id="path34479"
           style="fill:#999999;fill-opacity:1;stroke:#666666;stroke-width:5;stroke-linecap:round;stroke-linejoin:round;stroke-miterlimit:4;stroke-dasharray:none"
           d="m 122.72297,112.09561 c -2.04966,-3.55013 -5.01762,-6.57008 -8.69078,-8.69078 -7.34631,-4.241391 -16.397335,-4.241391 -23.743643,0 -3.673156,2.1207 -6.641112,5.14065 -8.690778,8.69078" />
        <g
           id="g34485"
           transform="translate(1.8104372,5.9485793)"
           style="fill:#999999;fill-opacity:1;stroke:none">
          <circle
             style="fill:#999999;fill-opacity:1;stroke:none;stroke-width:4.99999;stroke-linecap:round;stroke-linejoin:round;stroke-miterlimit:4;stroke-dasharray:none"
             id="circle34481"
             cx="80.176498"
             cy="71.253632"
             r="5.6899457" />
          <circle
             style="fill:#999999;fill-opacity:1;stroke:none;stroke-width:4.99999;stroke-linecap:round;stroke-linejoin:round;stroke-miterlimit:4;stroke-dasharray:none"
             id="circle34483"
             cx="120.52338"
             cy="71.253632"
             r="5.6899457" />
        </g>
      </g>
      <path
         style="fill:#999999;fill-opacity:1;stroke:none;stroke-width:0.264583px;stroke-linecap:butt;stroke-linejoin:miter;stroke-opacity:1"
         d="m 140.19395,154.42104 9.0997,9.88603 v -7.76678 z"
         id="path34489" />
      <path
         id="path34491"
         style="fill:#999999;fill-opacity:1;stroke:none;stroke-width:0.264583px;stroke-linecap:butt;stroke-linejoin:miter;stroke-opacity:1"
         d="m 16.521397,101.19431 v 78.70527 c 0,3.2213 2.283754,5.81464 5.120616,5.81464 H 101.0413 Z" />
      <path
         id="path34493"
         style="fill:#999999;fill-opacity:1;stroke-width:5.32802;stroke-linejoin:round"
         d="m 16.521397,88.422483 v 5.219319 L 108.5933,185.71422 h 5.21983 z" />
      <g
         id="g34505"
         transform="translate(-20.159052,-1.0180512)"
         style="fill:#999999;fill-opacity:1">
        <path
           style="fill:#999999;fill-opacity:1;stroke:#4d4d4d;stroke-width:1.81067;stroke-linecap:round;stroke-linejoin:miter;stroke-miterlimit:4;stroke-dasharray:none;stroke-opacity:1"
           d="M 61.374499,172.38505 H 129.54496"
           id="path34495" />
        <path
           style="fill:#999999;fill-opacity:1;stroke:#4d4d4d;stroke-width:2;stroke-linecap:round;stroke-linejoin:miter;stroke-miterlimit:4;stroke-dasharray:none;stroke-opacity:1"
           d="M 61.554865,166.17784 H 144.72666"
           id="path34497" />
        <path
           style="fill:#999999;fill-opacity:1;stroke:#4d4d4d;stroke-width:1.60979;stroke-linecap:round;stroke-linejoin:miter;stroke-miterlimit:4;stroke-dasharray:none;stroke-opacity:1"
           d="M 61.202722,153.76341 H 115.08619"
           id="path34499" />
        <path
           style="fill:#999999;fill-opacity:1;stroke:#4d4d4d;stroke-width:2;stroke-linecap:round;stroke-linejoin:miter;stroke-miterlimit:4;stroke-dasharray:none;stroke-opacity:1"
           d="M 61.554865,147.5562 H 144.72666"
           id="path34501" />
        <path
           style="fill:#999999;fill-opacity:1;stroke:#4d4d4d;stroke-width:1.88959;stroke-linecap:round;stroke-linejoin:miter;stroke-miterlimit:4;stroke-dasharray:none;stroke-opacity:1"
           d="M 61.447504,159.97063 H 135.68993"
           id="path34503" />
      </g>
      <g
         id="g34523"
         transform="matrix(0.84207762,0,0,0.84207762,19.853857,11.200528)"
         style="fill:#999999;fill-opacity:1">
        <path
           id="path34507"
           style="color:#000000;fill:#999999;fill-opacity:1;stroke-width:5.43247;stroke-linecap:round;stroke-linejoin:round;-inkscape-stroke:none;filter:url(#filter904)"
           d="m 564.25977,255.85352 c -28.02788,1.90867 -55.50359,13.51529 -76.81446,34.82617 -46.81357,46.81357 -46.81357,123.37397 0,170.1875 21.31086,21.31094 48.78678,32.91412 76.81446,34.82226 v -43.36523 c -16.78862,-1.82795 -33.10835,-9.2119 -46.08399,-22.1875 -30.20542,-30.20546 -30.20542,-78.5211 0,-108.72656 12.97568,-12.97568 29.29532,-20.36154 46.08399,-22.18946 z"
           transform="scale(0.26458333)" />
        <path
           id="path34509"
           style="color:#000000;fill:#999999;fill-opacity:1;stroke-width:1.43734;stroke-linecap:round;stroke-linejoin:round;-inkscape-stroke:none"
           d="m 128.96991,76.908822 c -12.38609,12.38609 -12.38609,32.642708 0,45.028788 11.03059,11.03063 28.30357,12.23769 40.70049,3.62137 l 8.47328,8.47329 5.29995,-5.29995 -8.15974,-8.15974 c 11.08358,-12.46673 10.6566,-31.723029 -1.28466,-43.664285 -12.38608,-12.386094 -32.64324,-12.385559 -45.02932,5.27e-4 z m 8.13084,8.130856 c 7.99188,-7.991875 20.77574,-7.992394 28.76761,-5.27e-4 7.99188,7.991856 7.99188,20.776269 0,28.768129 -7.99185,7.99187 -20.77573,7.99134 -28.76761,-5.2e-4 -7.99185,-7.99186 -7.99185,-20.775221 0,-28.767082 z" />
        <rect
           style="fill:#999999;fill-opacity:1;stroke:none;stroke-width:6.57464;stroke-linecap:round;stroke-linejoin:round;stroke-miterlimit:4;stroke-dasharray:none;stroke-opacity:1"
           id="rect34511"
           width="12.639359"
           height="35.501652"
           x="28.61953"
           y="222.68661"
           ry="0"
           transform="rotate(-45)" />
        <path
           id="path34513"
           style="fill:#999999;fill-opacity:1;stroke:none;stroke-width:0.380296px;stroke-linecap:butt;stroke-linejoin:miter;stroke-opacity:1"
           d="m 177.69989,137.2261 25.1037,25.10371 4.46905,-4.46905 -25.1037,-25.10371 z" />
        <path
           id="path34515"
           style="fill:#999999;fill-opacity:1;stroke:none;stroke-width:0.380296px;stroke-linecap:butt;stroke-linejoin:miter;stroke-opacity:1"
           d="m 127.68732,78.276481 c -11.08294,12.466721 -10.65847,31.720089 1.28259,43.661129 11.03059,11.03063 28.30357,12.23769 40.70049,3.62137 l 8.47328,8.47329 2.64973,-2.64971 -16.31214,-16.31213 c -8.0226,6.6999 -19.83597,6.28087 -27.38052,-1.26367 -7.54452,-7.54454 -7.96309,-19.357435 -1.26313,-27.379989 z" />
        <path
           id="path34517"
           style="fill:#999999;fill-opacity:1;stroke-width:5.20662;stroke-linecap:round;stroke-linejoin:round"
           d="m 169.93349,80.974388 a 26.09053,26.09053 0 0 1 0,36.897592 26.09053,26.09053 0 0 1 -36.89756,-2e-5 26.09053,26.09053 0 0 1 -2e-5,-36.89757 26.09053,26.09053 0 0 1 36.89758,-2e-6 z" />
        <path
           id="path34519"
           style="fill:#999999;fill-opacity:1;stroke:none;stroke-width:0.264583px;stroke-linecap:butt;stroke-linejoin:miter;stroke-opacity:1"
           d="m 140.18083,75.928724 a 26.09053,26.09053 0 0 0 -3.61787,2.112531 c 0.001,0.0095 0.0155,0.106971 0.0155,0.106971 l 36.26135,36.260834 a 26.09053,26.09053 0 0 0 2.19366,-3.75791 L 140.34516,75.962832 c 0,0 -0.0648,-0.01244 -0.16433,-0.03411 z" />
        <path
           id="path34521"
           style="fill:#999999;fill-opacity:1;stroke:none;stroke-width:0.264583px;stroke-linecap:butt;stroke-linejoin:miter;stroke-opacity:1"
           d="m 150.5094,73.351103 a 26.09053,26.09053 0 0 0 -6.5841,1.119312 l 32.52618,32.526175 a 26.09053,26.09053 0 0 0 0.92553,-10.769363 c -0.004,-0.0037 -15.10318,-15.133913 -22.6875,-22.687505 a 26.09053,26.09053 0 0 0 -4.18011,-0.188619 z" />
      </g>
    </g>
    <g
       id="g34469">
      <path
         id="path7035"
         style="fill:#afe9c6;stroke-width:5.32802;stroke-linejoin:round"
         d="M -0.228712,4.1381421 V 164.90116 a 4.1381421,4.1381421 0 0 0 4.138142,4.13814 h 120.65818 a 4.1381421,4.1381421 0 0 0 4.13814,-4.13814 V 4.1381421 A 4.1381421,4.1381421 0 0 0 124.56761,0 H 3.90943 a 4.1381421,4.1381421 0 0 0 -4.138142,4.1381421 z" />
      <path
         id="path5461"
         style="fill:#aaeeff;stroke-width:5.32802;stroke-linejoin:round"
         d="M 7.530304,12.673061 V 173.43607 a 4.1381421,4.1381421 0 0 0 4.138142,4.13814 H 132.32663 a 4.1381421,4.1381421 0 0 0 4.13814,-4.13814 V 12.673061 A 4.1381421,4.1381421 0 0 0 132.32663,8.5349182 H 11.668446 A 4.1381421,4.1381421 0 0 0 7.530304,12.673061 Z" />
      <path
         id="path1243"
         style="fill:#e6e6e6;stroke-width:5.32802;stroke-linejoin:round"
         d="m 21.642013,16.674926 c -2.836862,0 -5.120616,2.593334 -5.120616,5.814631 V 179.89958 c 0,3.2213 2.283754,5.81464 5.120616,5.81464 H 144.17252 c 2.83686,0 5.12113,-2.59334 5.12113,-5.81464 v -23.35929 l -9.0997,-2.11925 9.0997,-6.82491 V 56.446141 L 109.52244,16.674926 Z" />
      <path
         id="path1223"
         style="fill:#cccccc;stroke-width:5.32802;stroke-linejoin:round"
         d="M 149.29365,56.446141 109.52244,16.674926 v 33.956583 c 0,3.221298 2.28427,5.814632 5.12113,5.814632 z" />
      <g
         id="g5439"
         transform="translate(-22.873725,-4.5324257)">
        <path
           id="path1572"
           style="fill:none;stroke:#666666;stroke-width:5;stroke-linecap:round;stroke-linejoin:round;stroke-miterlimit:4;stroke-dasharray:none"
           d="m 122.72297,112.09561 c -2.04966,-3.55013 -5.01762,-6.57008 -8.69078,-8.69078 -7.34631,-4.241391 -16.397335,-4.241391 -23.743643,0 -3.673156,2.1207 -6.641112,5.14065 -8.690778,8.69078" />
        <g
           id="g4846"
           transform="translate(1.8104372,5.9485793)"
           style="stroke:none">
          <circle
             style="fill:#666666;fill-opacity:1;stroke:none;stroke-width:4.99999;stroke-linecap:round;stroke-linejoin:round;stroke-miterlimit:4;stroke-dasharray:none"
             id="path2186"
             cx="80.176498"
             cy="71.253632"
             r="5.6899457" />
          <circle
             style="fill:#666666;fill-opacity:1;stroke:none;stroke-width:4.99999;stroke-linecap:round;stroke-linejoin:round;stroke-miterlimit:4;stroke-dasharray:none"
             id="circle4842"
             cx="120.52338"
             cy="71.253632"
             r="5.6899457" />
        </g>
      </g>
      <path
         style="fill:#cccccc;fill-opacity:1;stroke:none;stroke-width:0.264583px;stroke-linecap:butt;stroke-linejoin:miter;stroke-opacity:1"
         d="m 140.19395,154.42104 9.0997,9.88603 v -7.76678 z"
         id="path16819" />
      <path
         id="path21692"
         style="fill:#dbdbdb;fill-opacity:1;stroke:none;stroke-width:0.264583px;stroke-linecap:butt;stroke-linejoin:miter;stroke-opacity:1"
         d="m 16.521397,101.19431 v 78.70527 c 0,3.2213 2.283754,5.81464 5.120616,5.81464 H 101.0413 Z" />
      <path
         id="path25372"
         style="fill:#dbdbdb;fill-opacity:1;stroke-width:5.32802;stroke-linejoin:round"
         d="m 16.521397,88.422483 v 5.219319 L 108.5933,185.71422 h 5.21983 z" />
      <g
         id="g45744"
         transform="translate(-20.159052,-1.0180512)">
        <path
           style="fill:#666666;stroke:#4d4d4d;stroke-width:1.81067;stroke-linecap:round;stroke-linejoin:miter;stroke-miterlimit:4;stroke-dasharray:none;stroke-opacity:1"
           d="M 61.374499,172.38505 H 129.54496"
           id="path22242" />
        <path
           style="fill:#666666;stroke:#4d4d4d;stroke-width:2;stroke-linecap:round;stroke-linejoin:miter;stroke-miterlimit:4;stroke-dasharray:none;stroke-opacity:1"
           d="M 61.554865,166.17784 H 144.72666"
           id="path22344" />
        <path
           style="fill:#666666;stroke:#4d4d4d;stroke-width:1.60979;stroke-linecap:round;stroke-linejoin:miter;stroke-miterlimit:4;stroke-dasharray:none;stroke-opacity:1"
           d="M 61.202722,153.76341 H 115.08619"
           id="path22346" />
        <path
           style="fill:#666666;stroke:#4d4d4d;stroke-width:2;stroke-linecap:round;stroke-linejoin:miter;stroke-miterlimit:4;stroke-dasharray:none;stroke-opacity:1"
           d="M 61.554865,147.5562 H 144.72666"
           id="path22348" />
        <path
           style="fill:#666666;stroke:#4d4d4d;stroke-width:1.88959;stroke-linecap:round;stroke-linejoin:miter;stroke-miterlimit:4;stroke-dasharray:none;stroke-opacity:1"
           d="M 61.447504,159.97063 H 135.68993"
           id="path22342" />
      </g>
      <g
         id="g34360"
         transform="matrix(0.84207762,0,0,0.84207762,19.853857,11.200528)">
        <path
           id="path899"
           style="color:#000000;fill:#536c67;stroke-width:5.43247;stroke-linecap:round;stroke-linejoin:round;-inkscape-stroke:none;filter:url(#filter904)"
           d="m 564.25977,255.85352 c -28.02788,1.90867 -55.50359,13.51529 -76.81446,34.82617 -46.81357,46.81357 -46.81357,123.37397 0,170.1875 21.31086,21.31094 48.78678,32.91412 76.81446,34.82226 v -43.36523 c -16.78862,-1.82795 -33.10835,-9.2119 -46.08399,-22.1875 -30.20542,-30.20546 -30.20542,-78.5211 0,-108.72656 12.97568,-12.97568 29.29532,-20.36154 46.08399,-22.18946 z"
           transform="scale(0.26458333)" />
        <path
           id="path34463"
           style="color:#000000;fill:#73948e;fill-opacity:1;stroke-width:1.43734;stroke-linecap:round;stroke-linejoin:round;-inkscape-stroke:none"
           d="m 128.96991,76.908822 c -12.38609,12.38609 -12.38609,32.642708 0,45.028788 11.03059,11.03063 28.30357,12.23769 40.70049,3.62137 l 8.47328,8.47329 5.29995,-5.29995 -8.15974,-8.15974 c 11.08358,-12.46673 10.6566,-31.723029 -1.28466,-43.664285 -12.38608,-12.386094 -32.64324,-12.385559 -45.02932,5.27e-4 z m 8.13084,8.130856 c 7.99188,-7.991875 20.77574,-7.992394 28.76761,-5.27e-4 7.99188,7.991856 7.99188,20.776269 0,28.768129 -7.99185,7.99187 -20.77573,7.99134 -28.76761,-5.2e-4 -7.99185,-7.99186 -7.99185,-20.775221 0,-28.767082 z" />
        <rect
           style="fill:#d99b72;fill-opacity:1;stroke:none;stroke-width:6.57464;stroke-linecap:round;stroke-linejoin:round;stroke-miterlimit:4;stroke-dasharray:none;stroke-opacity:1"
           id="rect33970"
           width="12.639359"
           height="35.501652"
           x="28.61953"
           y="222.68661"
           ry="0"
           transform="rotate(-45)" />
        <path
           id="path34601"
           style="fill:#cb7841;fill-opacity:1;stroke:none;stroke-width:0.380296px;stroke-linecap:butt;stroke-linejoin:miter;stroke-opacity:1"
           d="m 177.69989,137.2261 25.1037,25.10371 4.46905,-4.46905 -25.1037,-25.10371 z" />
        <path
           id="path41174"
           style="fill:#63827c;fill-opacity:1;stroke:none;stroke-width:0.380296px;stroke-linecap:butt;stroke-linejoin:miter;stroke-opacity:1"
           d="m 127.68732,78.276481 c -11.08294,12.466721 -10.65847,31.720089 1.28259,43.661129 11.03059,11.03063 28.30357,12.23769 40.70049,3.62137 l 8.47328,8.47329 2.64973,-2.64971 -16.31214,-16.31213 c -8.0226,6.6999 -19.83597,6.28087 -27.38052,-1.26367 -7.54452,-7.54454 -7.96309,-19.357435 -1.26313,-27.379989 z" />
        <path
           id="path7308"
           style="fill:#aaeeff;stroke-width:5.20662;stroke-linecap:round;stroke-linejoin:round"
           d="m 169.93349,80.974388 a 26.09053,26.09053 0 0 1 0,36.897592 26.09053,26.09053 0 0 1 -36.89756,-2e-5 26.09053,26.09053 0 0 1 -2e-5,-36.89757 26.09053,26.09053 0 0 1 36.89758,-2e-6 z" />
        <path
           id="path19414"
           style="fill:#e3f9ff;fill-opacity:1;stroke:none;stroke-width:0.264583px;stroke-linecap:butt;stroke-linejoin:miter;stroke-opacity:1"
           d="m 140.18083,75.928724 a 26.09053,26.09053 0 0 0 -3.61787,2.112531 c 0.001,0.0095 0.0155,0.106971 0.0155,0.106971 l 36.26135,36.260834 a 26.09053,26.09053 0 0 0 2.19366,-3.75791 L 140.34516,75.962832 c 0,0 -0.0648,-0.01244 -0.16433,-0.03411 z" />
        <path
           id="path25129"
           style="fill:#e3f9ff;fill-opacity:1;stroke:none;stroke-width:0.264583px;stroke-linecap:butt;stroke-linejoin:miter;stroke-opacity:1"
           d="m 150.5094,73.351103 a 26.09053,26.09053 0 0 0 -6.5841,1.119312 l 32.52618,32.526175 a 26.09053,26.09053 0 0 0 0.92553,-10.769363 c -0.004,-0.0037 -15.10318,-15.133913 -22.6875,-22.687505 a 26.09053,26.09053 0 0 0 -4.18011,-0.188619 z" />
      </g>
    </g>
  </g>
</svg>
