<?xml version="1.0" encoding="UTF-8" standalone="no"?>
<!-- Created with Inkscape (http://www.inkscape.org/) -->

<svg
   width="58.18573mm"
   height="20.069956mm"
   viewBox="0 0 58.185729 20.069956"
   version="1.1"
   id="svg1073"
   xmlns="http://www.w3.org/2000/svg"
   xmlns:svg="http://www.w3.org/2000/svg">
  <defs
     id="defs1070" />
  <g
     id="layer1"
     transform="translate(-98.192849,-160.41083)">
    <g
       id="g1033"
       transform="matrix(0.40684235,0,0,0.40684235,36.816926,67.045967)">
      <path
         style="color:#000000;fill:#5ff1d8;fill-opacity:1;stroke-linecap:round;stroke-linejoin:round;-inkscape-stroke:none"
         d="m 243.94856,249.98122 c -2.76131,2.8e-4 -4.99972,2.23869 -5,5 v 18.82625 c 0,2.76142 2.23858,5 5,5 2.76142,0 5,-2.23858 5,-5 v -13.82625 h 39.92855 c 2.76142,0 5,-2.23858 5,-5 0,-2.76142 -2.23858,-5 -5,-5 z"
         id="path211066" />
      <path
         style="color:#000000;opacity:0.660584;fill:#13debb;fill-opacity:1;stroke-width:0.929617;stroke-linecap:round;stroke-linejoin:round;-inkscape-stroke:none"
         d="m 248.93843,273.8174 a 4.9900609,4.9900609 0 0 1 -4.99006,4.99007 4.9900609,4.9900609 0 0 1 -4.99006,-4.99007 4.9900609,4.9900609 0 0 1 4.99006,-4.99006 4.9900609,4.9900609 0 0 1 4.99006,4.99006 z"
         id="path4591" />
      <path
         style="color:#000000;fill:#13debb;fill-opacity:1;stroke-width:0.929617;stroke-linecap:round;stroke-linejoin:round;-inkscape-stroke:none"
         d="m 229.54018,273.8174 a 4.9900609,4.9900609 0 0 1 -4.99006,4.99007 4.9900609,4.9900609 0 0 1 -4.99006,-4.99007 4.9900609,4.9900609 0 0 1 4.99006,-4.99006 4.9900609,4.9900609 0 0 1 4.99006,4.99006 z"
         id="path4429" />
      <path
         style="color:#000000;fill:#00b6e6;fill-opacity:1;stroke-width:10;stroke-linecap:round;-inkscape-stroke:none"
         d="M 224.55012,273.8174 V 260.2168"
         id="path4989" />
      <path
         style="color:#000000;fill:#5ff1d8;fill-opacity:1;stroke-linecap:round;-inkscape-stroke:none"
         d="m 229.55005,253.32304 c 0,-2.76142 -2.23858,-5 -5,-5 -2.76142,0 -5,2.23858 -5,5 v 20.4946 c 0,2.76142 2.23858,5 5,5 2.76142,0 5,-2.23858 5,-5 z"
         id="path4991" />
      <path
         style="color:#000000;opacity:0.7;fill:#00b6e6;fill-opacity:0.989712;stroke-width:1.26058;stroke-linecap:round;stroke-linejoin:round;-inkscape-stroke:none"
         d="m 217.84561,240.21718 c -6.464,1.3e-4 -11.70407,5.2402 -11.70419,11.7042 -1.6e-4,6.4642 5.23999,11.70458 11.70419,11.70471 6.4644,1.6e-4 11.70487,-5.24031 11.70471,-11.70471 -1.2e-4,-6.4642 -5.24051,-11.70436 -11.70471,-11.7042 z m 1.4e-4,10.00028 c 0.94119,-7e-5 1.70423,0.76287 1.7043,1.70406 7e-5,0.94128 -0.76302,1.70436 -1.7043,1.70429 -0.94119,-7e-5 -1.70413,-0.76311 -1.70406,-1.70429 7e-5,-0.9411 0.76297,-1.70399 1.70406,-1.70406 z"
         id="path210837" />
      <path
         style="color:#000000;opacity:0.660584;fill:#13debb;fill-opacity:1;stroke-width:0.929617;stroke-linecap:round;stroke-linejoin:round;-inkscape-stroke:none"
         d="m 229.54018,273.8174 a 4.9900609,4.9900609 0 0 1 -4.99006,4.99007 4.9900609,4.9900609 0 0 1 -4.99006,-4.99007 4.9900609,4.9900609 0 0 1 4.99006,-4.99006 4.9900609,4.9900609 0 0 1 4.99006,4.99006 z"
         id="path13726" />
      <g
         id="g6433"
         transform="translate(-227.54167,107.45391)">
        <g
           id="path207636"
           style="opacity:0.7;fill:#00b6e6;fill-opacity:0.989712"
           transform="translate(0,1.7470987)">
          <path
             style="color:#000000;fill:#00b6e6;fill-opacity:0.989712;stroke-width:10;stroke-linecap:round;-inkscape-stroke:none"
             d="m 488.48023,129.11126 h -13.6006"
             id="path100973" />
          <path
             style="color:#000000;fill:#00b6e6;fill-opacity:0.989712;stroke-linecap:round;-inkscape-stroke:none"
             d="m 474.87891,124.11133 a 5,5 0 0 0 -5,5 5,5 0 0 0 5,5 h 13.60156 a 5,5 0 0 0 5,-5 5,5 0 0 0 -5,-5 z"
             id="path100975" />
        </g>
        <path
           style="color:#000000;opacity:0.660584;fill:#00a3ce;fill-opacity:0.698039;stroke-width:0.929617;stroke-linecap:round;stroke-linejoin:round;-inkscape-stroke:none"
           d="m 479.86969,130.85835 a 4.9900609,4.9900609 0 0 1 -4.99006,4.99007 4.9900609,4.9900609 0 0 1 -4.99006,-4.99007 4.9900609,4.9900609 0 0 1 4.99006,-4.99006 4.9900609,4.9900609 0 0 1 4.99006,4.99006 z"
           id="path18063" />
      </g>
      <path
         style="color:#000000;fill:#5ff1d8;fill-opacity:1;stroke-linecap:round;stroke-linejoin:round;-inkscape-stroke:none"
         d="m 195.01692,229.48664 c -2.76142,0 -5,2.23858 -5,5 v 15.4946 h -18.26639 -7.11387 c -7.55033,0 -13.77735,6.22702 -13.77735,13.77735 -1.1e-4,0.0189 -1.1e-4,0.0377 0,0.0566 0.0838,7.49658 6.33741,13.61112 13.83399,13.52734 h 0.33067 c 2.76142,0 5,-2.23858 5,-5 0,-2.76142 -2.23858,-5 -5,-5 h -0.38731 c -0.0182,-1e-4 -0.0365,-1e-4 -0.0547,0 -2.08266,0.0233 -3.67869,-1.53358 -3.7168,-3.61133 0.0149,-2.13137 1.6354,-3.75 3.77149,-3.75 h 7.11387 23.26639 c 2.76131,-2.8e-4 4.99972,-2.23869 5,-5 v -20.4946 c 0,-2.76142 -2.23858,-5 -5,-5 z"
         id="path211536" />
      <path
         style="color:#000000;opacity:0.660584;fill:#13debb;fill-opacity:1;stroke-width:0.929617;stroke-linecap:round;stroke-linejoin:round;-inkscape-stroke:none"
         d="m 170.01403,272.35246 c 1e-5,2.75594 -2.23412,4.99007 -4.99006,4.99007 -2.75594,0 -4.99006,-2.23413 -4.99006,-4.99007 0,-2.75593 2.23413,-4.99006 4.99006,-4.99006 2.75593,0 4.99006,2.23413 4.99006,4.99006 z"
         id="path13728" />
      <g
         id="path211538"
         style="opacity:0.7;fill:#00b6e6;fill-opacity:0.989712"
         transform="translate(-227.54167,107.45391)">
        <path
           style="color:#000000;fill:#00b6e6;fill-opacity:0.989712;stroke-width:10;stroke-linecap:round;-inkscape-stroke:none"
           d="m 414.13878,164.88921 h -13.6006"
           id="path100965" />
        <path
           style="color:#000000;fill:#00b6e6;fill-opacity:0.989712;stroke-linecap:round;-inkscape-stroke:none"
           d="m 405.38845,159.88867 a 5,5 0 0 0 -5,5 5,5 0 0 0 5,5 h 13.59961 a 5,5 0 0 0 5,-5 5,5 0 0 0 -5,-5 z"
           id="path100967" />
      </g>
      <path
         style="color:#000000;opacity:0.660584;fill:#00a3ce;fill-opacity:0.698039;stroke-width:0.929617;stroke-linecap:round;stroke-linejoin:round;-inkscape-stroke:none"
         d="m 196.57723,272.34311 a 4.9900609,4.9900609 0 0 1 -4.99006,4.99007 4.9900609,4.9900609 0 0 1 -4.99006,-4.99007 4.9900609,4.9900609 0 0 1 4.99006,-4.99006 4.9900609,4.9900609 0 0 1 4.99006,4.99006 z"
         id="path18065" />
      <path
         style="color:#000000;fill:#00b5e5;fill-opacity:0.698039;stroke-width:0.929617;stroke-linecap:round;stroke-linejoin:round;-inkscape-stroke:none"
         d="m 288.02185,272.34256 a 4.9900609,4.9900609 0 0 1 -4.99006,4.99007 4.9900609,4.9900609 0 0 1 -4.99006,-4.99007 4.9900609,4.9900609 0 0 1 4.99006,-4.99006 4.9900609,4.9900609 0 0 1 4.99006,4.99006 z"
         id="path18147" />
      <g
         id="g26012"
         transform="matrix(1.2796844,0,0,1.2796844,-340.53789,68.891347)">
        <path
           id="path25509"
           style="color:#000000;fill:#00b5e5;fill-opacity:0.698039;stroke-width:0.929616;stroke-linecap:round;stroke-linejoin:round;-inkscape-stroke:none"
           d="m 402.67854,134.88773 a 4.9900609,4.9900609 0 0 1 -4.98988,-4.98988 h 2.95951 a 2.0306704,2.0306704 0 0 0 2.03037,2.03088 2.0306704,2.0306704 0 0 0 2.03089,-2.03088 h 2.9595 a 4.9900609,4.9900609 0 0 1 -4.99039,4.98988 z" />
        <path
           id="path25922"
           style="color:#000000;fill:#00b5e5;fill-opacity:0.698039;stroke-width:0.929616;stroke-linecap:round;stroke-linejoin:round;-inkscape-stroke:none"
           d="m 395.65777,134.88773 a 4.9900609,4.9900609 0 0 1 -4.98988,-4.98988 h 2.95951 a 2.0306704,2.0306704 0 0 0 2.03037,2.03088 2.0306704,2.0306704 0 0 0 2.03089,-2.03088 h 2.9595 a 4.9900609,4.9900609 0 0 1 -4.99039,4.98988 z" />
      </g>
    </g>
  </g>
</svg>
