<?xml version="1.0" encoding="UTF-8" standalone="no"?>
<!-- Created with Inkscape (http://www.inkscape.org/) -->

<svg
   width="137.57909"
   height="137.57909"
   viewBox="0 0 36.401134 36.401134"
   version="1.1"
   id="svg5"
   xmlns="http://www.w3.org/2000/svg"
   xmlns:svg="http://www.w3.org/2000/svg">
  <defs
     id="defs2" />
  <g
     id="layer1"
     transform="translate(-24.234679,11.700569)">
    <g
       id="g20195"
       transform="matrix(1.2183302,0,0,1.2183302,-14.940816,0.22209766)">
      <path
         id="path6797"
         style="fill:#2ca089;stroke:none;stroke-width:0.0900052;stroke-linejoin:round;paint-order:fill markers stroke"
         d="m 35.677791,5.46168 10.10095,5.728325 -0.06856,7.235556 -1.178153,0.680312 -3.081615,-3.139979 -2.906176,-1.678101 -0.858213,1.487192 -1.178501,0.680311 0.538975,-2.526468 -0.219036,-0.632145 -1.149674,-0.663434 V 10.083928 L 35.603501,8.0005367 34.499638,6.141991 Z" />
      <path
         id="path6799"
         style="fill:#afe9dd;stroke:none;stroke-width:0.0900052;stroke-linejoin:round;paint-order:fill markers stroke"
         d="m 34.499531,6.142034 v 7.171445 l 1.149389,0.663638 0.858625,2.478092 0.858337,-1.486912 7.166029,4.13747 0.06842,-7.235299 z" />
      <g
         id="g11516"
         transform="translate(-40.27016,-24.629533)">
        <path
           id="path6801"
           style="fill:#72d8c3;fill-opacity:1;fill-rule:evenodd;stroke-width:0.18001"
           d="m 82.547171,37.289222 -5.717636,-3.467588 c -0.261132,-0.15837 -0.471364,-0.04 -0.471364,0.26541 0,0.30541 0.210232,0.678781 0.471364,0.837151 l 5.717636,3.467588 c 0.261137,0.158373 0.471368,0.04 0.471368,-0.265409 0,-0.30541 -0.210231,-0.678779 -0.471368,-0.837152 z" />
        <path
           id="path6803"
           style="fill:#2ca089;fill-opacity:1;fill-rule:evenodd;stroke-width:0.18001"
           d="m 76.624758,33.751532 c 0.0071,3.25e-4 0.0145,8.85e-4 0.0218,0.0018 -0.0434,0.05715 -0.06856,0.140172 -0.06856,0.245405 0,0.30541 0.210335,0.678744 0.471472,0.837117 l 5.717426,3.467647 c 0.06502,0.03943 0.126925,0.0617 0.183175,0.06821 -0.08256,0.108724 -0.231749,0.123846 -0.402913,0.02004 L 76.82938,34.924066 c -0.261133,-0.15837 -0.47112,-0.531707 -0.47112,-0.837117 0,-0.219513 0.108449,-0.342451 0.266499,-0.335409 z" />
      </g>
      <g
         id="g11522"
         transform="translate(-40.544916,-22.918754)">
        <path
           id="path11518"
           style="fill:#72d8c3;fill-opacity:1;fill-rule:evenodd;stroke-width:0.18001"
           d="m 82.547171,37.289222 -5.717636,-3.467588 c -0.261132,-0.15837 -0.471364,-0.04 -0.471364,0.26541 0,0.30541 0.210232,0.678781 0.471364,0.837151 l 5.717636,3.467588 c 0.261137,0.158373 0.471368,0.04 0.471368,-0.265409 0,-0.30541 -0.210231,-0.678779 -0.471368,-0.837152 z" />
        <path
           id="path11520"
           style="fill:#2ca089;fill-opacity:1;fill-rule:evenodd;stroke-width:0.18001"
           d="m 76.624758,33.751532 c 0.0071,3.25e-4 0.0145,8.85e-4 0.0218,0.0018 -0.0434,0.05715 -0.06856,0.140172 -0.06856,0.245405 0,0.30541 0.210335,0.678744 0.471472,0.837117 l 5.717426,3.467647 c 0.06502,0.03943 0.126925,0.0617 0.183175,0.06821 -0.08256,0.108724 -0.231749,0.123846 -0.402913,0.02004 L 76.82938,34.924066 c -0.261133,-0.15837 -0.47112,-0.531707 -0.47112,-0.837117 0,-0.219513 0.108449,-0.342451 0.266499,-0.335409 z" />
      </g>
    </g>
    <g
       id="g20185"
       transform="matrix(1.2782425,0,0,1.2782425,-8.6927011,-0.6217449)">
      <path
         id="path832"
         style="fill:#2a7fff;stroke:none;stroke-width:0.132292;stroke-linejoin:round;paint-order:fill markers stroke"
         d="M 48.670834,-8.079821 33.824195,0.33982005 33.924961,10.97483 l 1.73168,0.99994 4.529439,-4.615223 4.271573,-2.466517 1.261423,2.185913 1.732192,0.99994 -0.792199,-3.713469 0.321945,-0.929143 1.68982,-0.975133 V -1.28592 L 47.982625,-3.7515699 50.40251,-7.079882 Z" />
      <path
         id="path823"
         style="fill:#d5e5ff;stroke:none;stroke-width:0.132292;stroke-linejoin:round;paint-order:fill markers stroke"
         d="M 50.402671,-7.079818 V 3.460958 L 48.713269,4.43639 47.45124,8.078755 46.189634,5.893253 35.656818,11.974614 35.556258,1.339983 Z" />
      <g
         id="g6687"
         transform="translate(-40.27016,-24.629533)">
        <path
           id="rect964"
           style="fill:#97c1ff;fill-opacity:1;fill-rule:evenodd;stroke-width:0.264583"
           d="m 79.241305,27.129533 8.403929,-5.096751 c 0.383819,-0.232776 0.692823,-0.05879 0.692823,0.390107 0,0.448899 -0.309004,0.99769 -0.692823,1.230466 l -8.403929,5.096751 c -0.383827,0.232781 -0.692829,0.05879 -0.692829,-0.390105 0,-0.448899 0.309002,-0.997687 0.692829,-1.230468 z" />
        <path
           id="path28"
           style="fill:#2a7fff;fill-opacity:1;fill-rule:evenodd;stroke-width:0.264583"
           d="m 87.946221,21.929745 c -0.01042,4.77e-4 -0.02132,0.0013 -0.03204,0.0026 0.06379,0.084 0.100769,0.206028 0.100769,0.360702 0,0.448899 -0.309155,0.997635 -0.692981,1.230416 l -8.403622,5.096838 c -0.09557,0.05796 -0.186558,0.09069 -0.269235,0.100251 0.121344,0.159805 0.34063,0.182033 0.592212,0.02946 l 8.404138,-5.096847 c 0.38382,-0.232776 0.692465,-0.781517 0.692465,-1.230416 0,-0.322646 -0.159401,-0.503344 -0.391708,-0.492993 z" />
      </g>
      <g
         id="g6693"
         transform="translate(-40.27016,-21.737634)">
        <path
           id="path6689"
           style="fill:#97c1ff;fill-opacity:1;fill-rule:evenodd;stroke-width:0.264583"
           d="m 79.241305,27.129533 8.403929,-5.096751 c 0.383819,-0.232776 0.692823,-0.05879 0.692823,0.390107 0,0.448899 -0.309004,0.99769 -0.692823,1.230466 l -8.403929,5.096751 c -0.383827,0.232781 -0.692829,0.05879 -0.692829,-0.390105 0,-0.448899 0.309002,-0.997687 0.692829,-1.230468 z" />
        <path
           id="path6691"
           style="fill:#2a7fff;fill-opacity:1;fill-rule:evenodd;stroke-width:0.264583"
           d="m 87.946221,21.929745 c -0.01042,4.77e-4 -0.02132,0.0013 -0.03204,0.0026 0.06379,0.084 0.100769,0.206028 0.100769,0.360702 0,0.448899 -0.309155,0.997635 -0.692981,1.230416 l -8.403622,5.096838 c -0.09557,0.05796 -0.186558,0.09069 -0.269235,0.100251 0.121344,0.159805 0.34063,0.182033 0.592212,0.02946 l 8.404138,-5.096847 c 0.38382,-0.232776 0.692465,-0.781517 0.692465,-1.230416 0,-0.322646 -0.159401,-0.503344 -0.391708,-0.492993 z" />
      </g>
    </g>
    <rect
       style="fill:none;fill-opacity:1;stroke:none;stroke-width:0.264583;stroke-opacity:1"
       id="rect20051"
       width="36.136551"
       height="36.136551"
       x="24.36697"
       y="-11.568277" />
  </g>
</svg>
