<?xml version="1.0" encoding="UTF-8" standalone="no"?>
<!-- Created with Inkscape (http://www.inkscape.org/) -->

<svg
   width="364.06909"
   height="380.54279"
   viewBox="0 0 96.326616 100.68528"
   version="1.1"
   id="svg5"
   inkscape:version="1.1 (c68e22c387, 2021-05-23)"
   sodipodi:docname="communities-icon.svg"
   xmlns:inkscape="http://www.inkscape.org/namespaces/inkscape"
   xmlns:sodipodi="http://sodipodi.sourceforge.net/DTD/sodipodi-0.dtd"
   xmlns="http://www.w3.org/2000/svg"
   xmlns:svg="http://www.w3.org/2000/svg">
  <sodipodi:namedview
     id="namedview7"
     pagecolor="#ffffff"
     bordercolor="#999999"
     borderopacity="1"
     inkscape:pageshadow="0"
     inkscape:pageopacity="0"
     inkscape:pagecheckerboard="0"
     inkscape:document-units="px"
     showgrid="true"
     inkscape:zoom="1.4726563"
     inkscape:cx="196.58355"
     inkscape:cy="137.50663"
     inkscape:window-width="1920"
     inkscape:window-height="1001"
     inkscape:window-x="-9"
     inkscape:window-y="-9"
     inkscape:window-maximized="1"
     inkscape:current-layer="layer1"
     inkscape:snap-grids="false"
     inkscape:snap-smooth-nodes="true"
     inkscape:object-paths="true"
     inkscape:snap-intersection-paths="true"
     fit-margin-top="0"
     fit-margin-left="0"
     fit-margin-right="0"
     fit-margin-bottom="0">
    <inkscape:grid
       type="axonomgrid"
       id="grid1058"
       originx="-30.31089"
       originy="-26.814934" />
  </sodipodi:namedview>
  <defs
     id="defs2">
    <inkscape:path-effect
       effect="perspective-envelope"
       up_left_point="34.641017,60.000001"
       up_right_point="56.291653,72.500002"
       down_left_point="34.641017,85.000002"
       down_right_point="56.291653,97.500002"
       id="path-effect1348"
       is_visible="true"
       lpeversion="1"
       deform_type="perspective"
       horizontal_mirror="false"
       vertical_mirror="false"
       overflow_perspective="false" />
    <inkscape:path-effect
       effect="perspective-envelope"
       up_left_point="30.31089,-107.5"
       up_right_point="64.951907,-127.5"
       down_left_point="30.31089,-87.500002"
       down_right_point="64.951907,-102.5"
       id="path-effect1342"
       is_visible="true"
       lpeversion="1"
       deform_type="perspective"
       horizontal_mirror="false"
       vertical_mirror="false"
       overflow_perspective="false" />
    <inkscape:path-effect
       effect="perspective-envelope"
       up_left_point="30.31089,-107.5"
       up_right_point="64.951907,-127.5"
       down_left_point="30.31089,-87.500002"
       down_right_point="64.951907,-102.5"
       id="path-effect1218"
       is_visible="true"
       lpeversion="1"
       deform_type="perspective"
       horizontal_mirror="false"
       vertical_mirror="false"
       overflow_perspective="false" />
    <inkscape:path-effect
       effect="perspective-envelope"
       up_left_point="34.641017,60.000001"
       up_right_point="56.291653,72.500002"
       down_left_point="34.641017,85.000002"
       down_right_point="56.291653,97.500002"
       id="path-effect1060"
       is_visible="true"
       lpeversion="1"
       deform_type="perspective"
       horizontal_mirror="false"
       vertical_mirror="false"
       overflow_perspective="false" />
  </defs>
  <g
     inkscape:label="Layer 1"
     inkscape:groupmode="layer"
     id="layer1"
     transform="translate(-30.31089,-26.814934)">
    <path
       id="path846"
       style="fill:#e300b6;stroke-width:1.09987;stroke-linejoin:round;paint-order:fill markers stroke"
       d="m 64.951907,-127.5 c -1e-6,8.93164 -4.030561,19.11196 -10.188536,26.25942 -5.725417,6.645399 -12.24937,9.4283 -17.159636,7.762166 C 33.003222,-95.039444 30.31089,-100.35469 30.31089,-107.5"
       inkscape:path-effect="#path-effect1218"
       inkscape:original-d="m 63.601065,-120.55457 a 20.481699,20.481699 0 0 1 -10.24085,17.73767 20.481699,20.481699 0 0 1 -20.481699,0 20.481699,20.481699 0 0 1 -10.240849,-17.73767"
       transform="scale(1,-1)" />
    <g
       id="g1124">
      <g
         id="g5378"
         transform="matrix(-1,0,0,1,96.365236,-37.956421)"
         style="fill:#8d5fd3;fill-opacity:1">
        <path
           id="path5376"
           style="fill:#8d5fd3;fill-opacity:1;stroke-width:4.15699;stroke-linejoin:round;paint-order:fill markers stroke"
           d="m 185.94727,225.91016 c -3.02961,0.0427 -5.83984,0.63949 -8.37305,1.74804 -4.6e-4,-0.001 -0.001,-0.003 -0.002,-0.004 -0.0124,0.007 -0.0247,0.0144 -0.0371,0.0215 -1.28318,0.56487 -2.49429,1.26211 -3.62696,2.08789 -9.85818,5.67419 -19.7164,11.34692 -29.57617,17.01953 l 5.56641,8.11328 c 0,0 7.53217,-5.31192 13.95898,-4.34765 -0.13143,1.46549 -0.19922,2.98709 -0.19922,4.56836 0,26.09219 18.31756,57.82109 40.91407,70.86719 0.21729,0.12545 0.4339,0.24414 0.65039,0.36523 -3.04956,1.57886 -5.38791,3.22523 -6.31836,4.83984 -0.60735,1.05393 -1.15153,2.03834 -1.65039,2.96485 -7.98489,-2.09556 -15.60176,-2.05428 -22.39844,0.25195 -2.81008,0.95351 -5.42878,2.28326 -7.84961,3.94727 l -0.0742,-0.0859 -29.45898,17.00781 6.54687,7.55859 7.0293,-1.35351 c -2.45477,7.54269 -3.75586,16.28915 -3.75586,25.92187 l 91.64844,52.91211 -9.82032,17.00782 16.36719,24.56835 32.73047,-18.89843 c 0,-33.75738 -15.23358,-72.23403 -38.50781,-99.24805 -8.68061,-10.07544 -17.84674,-17.79532 -26.91016,-23.0293 l 19.07031,-11.02734 c 1.12533,-0.51517 2.19547,-1.1327 3.20313,-1.85156 l 0.0371,-0.0215 v -0.006 c 6.4525,-4.62618 10.37695,-13.37463 10.37695,-25.44726 0,-26.09219 -18.31951,-57.81914 -40.91601,-70.86524 -6.70834,-3.87306 -13.03817,-5.66463 -18.625,-5.58593 z"
           transform="matrix(0.26458334,0,0,0.26458334,-8.6602541,4.9999975)" />
      </g>
      <g
         id="g5384"
         transform="matrix(-1,0,0,1,105.02549,-32.956424)"
         style="fill:#aa87de;fill-opacity:1">
        <path
           id="path5380"
           style="fill:#aa87de;fill-opacity:1;stroke-width:1.09987;stroke-linejoin:round;paint-order:fill markers stroke"
           d="m 64.951907,-127.5 c -1e-6,8.93164 -4.030561,19.11196 -10.188536,26.25942 -5.725417,6.645399 -12.24937,9.4283 -17.159636,7.762166 C 33.003222,-95.039444 30.31089,-100.35469 30.31089,-107.5"
           transform="scale(1,-1)" />
        <path
           id="path5382"
           style="fill:#aa87de;fill-opacity:1;stroke-width:1.09987;stroke-linejoin:round;paint-order:fill markers stroke"
           d="m 56.291653,85.000002 c 0,6.903559 -4.84666,9.70178 -10.825318,6.25 -5.978658,-3.45178 -10.825318,-11.846441 -10.825318,-18.750001 0,-6.903559 4.84666,-9.701779 10.825318,-6.249999 5.978658,3.45178 10.825318,11.846441 10.825318,18.75 z" />
      </g>
      <g
         id="g5390"
         transform="translate(61.685723,-37.956421)"
         style="fill:#00aad4">
        <path
           id="path5388"
           style="fill:#00aad4;stroke-width:4.15699;stroke-linejoin:round;paint-order:fill markers stroke"
           d="m 185.94727,225.91016 c -3.02961,0.0427 -5.83984,0.63949 -8.37305,1.74804 -4.6e-4,-0.001 -0.001,-0.003 -0.002,-0.004 -0.0124,0.007 -0.0247,0.0144 -0.0371,0.0215 -1.28318,0.56487 -2.49429,1.26211 -3.62696,2.08789 -9.85818,5.67419 -19.7164,11.34692 -29.57617,17.01953 l 5.56641,8.11328 c 0,0 7.53217,-5.31192 13.95898,-4.34765 -0.13143,1.46549 -0.19922,2.98709 -0.19922,4.56836 0,26.09219 18.31756,57.82109 40.91407,70.86719 0.21729,0.12545 0.4339,0.24414 0.65039,0.36523 -3.04956,1.57886 -5.38791,3.22523 -6.31836,4.83984 -0.60735,1.05393 -1.15153,2.03834 -1.65039,2.96485 -7.98489,-2.09556 -15.60176,-2.05428 -22.39844,0.25195 -2.81008,0.95351 -5.42878,2.28326 -7.84961,3.94727 l -0.0742,-0.0859 -29.45898,17.00781 6.54687,7.55859 7.0293,-1.35351 c -2.45477,7.54269 -3.75586,16.28915 -3.75586,25.92187 l 91.64844,52.91211 -9.82032,17.00782 16.36719,24.56835 32.73047,-18.89843 c 0,-33.75738 -15.23358,-72.23403 -38.50781,-99.24805 -8.68061,-10.07544 -17.84674,-17.79532 -26.91016,-23.0293 l 19.07031,-11.02734 c 1.12533,-0.51517 2.19547,-1.1327 3.20313,-1.85156 l 0.0371,-0.0215 v -0.006 c 6.4525,-4.62618 10.37695,-13.37463 10.37695,-25.44726 0,-26.09219 -18.31951,-57.81914 -40.91601,-70.86524 -6.70834,-3.87306 -13.03817,-5.66463 -18.625,-5.58593 z"
           transform="matrix(0.26458334,0,0,0.26458334,-8.6602541,4.9999975)" />
      </g>
      <g
         id="g5396"
         transform="translate(53.025469,-32.956424)"
         style="fill:#80e5ff">
        <path
           id="path5392"
           style="fill:#80e5ff;stroke-width:1.09987;stroke-linejoin:round;paint-order:fill markers stroke"
           d="m 64.951907,-127.5 c -1e-6,8.93164 -4.030561,19.11196 -10.188536,26.25942 -5.725417,6.645399 -12.24937,9.4283 -17.159636,7.762166 C 33.003222,-95.039444 30.31089,-100.35469 30.31089,-107.5"
           transform="scale(1,-1)" />
        <path
           id="path5394"
           style="fill:#80e5ff;stroke-width:1.09987;stroke-linejoin:round;paint-order:fill markers stroke"
           d="m 56.291653,85.000002 c 0,6.903559 -4.84666,9.70178 -10.825318,6.25 -5.978658,-3.45178 -10.825318,-11.846441 -10.825318,-18.750001 0,-6.903559 4.84666,-9.701779 10.825318,-6.249999 5.978658,3.45178 10.825318,11.846441 10.825318,18.75 z" />
      </g>
      <path
         id="circle928"
         style="fill:#e300b6;stroke-width:1.09987;stroke-linejoin:round;paint-order:fill markers stroke"
         d="m 56.291653,85.000002 c 0,6.903559 -4.84666,9.70178 -10.825318,6.25 -5.978658,-3.45178 -10.825318,-11.846441 -10.825318,-18.750001 0,-6.903559 4.84666,-9.701779 10.825318,-6.249999 5.978658,3.45178 10.825318,11.846441 10.825318,18.75 z"
         inkscape:path-effect="#path-effect1060"
         inkscape:original-d="M 55.695848,84.801422 A 12.576482,12.576482 0 0 1 43.119366,97.377904 12.576482,12.576482 0 0 1 30.542884,84.801422 12.576482,12.576482 0 0 1 43.119366,72.22494 12.576482,12.576482 0 0 1 55.695848,84.801422 Z" />
      <g
         id="g1511"
         transform="translate(8.6602541,-4.9999975)"
         style="fill:#ff912a;fill-opacity:1">
        <path
           id="path1507"
           style="fill:#ff912a;fill-opacity:1;stroke-width:4.15699;stroke-linejoin:round;paint-order:fill markers stroke"
           d="m 185.94727,225.91016 c -3.02961,0.0427 -5.83984,0.63949 -8.37305,1.74804 -4.6e-4,-0.001 -0.001,-0.003 -0.002,-0.004 -0.0124,0.007 -0.0247,0.0144 -0.0371,0.0215 -1.28318,0.56487 -2.49429,1.26211 -3.62696,2.08789 -9.85818,5.67419 -19.7164,11.34692 -29.57617,17.01953 l 5.56641,8.11328 c 0,0 7.53217,-5.31192 13.95898,-4.34765 -0.13143,1.46549 -0.19922,2.98709 -0.19922,4.56836 0,26.09219 18.31756,57.82109 40.91407,70.86719 0.21729,0.12545 0.4339,0.24414 0.65039,0.36523 -3.04956,1.57886 -5.38791,3.22523 -6.31836,4.83984 -0.60735,1.05393 -1.15153,2.03834 -1.65039,2.96485 -7.98489,-2.09556 -15.60176,-2.05428 -22.39844,0.25195 -2.81008,0.95351 -5.42878,2.28326 -7.84961,3.94727 l -0.0742,-0.0859 -29.45898,17.00781 6.54687,7.55859 7.0293,-1.35351 c -2.45477,7.54269 -3.75586,16.28915 -3.75586,25.92187 l 91.64844,52.91211 -9.82032,17.00782 16.36719,24.56835 32.73047,-18.89843 c 0,-33.75738 -15.23358,-72.23403 -38.50781,-99.24805 -8.68061,-10.07544 -17.84674,-17.79532 -26.91016,-23.0293 l 19.07031,-11.02734 c 1.12533,-0.51517 2.19547,-1.1327 3.20313,-1.85156 l 0.0371,-0.0215 v -0.006 c 6.4525,-4.62618 10.37695,-13.37463 10.37695,-25.44726 0,-26.09219 -18.31951,-57.81914 -40.91601,-70.86524 -6.70834,-3.87306 -13.03817,-5.66463 -18.625,-5.58593 z"
           transform="matrix(0.26458334,0,0,0.26458334,-8.6602541,4.9999975)" />
      </g>
      <g
         id="g1505"
         style="fill:#ffd42a">
        <path
           id="path1338"
           style="fill:#ffd42a;stroke-width:1.09987;stroke-linejoin:round;paint-order:fill markers stroke"
           d="m 64.951907,-127.5 c -1e-6,8.93164 -4.030561,19.11196 -10.188536,26.25942 -5.725417,6.645399 -12.24937,9.4283 -17.159636,7.762166 C 33.003222,-95.039444 30.31089,-100.35469 30.31089,-107.5"
           transform="scale(1,-1)" />
        <path
           id="path1344"
           style="fill:#ffd42a;stroke-width:1.09987;stroke-linejoin:round;paint-order:fill markers stroke"
           d="m 56.291653,85.000002 c 0,6.903559 -4.84666,9.70178 -10.825318,6.25 -5.978658,-3.45178 -10.825318,-11.846441 -10.825318,-18.750001 0,-6.903559 4.84666,-9.701779 10.825318,-6.249999 5.978658,3.45178 10.825318,11.846441 10.825318,18.75 z" />
      </g>
      <g
         id="g5352"
         transform="matrix(-1,0,0,1,147.18559,-4.9999975)"
         style="fill:#ba00ba;fill-opacity:1">
        <path
           id="path5350"
           style="fill:#ba00ba;fill-opacity:1;stroke-width:4.15699;stroke-linejoin:round;paint-order:fill markers stroke"
           d="m 185.94727,225.91016 c -3.02961,0.0427 -5.83984,0.63949 -8.37305,1.74804 -4.6e-4,-0.001 -0.001,-0.003 -0.002,-0.004 -0.0124,0.007 -0.0247,0.0144 -0.0371,0.0215 -1.28318,0.56487 -2.49429,1.26211 -3.62696,2.08789 -9.85818,5.67419 -19.7164,11.34692 -29.57617,17.01953 l 5.56641,8.11328 c 0,0 7.53217,-5.31192 13.95898,-4.34765 -0.13143,1.46549 -0.19922,2.98709 -0.19922,4.56836 0,26.09219 18.31756,57.82109 40.91407,70.86719 0.21729,0.12545 0.4339,0.24414 0.65039,0.36523 -3.04956,1.57886 -5.38791,3.22523 -6.31836,4.83984 -0.60735,1.05393 -1.15153,2.03834 -1.65039,2.96485 -7.98489,-2.09556 -15.60176,-2.05428 -22.39844,0.25195 -2.81008,0.95351 -5.42878,2.28326 -7.84961,3.94727 l -0.0742,-0.0859 -29.45898,17.00781 6.54687,7.55859 7.0293,-1.35351 c -2.45477,7.54269 -3.75586,16.28915 -3.75586,25.92187 l 91.64844,52.91211 -9.82032,17.00782 16.36719,24.56835 32.73047,-18.89843 c 0,-33.75738 -15.23358,-72.23403 -38.50781,-99.24805 -8.68061,-10.07544 -17.84674,-17.79532 -26.91016,-23.0293 l 19.07031,-11.02734 c 1.12533,-0.51517 2.19547,-1.1327 3.20313,-1.85156 l 0.0371,-0.0215 v -0.006 c 6.4525,-4.62618 10.37695,-13.37463 10.37695,-25.44726 0,-26.09219 -18.31951,-57.81914 -40.91601,-70.86524 -6.70834,-3.87306 -13.03817,-5.66463 -18.625,-5.58593 z"
           transform="matrix(0.26458334,0,0,0.26458334,-8.6602541,4.9999975)" />
      </g>
      <g
         id="g5358"
         transform="matrix(-1,0,0,1,155.84584,0)"
         style="fill:#ff73e3;fill-opacity:1">
        <path
           id="path5354"
           style="fill:#ff73e3;fill-opacity:1;stroke-width:1.09987;stroke-linejoin:round;paint-order:fill markers stroke"
           d="m 64.951907,-127.5 c -1e-6,8.93164 -4.030561,19.11196 -10.188536,26.25942 -5.725417,6.645399 -12.24937,9.4283 -17.159636,7.762166 C 33.003222,-95.039444 30.31089,-100.35469 30.31089,-107.5"
           transform="scale(1,-1)" />
        <path
           id="path5356"
           style="fill:#ff73e3;fill-opacity:1;stroke-width:1.09987;stroke-linejoin:round;paint-order:fill markers stroke"
           d="m 56.291653,85.000002 c 0,6.903559 -4.84666,9.70178 -10.825318,6.25 -5.978658,-3.45178 -10.825318,-11.846441 -10.825318,-18.750001 0,-6.903559 4.84666,-9.701779 10.825318,-6.249999 5.978658,3.45178 10.825318,11.846441 10.825318,18.75 z" />
      </g>
    </g>
  </g>
</svg>
