<?xml version="1.0" encoding="UTF-8" standalone="no"?>
<svg
   xmlns:dc="http://purl.org/dc/elements/1.1/"
   xmlns:cc="http://creativecommons.org/ns#"
   xmlns:rdf="http://www.w3.org/1999/02/22-rdf-syntax-ns#"
   xmlns:svg="http://www.w3.org/2000/svg"
   xmlns="http://www.w3.org/2000/svg"
   id="svg8"
   version="1.1"
   viewBox="0 0 169.84256 146.77838"
   height="146.77838mm"
   width="169.84256mm">
  <defs
     id="defs2">
    <filter
       style="color-interpolation-filters:sRGB"
       id="filter1212"
       x="-0.027324136"
       width="1.0546483"
       y="-0.035079736"
       height="1.0701596">
      <feGaussianBlur
         stdDeviation="6.9296753"
         id="feGaussianBlur1214" />
    </filter>
  </defs>
  <metadata
     id="metadata5">
    <rdf:RDF>
      <cc:Work
         rdf:about="">
        <dc:format>image/svg+xml</dc:format>
        <dc:type
           rdf:resource="http://purl.org/dc/dcmitype/StillImage" />
        <dc:title></dc:title>
      </cc:Work>
    </rdf:RDF>
  </metadata>
  <g
     id="layer1"
     transform="translate(-334.24712,25.048364)">
    <g
       id="g1221"
       transform="matrix(1,0,0,1.0934101,0,1.8903662)"
       style="stroke-width:0.956331">
      <path
         id="path1112"
         style="fill:#999999;fill-opacity:1;stroke:none;stroke-width:3.97546;stroke-linejoin:round;paint-order:fill markers stroke;filter:url(#filter1212)"
         d="m 1349.6289,-76.486328 c -6.6396,0 -12.8469,1.770336 -18.1934,4.853516 l -0.012,-0.0078 -0.1992,0.126953 c -0.787,0.460777 -1.5553,0.947982 -2.3027,1.464844 l -30.834,19.621094 v 0.01563 c -10.869,6.273975 -18.1602,18.002371 -18.1602,31.503906 V 263.93555 c 0,20.14647 16.2188,36.36523 36.3653,36.36523 h 29.4707 l 14.1953,24.58789 28.9746,50.1836 c 8e-4,0.002 -9e-4,0.006 0,0.008 0.9279,1.60714 13.0078,22.53125 13.0078,22.53125 v -0.002 0.002 -0.004 l 33.33,-21.20898 12.5157,-21.67969 29.4707,-51.04297 1.9492,-3.375 h 339.6797 c 7.3965,0 14.2607,-2.19299 19.9902,-5.95703 l 0.01,0.004 33.334,-21.21289 v -0.008 c 9.872,-6.48905 16.369,-17.65766 16.3691,-30.40429 V -40.121094 c 0,-20.146484 -16.2188,-36.365234 -36.3652,-36.365234 z m 403.3379,89.484375 c 0.4219,0.421869 0.8232,0.863448 1.2031,1.324219 -0.3796,-0.460399 -0.7815,-0.902658 -1.2031,-1.324219 z m 2.2754,2.759765 c 0.6693,0.992312 1.246,2.053058 1.7168,3.169922 -0.4708,-1.116864 -1.0475,-2.17761 -1.7168,-3.169922 z m -2.2754,81.425782 c 0.4219,0.421869 0.8232,0.863448 1.2031,1.324218 -0.3796,-0.460398 -0.7815,-0.902657 -1.2031,-1.324218 z m 2.2754,2.759765 c 0.6693,0.992311 1.246,2.053061 1.7168,3.169921 -0.4708,-1.11686 -1.0475,-2.17761 -1.7168,-3.169921 z m -2.2754,81.425781 c 0.4219,0.42187 0.8232,0.86345 1.2031,1.32422 -0.3796,-0.4604 -0.7815,-0.90266 -1.2031,-1.32422 z m 2.2754,2.75977 c 0.6693,0.99231 1.246,2.05305 1.7168,3.16992 -0.4708,-1.11687 -1.0475,-2.17761 -1.7168,-3.16992 z"
         transform="scale(0.26458333)" />
      <g
         id="g1110"
         style="stroke-width:0.956331">
        <path
           id="path933"
           style="fill:#3771c8;fill-opacity:1;stroke:none;stroke-width:3.97546;stroke-linejoin:round;paint-order:fill markers stroke"
           d="m 1349.6289,-76.486328 c -6.6396,0 -12.8469,1.770336 -18.1934,4.853516 l -0.01,-0.0078 -0.1992,0.126953 c -0.787,0.460777 -1.5553,0.947982 -2.3027,1.464844 l -30.834,19.621094 0.207,7.496093 9.3438,24.244141 5.6211,-1.804688 V 242.72266 c 0,20.14647 16.2187,36.36523 36.3652,36.36523 h 29.4707 l 14.1953,24.58789 16.7832,29.06836 c -7.7243,14.45895 -21.8171,41.16426 -21.1406,42.33594 0.9279,1.60714 13.0078,22.53125 13.0078,22.53125 l 33.3359,-21.21289 12.5157,-21.67969 29.4707,-51.04297 14.1953,-24.58789 H 1815 l 23.8906,15.25977 33.334,-21.21289 v -0.008 c 9.872,-6.48905 16.3691,-17.65765 16.3692,-30.40429 V -40.121094 c 0,-20.146486 -16.2189,-36.365234 -36.3653,-36.365234 z m 99.832,62.818359 h 323.6368 c 10.3365,0 18.6582,8.3217173 18.6582,18.6582034 v 2.2636718 c 0,10.3364898 -8.3217,18.6582028 -18.6582,18.6582028 h -323.6368 c -10.3365,0 -18.6562,-8.321713 -18.6562,-18.6582028 V 4.9902344 c 0,-10.3364861 8.3197,-18.6582034 18.6562,-18.6582034 z m 0,84.185547 h 323.6368 c 10.3365,0 18.6582,8.321702 18.6582,18.658203 v 2.263672 c 0,10.336497 -8.3217,18.658207 -18.6582,18.658207 h -323.6368 c -10.3365,0 -18.6562,-8.32171 -18.6562,-18.658207 v -2.263672 c 0,-10.336501 8.3197,-18.658203 18.6562,-18.658203 z m 0,84.185542 h 323.6368 c 10.3365,0 18.6582,8.32171 18.6582,18.65821 v 2.26367 c 0,10.3365 -8.3217,18.6582 -18.6582,18.6582 h -323.6368 c -10.3365,0 -18.6562,-8.3217 -18.6562,-18.6582 v -2.26367 c 0,-10.3365 8.3197,-18.6582 18.6562,-18.65821 z"
           transform="scale(0.26458333)" />
        <path
           id="rect833"
           style="fill:#80b3ff;stroke:none;stroke-width:1.05184;stroke-linejoin:round;paint-order:fill markers stroke"
           d="m 348.26941,-14.624493 c -5.33043,0 -9.62163,4.291211 -9.62163,9.621636 v 74.835741 c 0,5.33042 4.2912,9.62163 9.62163,9.62163 h 7.79745 l 3.75587,6.50555 11.10888,19.241196 11.10887,-19.241196 3.75584,-6.50555 h 95.45259 c 5.3304,0 9.62163,-4.29121 9.62163,-9.62163 V -5.002857 c 0,-5.330425 -4.29123,-9.621636 -9.62163,-9.621636 z m 26.41391,16.620691 h 85.62887 c 2.73487,0 4.93665,2.201786 4.93665,4.936648 v 0.598932 c 0,2.734863 -2.20178,4.936649 -4.93665,4.936649 h -85.62887 c -2.73487,0 -4.93615,-2.201786 -4.93615,-4.936649 V 6.932846 c 0,-2.734862 2.20128,-4.936648 4.93615,-4.936648 z m 0,22.274093 h 85.62887 c 2.73487,0 4.93665,2.201783 4.93665,4.936649 v 0.598929 c 0,2.734866 -2.20178,4.936651 -4.93665,4.936651 h -85.62887 c -2.73487,0 -4.93615,-2.201785 -4.93615,-4.936651 V 29.20694 c 0,-2.734866 2.20128,-4.936649 4.93615,-4.936649 z m 0,22.27409 h 85.62887 c 2.73487,0 4.93665,2.201786 4.93665,4.936652 v 0.598929 c 0,2.734866 -2.20178,4.936649 -4.93665,4.936649 h -85.62887 c -2.73487,0 -4.93615,-2.201783 -4.93615,-4.936649 v -0.598929 c 0,-2.734866 2.20128,-4.936652 4.93615,-4.936652 z" />
        <path
           id="rect935"
           style="opacity:1;fill:#ffffff;fill-opacity:1;stroke:none;stroke-width:3.97546;stroke-linejoin:round;stroke-opacity:1;paint-order:fill markers stroke"
           d="m 1416.125,7.5449219 c -10.3365,0 -18.6562,8.3217171 -18.6562,18.6582031 v 2.263672 c 0,10.33649 8.3197,18.658203 18.6562,18.658203 h 323.6367 c 10.3365,0 18.6582,-8.321713 18.6582,-18.658203 v -2.263672 c 0,-10.336486 -8.3217,-18.6582031 -18.6582,-18.6582031 z m 0,84.1855471 c -10.3365,0 -18.6562,8.321701 -18.6562,18.658201 v 2.26367 c 0,10.33651 8.3197,18.65821 18.6562,18.65821 h 323.6367 c 10.3365,0 18.6582,-8.3217 18.6582,-18.65821 v -2.26367 c 0,-10.3365 -8.3217,-18.658201 -18.6582,-18.658201 z m 0,84.185551 c -10.3365,0 -18.6562,8.3217 -18.6562,18.6582 v 2.26367 c 0,10.3365 8.3197,18.6582 18.6562,18.6582 h 323.6367 c 10.3365,0 18.6582,-8.3217 18.6582,-18.6582 v -2.26367 c 0,-10.3365 -8.3217,-18.6582 -18.6582,-18.6582 z"
           transform="scale(0.26458333)" />
      </g>
    </g>
  </g>
</svg>
