<?xml version="1.0" encoding="UTF-8" standalone="no"?>
<!-- Created with Inkscape (http://www.inkscape.org/) -->

<svg
   width="173"
   height="173"
   viewBox="0 0 45.772916 45.772914"
   version="1.1"
   id="svg5"
   xml:space="preserve"
   xmlns:xlink="http://www.w3.org/1999/xlink"
   xmlns="http://www.w3.org/2000/svg"
   xmlns:svg="http://www.w3.org/2000/svg"><defs
     id="defs2"><rect
       x="1665.8032"
       y="175.7682"
       width="872.18317"
       height="298.27332"
       id="rect5677" /><rect
       x="1805.6189"
       y="150.46825"
       width="732.36755"
       height="332.89432"
       id="rect5671" /><rect
       x="1665.8032"
       y="175.7682"
       width="872.18317"
       height="298.27332"
       id="rect8036" /><rect
       x="1665.8032"
       y="175.7682"
       width="872.18317"
       height="298.27332"
       id="rect836" /><rect
       x="1665.8032"
       y="175.7682"
       width="872.18317"
       height="298.27332"
       id="rect52157" /><rect
       x="1665.8032"
       y="175.7682"
       width="872.18317"
       height="298.27332"
       id="rect52175" /><rect
       x="1665.8032"
       y="175.7682"
       width="872.18317"
       height="298.27332"
       id="rect52345" /><linearGradient
       xlink:href="#linearGradient42326"
       id="linearGradient51537"
       x1="130.81808"
       y1="513.71313"
       x2="145.82434"
       y2="513.71313"
       gradientUnits="userSpaceOnUse"
       gradientTransform="translate(8.470183,84.203584)" /><linearGradient
       id="linearGradient42326"><stop
         style="stop-color:#00ffde;stop-opacity:1;"
         offset="0"
         id="stop42322" /><stop
         style="stop-color:#87e0ff;stop-opacity:1;"
         offset="1"
         id="stop42324" /></linearGradient><filter
       style="color-interpolation-filters:sRGB"
       id="filter53227"
       x="-0.11402044"
       y="-0.042570516"
       width="1.3000537"
       height="1.1136394"><feGaussianBlur
         stdDeviation="0.66104491"
         id="feGaussianBlur53229" /></filter><linearGradient
       xlink:href="#linearGradient42326"
       id="linearGradient475"
       gradientUnits="userSpaceOnUse"
       gradientTransform="matrix(0.67253353,0,0,0.67253353,-129.32551,-303.28867)"
       x1="66.624123"
       y1="538.16174"
       x2="132.29192"
       y2="538.16174" /><linearGradient
       xlink:href="#linearGradient42326"
       id="linearGradient477"
       gradientUnits="userSpaceOnUse"
       gradientTransform="matrix(0.59353296,0,0,0.58849352,-120.3344,-260.78816)"
       x1="63.136398"
       y1="498.40659"
       x2="112.36207"
       y2="498.40659" /><linearGradient
       xlink:href="#linearGradient42326"
       id="linearGradient479"
       gradientUnits="userSpaceOnUse"
       gradientTransform="matrix(0.67253353,0,0,0.67253353,-129.32551,-303.28867)"
       x1="130.81808"
       y1="513.71313"
       x2="145.82434"
       y2="513.71313" /><linearGradient
       xlink:href="#linearGradient42326"
       id="linearGradient51529"
       x1="66.624123"
       y1="538.16174"
       x2="132.29192"
       y2="538.16174"
       gradientUnits="userSpaceOnUse"
       gradientTransform="translate(8.470183,84.203584)" /><filter
       style="color-interpolation-filters:sRGB"
       id="filter53235"
       x="-0.029572165"
       y="-0.064486422"
       width="1.0591443"
       height="1.1289728"><feGaussianBlur
         stdDeviation="0.66104491"
         id="feGaussianBlur53237" /></filter><linearGradient
       xlink:href="#linearGradient42326"
       id="linearGradient51545"
       x1="63.136398"
       y1="498.40659"
       x2="112.36207"
       y2="498.40659"
       gradientUnits="userSpaceOnUse"
       gradientTransform="translate(8.470183,84.203584)" /><filter
       style="color-interpolation-filters:sRGB"
       id="filter53231"
       x="-0.0413156"
       y="-0.055439502"
       width="1.0826312"
       height="1.1072428"><feGaussianBlur
         stdDeviation="0.66104491"
         id="feGaussianBlur53233" /></filter><linearGradient
       xlink:href="#linearGradient42326"
       id="linearGradient51537-2"
       x1="130.81808"
       y1="513.71313"
       x2="145.82434"
       y2="513.71313"
       gradientUnits="userSpaceOnUse"
       gradientTransform="translate(8.470183,84.203584)" /><filter
       style="color-interpolation-filters:sRGB"
       id="filter53227-3"
       x="-0.17732348"
       y="-0.042570516"
       width="1.4266595"
       height="1.1391288"><feGaussianBlur
         stdDeviation="0.66104491"
         id="feGaussianBlur53229-4" /></filter><linearGradient
       xlink:href="#linearGradient42326"
       id="linearGradient475-8"
       gradientUnits="userSpaceOnUse"
       gradientTransform="matrix(0.38878782,0,0,0.38878782,-91.028307,-161.07644)"
       x1="66.624123"
       y1="538.16174"
       x2="132.29192"
       y2="538.16174" /><linearGradient
       xlink:href="#linearGradient42326"
       id="linearGradient477-7"
       gradientUnits="userSpaceOnUse"
       gradientTransform="matrix(0.34311803,0,0,0.34020476,-85.830594,-136.50714)"
       x1="63.136398"
       y1="498.40659"
       x2="112.36207"
       y2="498.40659" /><linearGradient
       xlink:href="#linearGradient42326"
       id="linearGradient479-9"
       gradientUnits="userSpaceOnUse"
       gradientTransform="matrix(0.38878782,0,0,0.38878782,-91.028307,-161.07644)"
       x1="130.81808"
       y1="513.71313"
       x2="145.82434"
       y2="513.71313" /><linearGradient
       xlink:href="#linearGradient42326"
       id="linearGradient51529-0"
       x1="66.624123"
       y1="538.16174"
       x2="132.29192"
       y2="538.16174"
       gradientUnits="userSpaceOnUse"
       gradientTransform="translate(8.470183,84.203584)" /><filter
       style="color-interpolation-filters:sRGB"
       id="filter53235-7"
       x="-0.029572165"
       y="-0.069638565"
       width="1.0591443"
       height="1.1722487"><feGaussianBlur
         stdDeviation="0.66104491"
         id="feGaussianBlur53237-0" /></filter><linearGradient
       xlink:href="#linearGradient42326"
       id="linearGradient51545-9"
       x1="63.136398"
       y1="498.40659"
       x2="112.36207"
       y2="498.40659"
       gradientUnits="userSpaceOnUse"
       gradientTransform="translate(8.470183,84.203584)" /><filter
       style="color-interpolation-filters:sRGB"
       id="filter53231-1"
       x="-0.043878894"
       y="-0.090735301"
       width="1.1071894"
       height="1.162039"><feGaussianBlur
         stdDeviation="0.66104491"
         id="feGaussianBlur53233-0" /></filter></defs><path
     id="path51476-5"
     style="fill:#b3b3b3;fill-opacity:1;fill-rule:evenodd;stroke:none;stroke-width:0.963065;stroke-linecap:round;stroke-linejoin:round;stroke-dasharray:none;stroke-opacity:1"
     d="M 5.205114,22.153447 A 5.2050489,5.257052 0 0 0 3.9609375e-6,27.410496 5.2050489,2.4141802 0 0 0 5.205114,29.824613 a 5.2050489,2.4141802 0 0 0 5.20497,-2.414117 5.2050489,5.257052 0 0 0 -5.20497,-5.257049 z m 0,2.842795 a 5.2050489,2.4141802 0 0 1 0.236888,0.0022 5.2050489,2.4141802 0 0 1 0.23646,0.0075 5.2050489,2.4141802 0 0 0 -0.23646,-0.0075 5.2050489,2.4141802 0 0 0 -0.236888,-0.0022 z m 0,0 a 5.2050489,2.4141802 0 0 0 -0.708808,0.02258 5.2050489,2.4141802 0 0 1 0.708808,-0.02258 z m 0.708809,0.02258 a 5.2050489,2.4141802 0 0 1 0.233891,0.01742 5.2050489,2.4141802 0 0 0 -0.233891,-0.01742 z m -1.767811,0.02796 a 5.2050489,2.4141802 0 0 0 -0.684121,0.0889 5.2050489,2.4141802 0 0 1 0.684121,-0.0889 z m 2.348899,0.02488 a 5.2050489,2.4141802 0 0 1 0.228041,0.02968 5.2050489,2.4141802 0 0 0 -0.228041,-0.02968 z m 0.564393,0.08306 a 5.2050489,2.4141802 0 0 1 0.219335,0.04151 5.2050489,2.4141802 0 0 0 -0.219335,-0.04151 z m -4.558807,0.193077 a 5.2050489,2.4141802 0 0 0 -0.848229,0.298395 5.2050489,2.4141802 0 0 1 0.848229,-0.298395 z m -2.06977204,1.100953 a 5.2050489,2.4141802 0 0 1 1.44e-4,0 5.2050489,2.4141802 0 0 0 -0.130432,0.15341 5.2050489,2.4141802 0 0 0 -0.19165,0.317228 5.2050489,2.4141802 0 0 1 0.19165,-0.317228 5.2050489,2.4141802 0 0 1 0.130288,-0.15341 z" /><ellipse
     style="fill:#808080;fill-opacity:1;fill-rule:evenodd;stroke:none;stroke-width:0.384258;stroke-linecap:round;stroke-linejoin:round;stroke-dasharray:none;stroke-opacity:1"
     id="ellipse51478-2"
     cx="5.20504"
     cy="23.574854"
     rx="3.0646551"
     ry="1.4214332" /><circle
     style="fill:#b3b3b3;fill-opacity:1;fill-rule:evenodd;stroke:none;stroke-width:0.611471;stroke-linecap:round;stroke-linejoin:round;stroke-dasharray:none;stroke-opacity:1"
     id="circle51480-8"
     cx="5.20504"
     cy="19.999418"
     r="3.5754306" /><path
     id="path51482-6"
     style="fill:#b3b3b3;fill-opacity:1;fill-rule:evenodd;stroke:none;stroke-width:0.963065;stroke-linecap:round;stroke-linejoin:round;stroke-dasharray:none;stroke-opacity:1"
     d="m 29.825146,8.7811709 a 5.2050489,5.257052 0 0 0 -5.205106,5.2570561 5.2050489,2.4141802 0 0 0 5.205106,2.41411 5.2050489,2.4141802 0 0 0 5.20497,-2.41411 5.2050489,5.257052 0 0 0 -5.20497,-5.2570561 z m 0,2.8427951 a 5.2050489,2.4141802 0 0 1 0.236889,0.0022 5.2050489,2.4141802 0 0 1 0.23646,0.0075 5.2050489,2.4141802 0 0 0 -0.23646,-0.0075 5.2050489,2.4141802 0 0 0 -0.236889,-0.0022 z m 0,0 a 5.2050489,2.4141802 0 0 0 -0.708811,0.02258 5.2050489,2.4141802 0 0 1 0.708811,-0.02258 z m 0.708811,0.02258 a 5.2050489,2.4141802 0 0 1 0.233886,0.01742 5.2050489,2.4141802 0 0 0 -0.233886,-0.01742 z m -1.767816,0.02796 a 5.2050489,2.4141802 0 0 0 -0.68412,0.0889 5.2050489,2.4141802 0 0 1 0.68412,-0.0889 z m 2.348906,0.02481 a 5.2050489,2.4141802 0 0 1 0.228035,0.02968 5.2050489,2.4141802 0 0 0 -0.228035,-0.02968 z m 0.564392,0.08306 a 5.2050489,2.4141802 0 0 1 0.219331,0.04151 5.2050489,2.4141802 0 0 0 -0.219331,-0.04151 z m -4.558805,0.193078 a 5.2050489,2.4141802 0 0 0 -0.848233,0.298395 5.2050489,2.4141802 0 0 1 0.848233,-0.298395 z m -2.069774,1.100952 a 5.2050489,2.4141802 0 0 1 1.43e-4,0 5.2050489,2.4141802 0 0 0 -0.130432,0.15341 5.2050489,2.4141802 0 0 0 -0.19165,0.317229 5.2050489,2.4141802 0 0 1 0.19165,-0.317229 5.2050489,2.4141802 0 0 1 0.130289,-0.15341 z" /><ellipse
     style="fill:#808080;fill-opacity:1;fill-rule:evenodd;stroke:none;stroke-width:0.384258;stroke-linecap:round;stroke-linejoin:round;stroke-dasharray:none;stroke-opacity:1"
     id="ellipse51484-1"
     cx="29.825115"
     cy="10.202572"
     rx="3.0646551"
     ry="1.4214332" /><circle
     style="fill:#b3b3b3;fill-opacity:1;fill-rule:evenodd;stroke:none;stroke-width:0.611471;stroke-linecap:round;stroke-linejoin:round;stroke-dasharray:none;stroke-opacity:1"
     id="circle51486-0"
     cx="29.825115"
     cy="6.6271782"
     r="3.5754306" /><path
     id="path51488-7"
     style="fill:#b3b3b3;fill-opacity:1;fill-rule:evenodd;stroke:none;stroke-width:0.963065;stroke-linecap:round;stroke-linejoin:round;stroke-dasharray:none;stroke-opacity:1"
     d="m 40.567959,35.050023 a 5.2050489,5.257052 0 0 0 -5.205114,5.257056 5.2050489,2.4141802 0 0 0 5.205114,2.41411 5.2050489,2.4141802 0 0 0 5.204963,-2.41411 5.2050489,5.257052 0 0 0 -5.204963,-5.257056 z m 0,2.842794 a 5.2050489,2.4141802 0 0 1 0.236889,0.0022 5.2050489,2.4141802 0 0 1 0.236452,0.0075 5.2050489,2.4141802 0 0 0 -0.236452,-0.0075 5.2050489,2.4141802 0 0 0 -0.236889,-0.0022 z m 0,0 a 5.2050489,2.4141802 0 0 0 -0.708811,0.02258 5.2050489,2.4141802 0 0 1 0.708811,-0.02258 z m 0.708804,0.02258 a 5.2050489,2.4141802 0 0 1 0.233892,0.01742 5.2050489,2.4141802 0 0 0 -0.233892,-0.01742 z m -1.767809,0.02796 a 5.2050489,2.4141802 0 0 0 -0.68412,0.0889 5.2050489,2.4141802 0 0 1 0.68412,-0.0889 z m 2.348898,0.02488 a 5.2050489,2.4141802 0 0 1 0.228043,0.02968 5.2050489,2.4141802 0 0 0 -0.228043,-0.02968 z m 0.564392,0.08306 a 5.2050489,2.4141802 0 0 1 0.219339,0.04151 5.2050489,2.4141802 0 0 0 -0.219339,-0.04151 z m -4.558804,0.193077 a 5.2050489,2.4141802 0 0 0 -0.848227,0.298395 5.2050489,2.4141802 0 0 1 0.848227,-0.298395 z m -2.069775,1.10096 a 5.2050489,2.4141802 0 0 1 1.44e-4,0 5.2050489,2.4141802 0 0 0 -0.130425,0.153402 5.2050489,2.4141802 0 0 0 -0.191658,0.317229 5.2050489,2.4141802 0 0 1 0.191658,-0.317229 5.2050489,2.4141802 0 0 1 0.130281,-0.153402 z" /><ellipse
     style="fill:#808080;fill-opacity:1;fill-rule:evenodd;stroke:none;stroke-width:0.384258;stroke-linecap:round;stroke-linejoin:round;stroke-dasharray:none;stroke-opacity:1"
     id="ellipse51490-7"
     cx="40.567909"
     cy="36.471481"
     rx="3.0646551"
     ry="1.4214332" /><path
     style="fill:#cccccc;fill-opacity:1;stroke:#cccccc;stroke-width:1.75075;stroke-linecap:round;stroke-linejoin:miter;stroke-dasharray:1.75075, 5.25222;stroke-dashoffset:3.85165;stroke-opacity:1"
     d="M 31.464136,38.885606 10.60618,29.320573"
     id="path51494-8" /><path
     style="fill:#cccccc;fill-opacity:1;stroke:#cccccc;stroke-width:1.75075;stroke-linecap:round;stroke-linejoin:miter;stroke-dasharray:1.75075, 5.25222;stroke-dashoffset:3.85165;stroke-opacity:1"
     d="M 10.60618,24.996292 23.781815,14.577311"
     id="path51496-4" /><path
     style="fill:#cccccc;fill-opacity:1;stroke:#cccccc;stroke-width:1.75075;stroke-linecap:round;stroke-linejoin:miter;stroke-dasharray:1.75075, 5.25222;stroke-dashoffset:3.85165;stroke-opacity:1"
     d="m 30.891134,16.667625 5.834245,14.489253"
     id="path51498-5" /><circle
     style="fill:#b3b3b3;fill-opacity:1;fill-rule:evenodd;stroke:none;stroke-width:0.611471;stroke-linecap:round;stroke-linejoin:round;stroke-dasharray:none;stroke-opacity:1"
     id="circle51492-7"
     cx="40.567909"
     cy="32.896004"
     r="3.5754306" /></svg>
