<?xml version="1.0" encoding="UTF-8" standalone="no"?>
<!-- Created with Inkscape (http://www.inkscape.org/) -->

<svg
   width="268.23123"
   height="209.12906"
   viewBox="0 0 70.969512 55.332063"
   version="1.1"
   id="svg5"
   xml:space="preserve"
   xmlns:xlink="http://www.w3.org/1999/xlink"
   xmlns="http://www.w3.org/2000/svg"
   xmlns:svg="http://www.w3.org/2000/svg"><defs
     id="defs2"><linearGradient
       id="linearGradient42326"><stop
         style="stop-color:#00ffde;stop-opacity:1;"
         offset="0"
         id="stop42322" /><stop
         style="stop-color:#87e0ff;stop-opacity:1;"
         offset="1"
         id="stop42324" /></linearGradient><rect
       x="1665.8032"
       y="175.7682"
       width="872.18317"
       height="298.27332"
       id="rect5677" /><rect
       x="1805.6189"
       y="150.46825"
       width="732.36755"
       height="332.89432"
       id="rect5671" /><rect
       x="1665.8032"
       y="175.7682"
       width="872.18317"
       height="298.27332"
       id="rect8036" /><rect
       x="1665.8032"
       y="175.7682"
       width="872.18317"
       height="298.27332"
       id="rect836" /><linearGradient
       xlink:href="#linearGradient42326"
       id="linearGradient51529"
       x1="66.624123"
       y1="538.16174"
       x2="132.29192"
       y2="538.16174"
       gradientUnits="userSpaceOnUse"
       gradientTransform="translate(8.470183,84.203584)" /><linearGradient
       xlink:href="#linearGradient42326"
       id="linearGradient51537"
       x1="130.81808"
       y1="513.71313"
       x2="145.82434"
       y2="513.71313"
       gradientUnits="userSpaceOnUse"
       gradientTransform="translate(8.470183,84.203584)" /><linearGradient
       xlink:href="#linearGradient42326"
       id="linearGradient51545"
       x1="63.136398"
       y1="498.40659"
       x2="112.36207"
       y2="498.40659"
       gradientUnits="userSpaceOnUse"
       gradientTransform="translate(8.470183,84.203584)" /><rect
       x="1665.8032"
       y="175.7682"
       width="872.18317"
       height="298.27332"
       id="rect52157" /><rect
       x="1665.8032"
       y="175.7682"
       width="872.18317"
       height="298.27332"
       id="rect52175" /><rect
       x="1665.8032"
       y="175.7682"
       width="872.18317"
       height="298.27332"
       id="rect52345" /><filter
       style="color-interpolation-filters:sRGB"
       id="filter53227"
       x="-0.14585735"
       y="-0.042570515"
       width="1.2883687"
       height="1.085141"><feGaussianBlur
         stdDeviation="0.66104491"
         id="feGaussianBlur53229" /></filter><filter
       style="color-interpolation-filters:sRGB"
       id="filter53231"
       x="-0.032229278"
       y="-0.17334917"
       width="1.1096382"
       height="1.2661615"><feGaussianBlur
         stdDeviation="0.66104491"
         id="feGaussianBlur53233" /></filter><filter
       style="color-interpolation-filters:sRGB"
       id="filter53235"
       x="-0.024159605"
       y="-0.056442558"
       width="1.0483192"
       height="1.1312241"><feGaussianBlur
         stdDeviation="0.66104491"
         id="feGaussianBlur53237" /></filter><linearGradient
       xlink:href="#linearGradient42326"
       id="linearGradient475"
       gradientUnits="userSpaceOnUse"
       gradientTransform="matrix(0.54229228,0,0,0.54229228,58.980378,291.65261)"
       x1="66.624123"
       y1="538.16174"
       x2="132.29192"
       y2="538.16174" /><linearGradient
       xlink:href="#linearGradient42326"
       id="linearGradient477"
       gradientUnits="userSpaceOnUse"
       gradientTransform="matrix(0.54229228,0,0,0.54229228,58.980378,291.65261)"
       x1="63.136398"
       y1="498.40659"
       x2="112.36207"
       y2="498.40659" /><linearGradient
       xlink:href="#linearGradient42326"
       id="linearGradient479"
       gradientUnits="userSpaceOnUse"
       gradientTransform="matrix(0.54229228,0,0,0.54229228,58.980378,291.65261)"
       x1="130.81808"
       y1="513.71313"
       x2="145.82434"
       y2="513.71313" /></defs><g
     id="layer1"
     transform="translate(-79.71005,-541.13844)"><text
       xml:space="preserve"
       transform="scale(0.26458333)"
       id="text5669"
       style="font-style:normal;font-weight:normal;font-size:40px;line-height:1.25;font-family:sans-serif;white-space:pre;shape-inside:url(#rect5671);display:inline;fill:#000000;fill-opacity:1;stroke:none" /><path
       id="path51476"
       style="opacity:1;fill:#80ff80;fill-opacity:1;fill-rule:evenodd;stroke:none;stroke-width:0.963062;stroke-linecap:round;stroke-linejoin:round;stroke-dasharray:none;stroke-opacity:1"
       d="m 86.970286,564.69175 a 7.2601499,7.3326853 0 0 0 -7.260236,7.33268 7.2601499,3.3673671 0 0 0 7.260236,3.36728 7.2601499,3.3673671 0 0 0 7.260037,-3.36728 7.2601499,7.3326853 0 0 0 -7.260037,-7.33268 z m 0,3.96521 a 7.2601499,3.3673671 0 0 1 0.330418,0.003 7.2601499,3.3673671 0 0 1 0.329821,0.0104 7.2601499,3.3673671 0 0 0 -0.329821,-0.0104 7.2601499,3.3673671 0 0 0 -0.330418,-0.003 z m 0,0 a 7.2601499,3.3673671 0 0 0 -0.988666,0.0315 7.2601499,3.3673671 0 0 1 0.988666,-0.0315 z m 0.988666,0.0315 a 7.2601499,3.3673671 0 0 1 0.326238,0.0243 7.2601499,3.3673671 0 0 0 -0.326238,-0.0243 z m -2.465793,0.039 a 7.2601499,3.3673671 0 0 0 -0.954231,0.124 7.2601499,3.3673671 0 0 1 0.954231,-0.124 z m 3.276312,0.0347 a 7.2601499,3.3673671 0 0 1 0.318077,0.0414 7.2601499,3.3673671 0 0 0 -0.318077,-0.0414 z m 0.787231,0.11585 a 7.2601499,3.3673671 0 0 1 0.305935,0.0579 7.2601499,3.3673671 0 0 0 -0.305935,-0.0579 z m -6.358753,0.26931 a 7.2601499,3.3673671 0 0 0 -1.183134,0.41621 7.2601499,3.3673671 0 0 1 1.183134,-0.41621 z m -2.886977,1.53564 a 7.2601499,3.3673671 0 0 1 2e-4,0 7.2601499,3.3673671 0 0 0 -0.181929,0.21398 7.2601499,3.3673671 0 0 0 -0.26732,0.44248 7.2601499,3.3673671 0 0 1 0.26732,-0.44248 7.2601499,3.3673671 0 0 1 0.181729,-0.21398 z" /><ellipse
       style="opacity:1;fill:#00aa00;fill-opacity:1;fill-rule:evenodd;stroke:none;stroke-width:0.384258;stroke-linecap:round;stroke-linejoin:round;stroke-dasharray:none;stroke-opacity:1"
       id="ellipse51478"
       cx="86.970184"
       cy="566.67438"
       rx="4.2746677"
       ry="1.9826554" /><circle
       style="opacity:1;fill:#80ff80;fill-opacity:1;fill-rule:evenodd;stroke:none;stroke-width:0.611473;stroke-linecap:round;stroke-linejoin:round;stroke-dasharray:none;stroke-opacity:1"
       id="circle51480"
       cx="86.970184"
       cy="561.68726"
       r="4.987112" /><path
       id="path51482"
       style="opacity:1;fill:#80ff80;fill-opacity:1;fill-rule:evenodd;stroke:none;stroke-width:0.963062;stroke-linecap:round;stroke-linejoin:round;stroke-dasharray:none;stroke-opacity:1"
       d="m 128.43515,549.13 a 7.2601499,7.3326853 0 0 0 -7.26023,7.33269 7.2601499,3.3673671 0 0 0 7.26023,3.36727 7.2601499,3.3673671 0 0 0 7.26004,-3.36727 7.2601499,7.3326853 0 0 0 -7.26004,-7.33269 z m 0,3.96521 a 7.2601499,3.3673671 0 0 1 0.33042,0.003 7.2601499,3.3673671 0 0 1 0.32982,0.0104 7.2601499,3.3673671 0 0 0 -0.32982,-0.0104 7.2601499,3.3673671 0 0 0 -0.33042,-0.003 z m 0,0 a 7.2601499,3.3673671 0 0 0 -0.98867,0.0315 7.2601499,3.3673671 0 0 1 0.98867,-0.0315 z m 0.98867,0.0315 a 7.2601499,3.3673671 0 0 1 0.32623,0.0243 7.2601499,3.3673671 0 0 0 -0.32623,-0.0243 z m -2.4658,0.039 a 7.2601499,3.3673671 0 0 0 -0.95423,0.124 7.2601499,3.3673671 0 0 1 0.95423,-0.124 z m 3.27632,0.0346 a 7.2601499,3.3673671 0 0 1 0.31807,0.0414 7.2601499,3.3673671 0 0 0 -0.31807,-0.0414 z m 0.78723,0.11585 a 7.2601499,3.3673671 0 0 1 0.30593,0.0579 7.2601499,3.3673671 0 0 0 -0.30593,-0.0579 z m -6.35875,0.26931 a 7.2601499,3.3673671 0 0 0 -1.18314,0.41621 7.2601499,3.3673671 0 0 1 1.18314,-0.41621 z m -2.88698,1.53564 a 7.2601499,3.3673671 0 0 1 2e-4,0 7.2601499,3.3673671 0 0 0 -0.18193,0.21398 7.2601499,3.3673671 0 0 0 -0.26732,0.44248 7.2601499,3.3673671 0 0 1 0.26732,-0.44248 7.2601499,3.3673671 0 0 1 0.18173,-0.21398 z" /><ellipse
       style="opacity:1;fill:#00aa00;fill-opacity:1;fill-rule:evenodd;stroke:none;stroke-width:0.384258;stroke-linecap:round;stroke-linejoin:round;stroke-dasharray:none;stroke-opacity:1"
       id="ellipse51484"
       cx="128.4351"
       cy="551.11261"
       rx="4.2746677"
       ry="1.9826554" /><circle
       style="opacity:1;fill:#80ff80;fill-opacity:1;fill-rule:evenodd;stroke:none;stroke-width:0.611473;stroke-linecap:round;stroke-linejoin:round;stroke-dasharray:none;stroke-opacity:1"
       id="circle51486"
       cx="128.4351"
       cy="546.12555"
       r="4.987112" /><path
       id="path51488"
       style="opacity:1;fill:#80ff80;fill-opacity:1;fill-rule:evenodd;stroke:none;stroke-width:0.963062;stroke-linecap:round;stroke-linejoin:round;stroke-dasharray:none;stroke-opacity:1"
       d="m 143.41953,585.77054 a 7.2601499,7.3326853 0 0 0 -7.26024,7.33269 7.2601499,3.3673671 0 0 0 7.26024,3.36727 7.2601499,3.3673671 0 0 0 7.26003,-3.36727 7.2601499,7.3326853 0 0 0 -7.26003,-7.33269 z m 0,3.96521 a 7.2601499,3.3673671 0 0 1 0.33042,0.003 7.2601499,3.3673671 0 0 1 0.32981,0.0104 7.2601499,3.3673671 0 0 0 -0.32981,-0.0104 7.2601499,3.3673671 0 0 0 -0.33042,-0.003 z m 0,0 a 7.2601499,3.3673671 0 0 0 -0.98867,0.0315 7.2601499,3.3673671 0 0 1 0.98867,-0.0315 z m 0.98866,0.0315 a 7.2601499,3.3673671 0 0 1 0.32624,0.0243 7.2601499,3.3673671 0 0 0 -0.32624,-0.0243 z m -2.46579,0.039 a 7.2601499,3.3673671 0 0 0 -0.95423,0.124 7.2601499,3.3673671 0 0 1 0.95423,-0.124 z m 3.27631,0.0347 a 7.2601499,3.3673671 0 0 1 0.31808,0.0414 7.2601499,3.3673671 0 0 0 -0.31808,-0.0414 z m 0.78723,0.11585 a 7.2601499,3.3673671 0 0 1 0.30594,0.0579 7.2601499,3.3673671 0 0 0 -0.30594,-0.0579 z m -6.35875,0.26931 a 7.2601499,3.3673671 0 0 0 -1.18313,0.41621 7.2601499,3.3673671 0 0 1 1.18313,-0.41621 z m -2.88698,1.53565 a 7.2601499,3.3673671 0 0 1 2e-4,0 7.2601499,3.3673671 0 0 0 -0.18192,0.21397 7.2601499,3.3673671 0 0 0 -0.26733,0.44248 7.2601499,3.3673671 0 0 1 0.26733,-0.44248 7.2601499,3.3673671 0 0 1 0.18172,-0.21397 z" /><ellipse
       style="opacity:1;fill:#00aa00;fill-opacity:1;fill-rule:evenodd;stroke:none;stroke-width:0.384258;stroke-linecap:round;stroke-linejoin:round;stroke-dasharray:none;stroke-opacity:1"
       id="ellipse51490"
       cx="143.41946"
       cy="587.75323"
       rx="4.2746677"
       ry="1.9826554" /><circle
       style="opacity:1;fill:#80ff80;fill-opacity:1;fill-rule:evenodd;stroke:none;stroke-width:0.611473;stroke-linecap:round;stroke-linejoin:round;stroke-dasharray:none;stroke-opacity:1"
       id="circle51492"
       cx="143.41946"
       cy="582.76605"
       r="4.987112" /><path
       style="fill:none;stroke:url(#linearGradient475);stroke-width:2.41212;stroke-linecap:round;stroke-linejoin:miter;stroke-dasharray:2.41212, 7.23635;stroke-dashoffset:5.30667;stroke-opacity:1"
       d="M 130.72126,591.12052 95.110124,575.87757"
       id="path51494" /><path
       style="fill:none;stroke:url(#linearGradient477);stroke-width:2.41212;stroke-linecap:round;stroke-linejoin:miter;stroke-dasharray:2.41212, 7.23635;stroke-dashoffset:5.30667;stroke-opacity:1"
       d="M 93.218759,567.8949 119.91346,555.9744"
       id="path51496" /><path
       style="fill:none;stroke:url(#linearGradient479);stroke-width:2.41212;stroke-linecap:round;stroke-linejoin:miter;stroke-dasharray:2.41212, 7.23635;stroke-dashoffset:5.30667;stroke-opacity:1"
       d="m 129.92202,560.13025 8.13777,20.21002"
       id="path51498" /><path
       style="fill:none;stroke:url(#linearGradient51529);stroke-width:4.448;stroke-linecap:round;stroke-linejoin:miter;stroke-dasharray:4.448, 13.344;stroke-dashoffset:9.78562;stroke-opacity:1;filter:url(#filter53235)"
       d="M 140.76209,636.42961 75.094304,608.32125"
       id="path53221"
       transform="matrix(0.54229228,0,0,0.54229228,54.387063,245.98966)" /><path
       style="fill:none;stroke:url(#linearGradient51545);stroke-width:4.448;stroke-linecap:round;stroke-linejoin:miter;stroke-dasharray:4.448, 13.344;stroke-dashoffset:9.78562;stroke-opacity:1;filter:url(#filter53231)"
       d="M 71.606582,593.60101 120.83225,571.61932"
       id="path53223"
       transform="matrix(0.54229228,0,0,0.54229228,54.387063,245.98966)" /><path
       style="fill:none;stroke:url(#linearGradient51537);stroke-width:4.448;stroke-linecap:round;stroke-linejoin:miter;stroke-dasharray:4.448, 13.344;stroke-dashoffset:9.78562;stroke-opacity:1;filter:url(#filter53227)"
       d="m 139.28827,579.28281 15.00625,37.26776"
       id="path53225"
       transform="matrix(0.54229228,0,0,0.54229228,54.387063,245.98966)" /></g></svg>
