<?xml version="1.0" encoding="UTF-8" standalone="no"?>
<!-- Created with Inkscape (http://www.inkscape.org/) -->

<svg
   width="494.62485"
   height="385.63931"
   viewBox="0 0 130.86949 102.03373"
   version="1.1"
   id="svg5"
   xml:space="preserve"
   xmlns="http://www.w3.org/2000/svg"
   xmlns:svg="http://www.w3.org/2000/svg"><defs
     id="defs2"><rect
       x="1665.8032"
       y="175.7682"
       width="872.18317"
       height="298.27332"
       id="rect5677" /><rect
       x="1805.6189"
       y="150.46825"
       width="732.36755"
       height="332.89432"
       id="rect5671" /><rect
       x="1665.8032"
       y="175.7682"
       width="872.18317"
       height="298.27332"
       id="rect8036" /><rect
       x="1665.8032"
       y="175.7682"
       width="872.18317"
       height="298.27332"
       id="rect836" /><rect
       x="1665.8032"
       y="175.7682"
       width="872.18317"
       height="298.27332"
       id="rect52157" /><rect
       x="1665.8032"
       y="175.7682"
       width="872.18317"
       height="298.27332"
       id="rect52175" /><rect
       x="1665.8032"
       y="175.7682"
       width="872.18317"
       height="298.27332"
       id="rect52345" /></defs><g
     id="layer1"
     transform="translate(-60.084063,-428.58148)"><path
       id="ellipse51028"
       style="opacity:1;fill:#b3b3b3;fill-opacity:1;fill-rule:evenodd;stroke:none;stroke-width:1.77591;stroke-linecap:round;stroke-linejoin:round;stroke-dasharray:none;stroke-opacity:1"
       d="m 73.472112,472.01442 a 13.387891,13.521648 0 0 0 -13.388049,13.52165 13.387891,6.2095059 0 0 0 13.388049,6.20934 13.387891,6.2095059 0 0 0 13.387683,-6.20934 13.387891,13.521648 0 0 0 -13.387683,-13.52165 z m 0,7.31195 a 13.387891,6.2095059 0 0 1 0.609299,0.006 13.387891,6.2095059 0 0 1 0.608198,0.0191 13.387891,6.2095059 0 0 0 -0.608198,-0.0191 13.387891,6.2095059 0 0 0 -0.609299,-0.006 z m 0,0 a 13.387891,6.2095059 0 0 0 -1.823123,0.058 13.387891,6.2095059 0 0 1 1.823123,-0.058 z m 1.823125,0.058 a 13.387891,6.2095059 0 0 1 0.60159,0.0448 13.387891,6.2095059 0 0 0 -0.60159,-0.0448 z m -4.546983,0.0719 a 13.387891,6.2095059 0 0 0 -1.759624,0.22867 13.387891,6.2095059 0 0 1 1.759624,-0.22867 z m 6.041599,0.0639 a 13.387891,6.2095059 0 0 1 0.586542,0.0763 13.387891,6.2095059 0 0 0 -0.586542,-0.0763 z m 1.451672,0.21363 a 13.387891,6.2095059 0 0 1 0.564152,0.10681 13.387891,6.2095059 0 0 0 -0.564152,-0.10681 z m -11.725693,0.49661 a 13.387891,6.2095059 0 0 0 -2.181728,0.7675 13.387891,6.2095059 0 0 1 2.181728,-0.7675 z m -5.323654,2.83177 a 13.387891,6.2095059 0 0 1 3.68e-4,0 13.387891,6.2095059 0 0 0 -0.335482,0.39458 13.387891,6.2095059 0 0 0 -0.492944,0.81594 13.387891,6.2095059 0 0 1 0.492944,-0.81594 13.387891,6.2095059 0 0 1 0.335114,-0.39458 z" /><text
       xml:space="preserve"
       transform="scale(0.26458333)"
       id="text5669"
       style="font-style:normal;font-weight:normal;font-size:40px;line-height:1.25;font-family:sans-serif;white-space:pre;shape-inside:url(#rect5671);display:inline;fill:#000000;fill-opacity:1;stroke:none" /><ellipse
       style="opacity:1;fill:#808080;fill-opacity:1;fill-rule:evenodd;stroke:none;stroke-width:0.708581;stroke-linecap:round;stroke-linejoin:round;stroke-dasharray:none;stroke-opacity:1"
       id="ellipse51026"
       cx="73.471931"
       cy="475.67044"
       rx="7.8825898"
       ry="3.6560643" /><circle
       style="opacity:1;fill:#e6e6e6;fill-opacity:1;fill-rule:evenodd;stroke:none;stroke-width:1.12757;stroke-linecap:round;stroke-linejoin:round;stroke-dasharray:none;stroke-opacity:1"
       id="path51038"
       cx="73.471931"
       cy="466.47406"
       r="9.1963549" /><path
       id="path51040"
       style="opacity:1;fill:#b3b3b3;fill-opacity:1;fill-rule:evenodd;stroke:none;stroke-width:1.77591;stroke-linecap:round;stroke-linejoin:round;stroke-dasharray:none;stroke-opacity:1"
       d="m 149.93432,443.31818 a 13.387891,13.521648 0 0 0 -13.38805,13.52165 13.387891,6.2095059 0 0 0 13.38805,6.20934 13.387891,6.2095059 0 0 0 13.38768,-6.20934 13.387891,13.521648 0 0 0 -13.38768,-13.52165 z m 0,7.31195 a 13.387891,6.2095059 0 0 1 0.6093,0.006 13.387891,6.2095059 0 0 1 0.60819,0.0191 13.387891,6.2095059 0 0 0 -0.60819,-0.0191 13.387891,6.2095059 0 0 0 -0.6093,-0.006 z m 0,0 a 13.387891,6.2095059 0 0 0 -1.82313,0.058 13.387891,6.2095059 0 0 1 1.82313,-0.058 z m 1.82312,0.058 a 13.387891,6.2095059 0 0 1 0.60159,0.0448 13.387891,6.2095059 0 0 0 -0.60159,-0.0448 z m -4.54698,0.0719 a 13.387891,6.2095059 0 0 0 -1.75963,0.22867 13.387891,6.2095059 0 0 1 1.75963,-0.22867 z m 6.0416,0.0639 a 13.387891,6.2095059 0 0 1 0.58654,0.0763 13.387891,6.2095059 0 0 0 -0.58654,-0.0763 z m 1.45167,0.21363 a 13.387891,6.2095059 0 0 1 0.56415,0.10681 13.387891,6.2095059 0 0 0 -0.56415,-0.10681 z m -11.72569,0.49661 a 13.387891,6.2095059 0 0 0 -2.18173,0.7675 13.387891,6.2095059 0 0 1 2.18173,-0.7675 z m -5.32366,2.83177 a 13.387891,6.2095059 0 0 1 3.7e-4,0 13.387891,6.2095059 0 0 0 -0.33548,0.39458 13.387891,6.2095059 0 0 0 -0.49295,0.81594 13.387891,6.2095059 0 0 1 0.49295,-0.81594 13.387891,6.2095059 0 0 1 0.33511,-0.39458 z" /><ellipse
       style="opacity:1;fill:#808080;fill-opacity:1;fill-rule:evenodd;stroke:none;stroke-width:0.708581;stroke-linecap:round;stroke-linejoin:round;stroke-dasharray:none;stroke-opacity:1"
       id="ellipse51042"
       cx="149.93423"
       cy="446.97421"
       rx="7.8825898"
       ry="3.6560643" /><circle
       style="opacity:1;fill:#e6e6e6;fill-opacity:1;fill-rule:evenodd;stroke:none;stroke-width:1.12757;stroke-linecap:round;stroke-linejoin:round;stroke-dasharray:none;stroke-opacity:1"
       id="circle51044"
       cx="149.93423"
       cy="437.77783"
       r="9.1963549" /><path
       id="path51252"
       style="opacity:1;fill:#b3b3b3;fill-opacity:1;fill-rule:evenodd;stroke:none;stroke-width:1.77591;stroke-linecap:round;stroke-linejoin:round;stroke-dasharray:none;stroke-opacity:1"
       d="m 177.56587,510.88422 a 13.387891,13.521648 0 0 0 -13.38805,13.52165 13.387891,6.2095059 0 0 0 13.38805,6.20934 13.387891,6.2095059 0 0 0 13.38768,-6.20934 13.387891,13.521648 0 0 0 -13.38768,-13.52165 z m 0,7.31195 a 13.387891,6.2095059 0 0 1 0.6093,0.006 13.387891,6.2095059 0 0 1 0.60819,0.0191 13.387891,6.2095059 0 0 0 -0.60819,-0.0191 13.387891,6.2095059 0 0 0 -0.6093,-0.006 z m 0,0 a 13.387891,6.2095059 0 0 0 -1.82313,0.058 13.387891,6.2095059 0 0 1 1.82313,-0.058 z m 1.82312,0.058 a 13.387891,6.2095059 0 0 1 0.60159,0.0448 13.387891,6.2095059 0 0 0 -0.60159,-0.0448 z m -4.54698,0.0719 a 13.387891,6.2095059 0 0 0 -1.75963,0.22867 13.387891,6.2095059 0 0 1 1.75963,-0.22867 z m 6.0416,0.0639 a 13.387891,6.2095059 0 0 1 0.58654,0.0763 13.387891,6.2095059 0 0 0 -0.58654,-0.0763 z m 1.45167,0.21363 a 13.387891,6.2095059 0 0 1 0.56415,0.10681 13.387891,6.2095059 0 0 0 -0.56415,-0.10681 z m -11.72569,0.49661 a 13.387891,6.2095059 0 0 0 -2.18173,0.7675 13.387891,6.2095059 0 0 1 2.18173,-0.7675 z m -5.32366,2.83177 a 13.387891,6.2095059 0 0 1 3.7e-4,0 13.387891,6.2095059 0 0 0 -0.33548,0.39458 13.387891,6.2095059 0 0 0 -0.49295,0.81594 13.387891,6.2095059 0 0 1 0.49295,-0.81594 13.387891,6.2095059 0 0 1 0.33511,-0.39458 z" /><ellipse
       style="opacity:1;fill:#808080;fill-opacity:1;fill-rule:evenodd;stroke:none;stroke-width:0.708581;stroke-linecap:round;stroke-linejoin:round;stroke-dasharray:none;stroke-opacity:1"
       id="ellipse51254"
       cx="177.56577"
       cy="514.54028"
       rx="7.8825898"
       ry="3.6560643" /><circle
       style="opacity:1;fill:#e6e6e6;fill-opacity:1;fill-rule:evenodd;stroke:none;stroke-width:1.12757;stroke-linecap:round;stroke-linejoin:round;stroke-dasharray:none;stroke-opacity:1"
       id="circle51256"
       cx="177.56577"
       cy="505.34387"
       r="9.1963549" /><path
       style="fill:none;stroke:#cccccc;stroke-width:4.448;stroke-linecap:round;stroke-linejoin:miter;stroke-dasharray:4.448, 13.344;stroke-dashoffset:9.78562;stroke-opacity:1"
       d="M 154.14995,520.74971 88.482169,492.64135"
       id="path51258" /><path
       style="fill:none;stroke:#cccccc;stroke-width:4.448;stroke-linecap:round;stroke-linejoin:miter;stroke-dasharray:4.448, 13.344;stroke-dashoffset:9.78562;stroke-opacity:1"
       d="M 84.994447,477.92111 134.22011,455.93942"
       id="path51260" /><path
       style="fill:none;stroke:#cccccc;stroke-width:4.448;stroke-linecap:round;stroke-linejoin:miter;stroke-dasharray:4.448, 13.344;stroke-dashoffset:9.78562;stroke-opacity:1"
       d="m 152.67613,463.60291 15.00625,37.26776"
       id="path51262" /></g></svg>
