<?xml version="1.0" encoding="UTF-8" standalone="no"?>
<!-- Created with Inkscape (http://www.inkscape.org/) -->

<svg
   width="173"
   height="173"
   viewBox="0 0 45.772916 45.772916"
   version="1.1"
   id="svg5"
   xml:space="preserve"
   xmlns:xlink="http://www.w3.org/1999/xlink"
   xmlns="http://www.w3.org/2000/svg"
   xmlns:svg="http://www.w3.org/2000/svg"><defs
     id="defs2"><rect
       x="1665.8032"
       y="175.7682"
       width="872.18317"
       height="298.27332"
       id="rect5677" /><rect
       x="1805.6189"
       y="150.46825"
       width="732.36755"
       height="332.89432"
       id="rect5671" /><rect
       x="1665.8032"
       y="175.7682"
       width="872.18317"
       height="298.27332"
       id="rect8036" /><rect
       x="1665.8032"
       y="175.7682"
       width="872.18317"
       height="298.27332"
       id="rect836" /><rect
       x="1665.8032"
       y="175.7682"
       width="872.18317"
       height="298.27332"
       id="rect52157" /><rect
       x="1665.8032"
       y="175.7682"
       width="872.18317"
       height="298.27332"
       id="rect52175" /><rect
       x="1665.8032"
       y="175.7682"
       width="872.18317"
       height="298.27332"
       id="rect52345" /><rect
       x="1805.6189"
       y="150.46825"
       width="732.36755"
       height="332.89432"
       id="rect5671-0" /><linearGradient
       xlink:href="#linearGradient42326"
       id="linearGradient475"
       gradientUnits="userSpaceOnUse"
       gradientTransform="matrix(3.8067123,0,0,3.8067123,-999.89398,-709.07769)"
       x1="361.13748"
       y1="262.07593"
       x2="374.92014"
       y2="262.07593" /><linearGradient
       id="linearGradient42326"><stop
         style="stop-color:#00ffde;stop-opacity:1;"
         offset="0"
         id="stop42322" /><stop
         style="stop-color:#87e0ff;stop-opacity:1;"
         offset="1"
         id="stop42324" /></linearGradient><filter
       style="color-interpolation-filters:sRGB"
       id="filter52623"
       x="-0.044479184"
       y="-0.078583671"
       width="1.0889584"
       height="1.1571673"><feGaussianBlur
         stdDeviation="0.94364506"
         id="feGaussianBlur52625" /></filter></defs><rect
     style="fill:#b3b3b3;fill-opacity:1;fill-rule:evenodd;stroke:none;stroke-width:0.099896;stroke-linecap:round;stroke-linejoin:round;stroke-dasharray:none;stroke-opacity:1"
     id="rect14993"
     width="13.718162"
     height="1.408379"
     x="-30.690941"
     y="22.182217"
     ry="0.70418948"
     transform="rotate(-90)" /><text
     xml:space="preserve"
     transform="matrix(0.22782822,0,0,0.22782822,-322.48173,-232.48837)"
     id="text5669"
     style="font-style:normal;font-weight:normal;font-size:40px;line-height:1.25;font-family:sans-serif;white-space:pre;shape-inside:url(#rect5671-0);display:inline;fill:#000000;fill-opacity:1;stroke:none;stroke-width:1.16133" /><circle
     style="fill:#b3b3b3;fill-opacity:1;fill-rule:evenodd;stroke:none;stroke-width:0.101163;stroke-linecap:round;stroke-linejoin:round;stroke-dasharray:none;stroke-opacity:0.803922"
     id="path13787"
     cx="22.886444"
     cy="17.023769"
     r="2.3799443" /><path
     id="path41166"
     style="fill:#808080;fill-opacity:1;fill-rule:evenodd;stroke:none;stroke-width:0.407436;stroke-linecap:round;stroke-linejoin:round;stroke-dasharray:none;stroke-opacity:1"
     d="M 13.80477,24.988011 C 13.407458,27.182524 11.002659,28.690453 8.4335749,28.355948 7.662587,28.25564 6.9646533,28.000562 6.37575,27.633628 l -0.00982,0.0098 A 14.624295,17.125978 89.608517 0 1 6.297129,27.585388 C 5.9140803,27.335961 5.5794118,27.03856 5.3039341,26.705097 A 14.624295,17.125978 89.608517 0 1 1.1547107,14.810664 14.624295,17.125978 89.608517 0 1 9.3432833,4.4105885 C 10.324591,3.7726809 11.595265,3.4617352 12.908951,3.6327808 c 2.56905,0.3345393 4.329672,2.3848298 3.932385,4.5793516 -0.218956,1.2097356 -1.017585,2.2221196 -2.147834,2.8209256 -0.127845,0.06785 -0.260271,0.130127 -0.396563,0.186838 a 6.6284301,7.7623119 89.60852 0 0 -3.837072,4.747994 6.6284301,7.7623119 89.60852 0 0 1.907471,5.443182 c 0.152429,0.117348 0.294689,0.242886 0.425832,0.375449 0.843895,0.855426 1.226983,2.009217 1.010877,3.203092 z m 4.735053,-4.325944 c -0.159964,0.891066 -1.134615,1.50253 -2.176784,1.365704 -0.312711,-0.04099 -0.59599,-0.144877 -0.835044,-0.294025 l -0.0034,0.0034 a 6.9461791,5.9390307 1.1357735e-4 0 1 -0.02954,-0.0229 c -0.155374,-0.101616 -0.291408,-0.222237 -0.40328,-0.357883 a 6.9461791,5.9390307 1.1357735e-4 0 1 -1.689032,-4.831942 6.9461791,5.9390307 1.1357735e-4 0 1 3.315885,-4.220418 c 0.397708,-0.258626 0.912894,-0.384534 1.44581,-0.314683 1.042177,0.136689 1.75735,0.970131 1.597318,1.861188 -0.08817,0.491197 -0.411572,0.902011 -0.869686,1.144776 -0.05209,0.02626 -0.105551,0.05278 -0.160945,0.07534 a 3.1483407,2.6918528 1.2125107e-4 0 0 -1.553858,1.926716 3.1483407,2.6918528 1.2125107e-4 0 0 0.776438,2.211235 c 0.062,0.04788 0.119639,0.09866 0.172742,0.152748 0.342737,0.347723 0.498731,0.816427 0.411675,1.301165 z m 13.428323,4.325944 c 0.397278,2.194513 2.802111,3.702442 5.371195,3.367937 0.770988,-0.100308 1.468922,-0.355386 2.057825,-0.72232 l 0.0098,0.0098 a 17.125978,14.624295 0.39148334 0 0 0.0688,-0.05804 c 0.383053,-0.249447 0.71773,-0.546848 0.993207,-0.880311 A 17.125978,14.624295 0.39148334 0 0 44.618214,14.810664 17.125978,14.624295 0.39148334 0 0 36.429633,4.4105885 C 35.448334,3.7726809 34.177659,3.4617352 32.863974,3.6327808 c -2.56905,0.3345393 -4.329672,2.3848298 -3.932394,4.5793516 0.218964,1.2097356 1.017593,2.2221196 2.147842,2.8209256 0.127837,0.06785 0.260263,0.130127 0.396563,0.186838 a 7.7623119,6.6284301 0.39148009 0 1 3.837073,4.747994 7.7623119,6.6284301 0.39148009 0 1 -1.90748,5.443182 c -0.152421,0.117348 -0.295007,0.242886 -0.425832,0.375449 -0.843887,0.855426 -1.226974,2.009217 -1.010868,3.203092 z m -4.735087,-4.325944 c 0.159963,0.891066 1.134649,1.50253 2.176818,1.365704 0.312711,-0.04099 0.59599,-0.144877 0.835044,-0.294025 l 0.0034,0.0034 a 5.9390307,6.9461791 89.999886 0 0 0.02953,-0.0229 c 0.155374,-0.101616 0.291408,-0.222237 0.40328,-0.357883 a 5.9390307,6.9461791 89.999886 0 0 1.689032,-4.831942 5.9390307,6.9461791 89.999886 0 0 -3.315885,-4.220418 c -0.397708,-0.258626 -0.912894,-0.384534 -1.445845,-0.314683 -1.042143,0.136689 -1.757315,0.970131 -1.597291,1.861188 0.08817,0.491197 0.411572,0.902011 0.869694,1.144776 0.0521,0.02626 0.105551,0.05278 0.160945,0.07534 a 2.6918528,3.1483407 89.999879 0 1 1.55385,1.926716 2.6918528,3.1483407 89.999879 0 1 -0.77643,2.211235 c -0.062,0.04788 -0.119648,0.09866 -0.173078,0.152748 -0.342737,0.347723 -0.498731,0.816427 -0.411666,1.301165 z" /><path
     style="fill:#b3b3b3;fill-opacity:1;stroke:#b3b3b3;stroke-width:1.05833;stroke-linecap:butt;stroke-linejoin:round;stroke-dasharray:none;stroke-opacity:1"
     d="m 22.991303,27.218121 -5.677482,3.277868 5.677482,3.277859 5.677509,-3.277859 z"
     id="path41178" /><path
     id="rect41188"
     style="fill:#7a7a7a;fill-opacity:1;fill-rule:evenodd;stroke:#7a7a7a;stroke-width:0.099896;stroke-linecap:round;stroke-linejoin:round;stroke-dasharray:none;stroke-opacity:1"
     d="m 22.991329,26.682192 -0.809702,0.467525 -1.98e-4,2.836459 c -3.4e-5,0.390105 0.314683,0.70465 0.704685,0.70465 0.390105,0 0.70465,-0.314683 0.70465,-0.70465 l 1.98e-4,-2.958432 z" /><path
     style="fill:none;fill-opacity:1;stroke:#b3b3b3;stroke-width:1.05833;stroke-linecap:butt;stroke-linejoin:round;stroke-dasharray:none;stroke-opacity:1"
     d="m 22.991303,33.773848 v 9.833724 l -8.51624,-4.916879 2.838758,-8.194704 z"
     id="path41196" /><path
     style="fill:none;fill-opacity:1;stroke:#b3b3b3;stroke-width:1.05833;stroke-linecap:butt;stroke-linejoin:round;stroke-dasharray:none;stroke-opacity:1"
     d="m 28.668803,30.495989 0.943816,2.72457 1.894882,5.470134 -8.516198,4.916879 v -9.833724 z"
     id="path41198" /><path
     style="fill:none;stroke:#b3b3b3;stroke-width:1.05833;stroke-linecap:butt;stroke-linejoin:miter;stroke-dasharray:none;stroke-opacity:1"
     d="m 17.313821,30.495989 5.677482,13.111583"
     id="path42222" /><path
     style="fill:none;stroke:#b3b3b3;stroke-width:1.05833;stroke-linecap:butt;stroke-linejoin:miter;stroke-dasharray:none;stroke-opacity:1"
     d="m 22.991303,33.773848 -8.51624,4.916845"
     id="path42224" /><path
     style="fill:none;stroke:#b3b3b3;stroke-width:1.05833;stroke-linecap:butt;stroke-linejoin:miter;stroke-dasharray:none;stroke-opacity:1"
     d="M 28.668812,30.495989 22.991303,43.607572"
     id="path42226" /><path
     style="fill:none;stroke:#b3b3b3;stroke-width:1.05833;stroke-linecap:butt;stroke-linejoin:miter;stroke-dasharray:none;stroke-opacity:1"
     d="M 31.507501,38.690693 22.991303,33.773848"
     id="path42228" /><path
     style="fill:none;fill-opacity:1;stroke:#b3b3b3;stroke-width:1.05833;stroke-linecap:butt;stroke-linejoin:round;stroke-dasharray:none;stroke-opacity:1"
     d="m 28.668812,30.495989 0.943807,2.724587 1.894882,5.470117 -8.516198,4.916879 v -9.833724 z"
     id="path42301" /><path
     style="fill:none;stroke:#b3b3b3;stroke-width:1.05833;stroke-linecap:butt;stroke-linejoin:miter;stroke-dasharray:none;stroke-opacity:1"
     d="M 28.668812,30.495989 22.991303,43.607572"
     id="path42307" /><path
     style="fill:none;stroke:#b3b3b3;stroke-width:1.05833;stroke-linecap:butt;stroke-linejoin:miter;stroke-dasharray:none;stroke-opacity:1"
     d="M 31.507501,38.690693 22.991303,33.773848"
     id="path42309" /><path
     style="fill:none;stroke:#666666;stroke-width:1.05833;stroke-linecap:butt;stroke-linejoin:miter;stroke-dasharray:none;stroke-opacity:1"
     d="m 17.313821,30.495989 5.677482,13.111583"
     id="path42303" /><path
     style="fill:none;stroke:#666666;stroke-width:1.05833;stroke-linecap:butt;stroke-linejoin:miter;stroke-dasharray:none;stroke-opacity:1"
     d="m 22.991303,33.773848 -8.51624,4.916845"
     id="path42305" /><path
     style="fill:none;fill-opacity:1;stroke:#666666;stroke-width:1.05833;stroke-linecap:butt;stroke-linejoin:round;stroke-dasharray:none;stroke-opacity:1"
     d="m 22.991303,33.773848 v 9.833724 l -8.51624,-4.916879 2.838758,-8.194704 z"
     id="path42299" /></svg>
