<?xml version="1.0" encoding="UTF-8" standalone="no"?>
<!-- Created with Inkscape (http://www.inkscape.org/) -->

<svg
   width="173.00002"
   height="173.00002"
   viewBox="0 0 45.77292 45.77292"
   version="1.1"
   id="svg5"
   xml:space="preserve"
   xmlns:xlink="http://www.w3.org/1999/xlink"
   xmlns="http://www.w3.org/2000/svg"
   xmlns:svg="http://www.w3.org/2000/svg"><defs
     id="defs2"><linearGradient
       id="linearGradient42326"><stop
         style="stop-color:#00ffde;stop-opacity:1;"
         offset="0"
         id="stop42322" /><stop
         style="stop-color:#87e0ff;stop-opacity:1;"
         offset="1"
         id="stop42324" /></linearGradient><rect
       x="1665.8032"
       y="175.7682"
       width="872.18317"
       height="298.27332"
       id="rect5677" /><rect
       x="1805.6189"
       y="150.46825"
       width="732.36755"
       height="332.89432"
       id="rect5671" /><rect
       x="1665.8032"
       y="175.7682"
       width="872.18317"
       height="298.27332"
       id="rect8036" /><rect
       x="1665.8032"
       y="175.7682"
       width="872.18317"
       height="298.27332"
       id="rect836" /><linearGradient
       xlink:href="#linearGradient42326"
       id="linearGradient42328"
       x1="361.13748"
       y1="262.07593"
       x2="374.92014"
       y2="262.07593"
       gradientUnits="userSpaceOnUse"
       gradientTransform="matrix(3.8067123,0,0,3.8067123,-999.89398,-709.07769)" /><rect
       x="1665.8032"
       y="175.7682"
       width="872.18317"
       height="298.27332"
       id="rect52157" /><rect
       x="1665.8032"
       y="175.7682"
       width="872.18317"
       height="298.27332"
       id="rect52175" /><rect
       x="1665.8032"
       y="175.7682"
       width="872.18317"
       height="298.27332"
       id="rect52345" /><filter
       style="color-interpolation-filters:sRGB"
       id="filter52623"
       x="-0.044479184"
       y="-0.078583671"
       width="1.0889584"
       height="1.1571673"><feGaussianBlur
         stdDeviation="0.94364506"
         id="feGaussianBlur52625" /></filter><linearGradient
       xlink:href="#linearGradient42326"
       id="linearGradient475"
       gradientUnits="userSpaceOnUse"
       gradientTransform="matrix(3.8067123,0,0,3.8067123,-999.89398,-709.07769)"
       x1="361.13748"
       y1="262.07593"
       x2="374.92014"
       y2="262.07593" /></defs><g
     id="layer1"
     transform="matrix(0.86108306,0,0,0.86108306,-322.48174,-232.48836)"
     style="stroke-width:1.16133"><rect
       style="opacity:1;fill:#b3b3b3;fill-opacity:1;fill-rule:evenodd;stroke:none;stroke-width:0.116012;stroke-linecap:round;stroke-linejoin:round;stroke-dasharray:none;stroke-opacity:1"
       id="rect14993"
       width="15.931287"
       height="1.6355902"
       x="-305.63754"
       y="400.26794"
       ry="0.8177951"
       transform="rotate(-90)" /><text
       xml:space="preserve"
       transform="scale(0.26458333)"
       id="text5669"
       style="font-style:normal;font-weight:normal;font-size:40px;line-height:1.25;font-family:sans-serif;white-space:pre;shape-inside:url(#rect5671);display:inline;fill:#000000;fill-opacity:1;stroke:none;stroke-width:1.16133" /><circle
       style="opacity:1;fill:#b3b3b3;fill-opacity:1;fill-rule:evenodd;stroke:none;stroke-width:0.117483;stroke-linecap:round;stroke-linejoin:round;stroke-dasharray:none;stroke-opacity:0.803922"
       id="path13787"
       cx="401.08578"
       cy="289.76547"
       r="2.7638962" /><path
       id="path41166"
       style="fill:url(#linearGradient475);fill-opacity:1;fill-rule:evenodd;stroke:none;stroke-width:0.473167;stroke-linecap:round;stroke-linejoin:round;stroke-dasharray:none;stroke-opacity:1"
       d="m 390.53898,299.01457 c -0.46141,2.54855 -3.25417,4.29975 -6.23772,3.91128 -0.89537,-0.11649 -1.7059,-0.41272 -2.38981,-0.83885 l -0.0114,0.0114 a 16.983606,19.88888 89.608517 0 1 -0.0799,-0.0674 c -0.44485,-0.28969 -0.83351,-0.63507 -1.15343,-1.02233 a 16.983606,19.88888 89.608517 0 1 -4.81861,-13.81334 16.983606,19.88888 89.608517 0 1 9.50962,-12.0779 c 1.13962,-0.74082 2.61529,-1.10193 4.14091,-0.90329 2.98351,0.38851 5.02817,2.76957 4.56679,5.31813 -0.25428,1.4049 -1.18175,2.58061 -2.49434,3.27602 -0.14847,0.0788 -0.30226,0.15112 -0.46054,0.21698 a 7.6977825,9.0145913 89.60852 0 0 -4.4561,5.51398 7.6977825,9.0145913 89.60852 0 0 2.2152,6.32132 c 0.17702,0.13628 0.34223,0.28207 0.49453,0.43602 0.98004,0.99343 1.42493,2.33336 1.17396,3.71984 z m 5.49895,-5.02384 c -0.18577,1.03482 -1.31766,1.74493 -2.52796,1.58603 -0.36316,-0.0476 -0.69214,-0.16825 -0.96976,-0.34146 l -0.004,0.004 a 8.0667934,6.8971635 1.1357735e-4 0 1 -0.0343,-0.0266 c -0.18044,-0.11801 -0.33842,-0.25809 -0.46834,-0.41562 a 8.0667934,6.8971635 1.1357735e-4 0 1 -1.96152,-5.61147 8.0667934,6.8971635 1.1357735e-4 0 1 3.85083,-4.90129 c 0.46187,-0.30035 1.06017,-0.44657 1.67906,-0.36545 1.21031,0.15874 2.04086,1.12664 1.85501,2.16145 -0.1024,0.57044 -0.47797,1.04753 -1.00999,1.32946 -0.0605,0.0305 -0.12258,0.0613 -0.18691,0.0875 a 3.6562567,3.1261244 1.2125107e-4 0 0 -1.80454,2.23755 3.6562567,3.1261244 1.2125107e-4 0 0 0.9017,2.56797 c 0.072,0.0556 0.13894,0.11458 0.20061,0.17739 0.39803,0.40382 0.57919,0.94814 0.47809,1.51108 z m 15.59469,5.02384 c 0.46137,2.54855 3.25417,4.29975 6.23772,3.91128 0.89537,-0.11649 1.7059,-0.41272 2.38981,-0.83885 l 0.0114,0.0114 a 19.88888,16.983606 0.39148334 0 0 0.0799,-0.0674 c 0.44485,-0.28969 0.83352,-0.63507 1.15344,-1.02233 a 19.88888,16.983606 0.39148334 0 0 4.81861,-13.81334 19.88888,16.983606 0.39148334 0 0 -9.50963,-12.0779 c -1.13961,-0.74082 -2.61528,-1.10193 -4.1409,-0.90329 -2.98351,0.38851 -5.02817,2.76957 -4.5668,5.31813 0.25429,1.4049 1.18176,2.58061 2.49435,3.27602 0.14846,0.0788 0.30225,0.15112 0.46054,0.21698 a 9.0145913,7.6977825 0.39148009 0 1 4.4561,5.51398 9.0145913,7.6977825 0.39148009 0 1 -2.21521,6.32132 c -0.17701,0.13628 -0.3426,0.28207 -0.49453,0.43602 -0.98003,0.99343 -1.42492,2.33336 -1.17395,3.71984 z m -5.49899,-5.02384 c 0.18577,1.03482 1.3177,1.74493 2.528,1.58603 0.36316,-0.0476 0.69214,-0.16825 0.96976,-0.34146 l 0.004,0.004 a 6.8971635,8.0667934 89.999886 0 0 0.0343,-0.0266 c 0.18044,-0.11801 0.33842,-0.25809 0.46834,-0.41562 a 6.8971635,8.0667934 89.999886 0 0 1.96152,-5.61147 6.8971635,8.0667934 89.999886 0 0 -3.85083,-4.90129 c -0.46187,-0.30035 -1.06017,-0.44657 -1.6791,-0.36545 -1.21027,0.15874 -2.04082,1.12664 -1.85498,2.16145 0.1024,0.57044 0.47797,1.04753 1.01,1.32946 0.0605,0.0305 0.12258,0.0613 0.18691,0.0875 a 3.1261244,3.6562567 89.999879 0 1 1.80453,2.23755 3.1261244,3.6562567 89.999879 0 1 -0.90169,2.56797 c -0.072,0.0556 -0.13895,0.11458 -0.201,0.17739 -0.39803,0.40382 -0.57919,0.94814 -0.47808,1.51108 z" /><path
       style="fill:#b3b3b3;fill-opacity:1;stroke:#b3b3b3;stroke-width:1.22907;stroke-linecap:butt;stroke-linejoin:round;stroke-dasharray:none;stroke-opacity:1"
       d="m 401.20756,301.60446 -6.59342,3.80668 6.59342,3.80667 6.59345,-3.80667 z"
       id="path41178" /><path
       id="rect41188"
       style="opacity:1;fill:#7a7a7a;fill-opacity:1;fill-rule:evenodd;stroke:#7a7a7a;stroke-width:0.116012;stroke-linecap:round;stroke-linejoin:round;stroke-dasharray:none;stroke-opacity:1"
       d="m 401.20759,300.98207 -0.94033,0.54295 -2.3e-4,3.29406 c -4e-5,0.45304 0.36545,0.81833 0.81837,0.81833 0.45304,0 0.81833,-0.36545 0.81833,-0.81833 l 2.3e-4,-3.43571 z" /><path
       style="fill:none;fill-opacity:1;stroke:#b3b3b3;stroke-width:1.22907;stroke-linecap:butt;stroke-linejoin:round;stroke-dasharray:none;stroke-opacity:1"
       d="m 401.20756,309.21781 v 11.42018 l -9.89015,-5.71011 3.29673,-9.51674 z"
       id="path41196" /><path
       style="fill:none;fill-opacity:1;stroke:#b3b3b3;stroke-width:1.22907;stroke-linecap:butt;stroke-linejoin:round;stroke-dasharray:none;stroke-opacity:1"
       d="m 407.801,305.41114 1.09608,3.16412 2.20058,6.35262 -9.8901,5.71011 v -11.42018 z"
       id="path41198" /><path
       style="fill:none;stroke:#b3b3b3;stroke-width:1.22907;stroke-linecap:butt;stroke-linejoin:miter;stroke-dasharray:none;stroke-opacity:1"
       d="m 394.61414,305.41114 6.59342,15.22685"
       id="path42222" /><path
       style="fill:none;stroke:#b3b3b3;stroke-width:1.22907;stroke-linecap:butt;stroke-linejoin:miter;stroke-dasharray:none;stroke-opacity:1"
       d="m 401.20756,309.21781 -9.89015,5.71007"
       id="path42224" /><path
       style="fill:none;stroke:#b3b3b3;stroke-width:1.22907;stroke-linecap:butt;stroke-linejoin:miter;stroke-dasharray:none;stroke-opacity:1"
       d="m 407.80101,305.41114 -6.59345,15.22685"
       id="path42226" /><path
       style="fill:none;stroke:#b3b3b3;stroke-width:1.22907;stroke-linecap:butt;stroke-linejoin:miter;stroke-dasharray:none;stroke-opacity:1"
       d="m 411.09766,314.92788 -9.8901,-5.71007"
       id="path42228" /><path
       style="fill:none;fill-opacity:1;stroke:#b3b3b3;stroke-width:1.22907;stroke-linecap:butt;stroke-linejoin:round;stroke-dasharray:none;stroke-opacity:1"
       d="m 407.80101,305.41114 1.09607,3.16414 2.20058,6.3526 -9.8901,5.71011 v -11.42018 z"
       id="path42301" /><path
       style="fill:none;stroke:#b3b3b3;stroke-width:1.22907;stroke-linecap:butt;stroke-linejoin:miter;stroke-dasharray:none;stroke-opacity:1"
       d="m 407.80101,305.41114 -6.59345,15.22685"
       id="path42307" /><path
       style="fill:none;stroke:#b3b3b3;stroke-width:1.22907;stroke-linecap:butt;stroke-linejoin:miter;stroke-dasharray:none;stroke-opacity:1"
       d="m 411.09766,314.92788 -9.8901,-5.71007"
       id="path42309" /><path
       style="fill:none;stroke:#666666;stroke-width:1.22907;stroke-linecap:butt;stroke-linejoin:miter;stroke-dasharray:none;stroke-opacity:1"
       d="m 394.61414,305.41114 6.59342,15.22685"
       id="path42303" /><path
       style="fill:none;stroke:#666666;stroke-width:1.22907;stroke-linecap:butt;stroke-linejoin:miter;stroke-dasharray:none;stroke-opacity:1"
       d="m 401.20756,309.21781 -9.89015,5.71007"
       id="path42305" /><path
       style="fill:none;fill-opacity:1;stroke:#666666;stroke-width:1.22907;stroke-linecap:butt;stroke-linejoin:round;stroke-dasharray:none;stroke-opacity:1"
       d="m 401.20756,309.21781 v 11.42018 l -9.89015,-5.71011 3.29673,-9.51674 z"
       id="path42299" /><path
       id="path52621"
       style="opacity:0.667364;fill:url(#linearGradient42328);fill-opacity:1;fill-rule:evenodd;stroke:none;stroke-width:0.473167;stroke-linecap:round;stroke-linejoin:round;stroke-dasharray:none;stroke-opacity:1;filter:url(#filter52623)"
       d="m 390.53898,299.01457 c -0.46141,2.54855 -3.25417,4.29975 -6.23772,3.91128 -0.89537,-0.11649 -1.7059,-0.41272 -2.38981,-0.83885 l -0.0114,0.0114 a 16.983606,19.88888 89.608517 0 1 -0.0799,-0.0674 c -0.44485,-0.28969 -0.83351,-0.63507 -1.15343,-1.02233 a 16.983606,19.88888 89.608517 0 1 -4.81861,-13.81334 16.983606,19.88888 89.608517 0 1 9.50962,-12.0779 c 1.13962,-0.74082 2.61529,-1.10193 4.14091,-0.90329 2.98351,0.38851 5.02817,2.76957 4.56679,5.31813 -0.25428,1.4049 -1.18175,2.58061 -2.49434,3.27602 -0.14847,0.0788 -0.30226,0.15112 -0.46054,0.21698 a 7.6977825,9.0145913 89.60852 0 0 -4.4561,5.51398 7.6977825,9.0145913 89.60852 0 0 2.2152,6.32132 c 0.17702,0.13628 0.34223,0.28207 0.49453,0.43602 0.98004,0.99343 1.42493,2.33336 1.17396,3.71984 z m 5.49895,-5.02384 c -0.18577,1.03482 -1.31766,1.74493 -2.52796,1.58603 -0.36316,-0.0476 -0.69214,-0.16825 -0.96976,-0.34146 l -0.004,0.004 a 8.0667934,6.8971635 1.1357735e-4 0 1 -0.0343,-0.0266 c -0.18044,-0.11801 -0.33842,-0.25809 -0.46834,-0.41562 a 8.0667934,6.8971635 1.1357735e-4 0 1 -1.96152,-5.61147 8.0667934,6.8971635 1.1357735e-4 0 1 3.85083,-4.90129 c 0.46187,-0.30035 1.06017,-0.44657 1.67906,-0.36545 1.21031,0.15874 2.04086,1.12664 1.85501,2.16145 -0.1024,0.57044 -0.47797,1.04753 -1.00999,1.32946 -0.0605,0.0305 -0.12258,0.0613 -0.18691,0.0875 a 3.6562567,3.1261244 1.2125107e-4 0 0 -1.80454,2.23755 3.6562567,3.1261244 1.2125107e-4 0 0 0.9017,2.56797 c 0.072,0.0556 0.13894,0.11458 0.20061,0.17739 0.39803,0.40382 0.57919,0.94814 0.47809,1.51108 z m 15.59469,5.02384 c 0.46137,2.54855 3.25417,4.29975 6.23772,3.91128 0.89537,-0.11649 1.7059,-0.41272 2.38981,-0.83885 l 0.0114,0.0114 a 19.88888,16.983606 0.39148334 0 0 0.0799,-0.0674 c 0.44485,-0.28969 0.83352,-0.63507 1.15344,-1.02233 a 19.88888,16.983606 0.39148334 0 0 4.81861,-13.81334 19.88888,16.983606 0.39148334 0 0 -9.50963,-12.0779 c -1.13961,-0.74082 -2.61528,-1.10193 -4.1409,-0.90329 -2.98351,0.38851 -5.02817,2.76957 -4.5668,5.31813 0.25429,1.4049 1.18176,2.58061 2.49435,3.27602 0.14846,0.0788 0.30225,0.15112 0.46054,0.21698 a 9.0145913,7.6977825 0.39148009 0 1 4.4561,5.51398 9.0145913,7.6977825 0.39148009 0 1 -2.21521,6.32132 c -0.17701,0.13628 -0.3426,0.28207 -0.49453,0.43602 -0.98003,0.99343 -1.42492,2.33336 -1.17395,3.71984 z m -5.49899,-5.02384 c 0.18577,1.03482 1.3177,1.74493 2.528,1.58603 0.36316,-0.0476 0.69214,-0.16825 0.96976,-0.34146 l 0.004,0.004 a 6.8971635,8.0667934 89.999886 0 0 0.0343,-0.0266 c 0.18044,-0.11801 0.33842,-0.25809 0.46834,-0.41562 a 6.8971635,8.0667934 89.999886 0 0 1.96152,-5.61147 6.8971635,8.0667934 89.999886 0 0 -3.85083,-4.90129 c -0.46187,-0.30035 -1.06017,-0.44657 -1.6791,-0.36545 -1.21027,0.15874 -2.04082,1.12664 -1.85498,2.16145 0.1024,0.57044 0.47797,1.04753 1.01,1.32946 0.0605,0.0305 0.12258,0.0613 0.18691,0.0875 a 3.1261244,3.6562567 89.999879 0 1 1.80453,2.23755 3.1261244,3.6562567 89.999879 0 1 -0.90169,2.56797 c -0.072,0.0556 -0.13895,0.11458 -0.201,0.17739 -0.39803,0.40382 -0.57919,0.94814 -0.47808,1.51108 z" /></g></svg>
