<?xml version="1.0" encoding="UTF-8" standalone="no"?>
<!-- Created with Inkscape (http://www.inkscape.org/) -->

<svg
   width="173.00002"
   height="173.00002"
   viewBox="0 0 45.77292 45.772921"
   version="1.1"
   id="svg5"
   xml:space="preserve"
   xmlns="http://www.w3.org/2000/svg"
   xmlns:svg="http://www.w3.org/2000/svg"><defs
     id="defs2"><rect
       x="1665.8032"
       y="175.7682"
       width="872.18317"
       height="298.27332"
       id="rect5677" /><rect
       x="1805.6189"
       y="150.46825"
       width="732.36755"
       height="332.89432"
       id="rect5671" /><rect
       x="1665.8032"
       y="175.7682"
       width="872.18317"
       height="298.27332"
       id="rect8036" /><rect
       x="1665.8032"
       y="175.7682"
       width="872.18317"
       height="298.27332"
       id="rect836" /><rect
       x="1665.8032"
       y="175.7682"
       width="872.18317"
       height="298.27332"
       id="rect52157" /><rect
       x="1665.8032"
       y="175.7682"
       width="872.18317"
       height="298.27332"
       id="rect52175" /><rect
       x="1665.8032"
       y="175.7682"
       width="872.18317"
       height="298.27332"
       id="rect52345" /></defs><text
     xml:space="preserve"
     transform="matrix(0.26458333,0,0,0.26458333,-266.20078,-511.36145)"
     id="text5669"
     style="font-style:normal;font-weight:normal;font-size:40px;line-height:1.25;font-family:sans-serif;white-space:pre;shape-inside:url(#rect5671);display:inline;fill:#000000;fill-opacity:1;stroke:none" /><path
     id="path49857"
     style="fill:#808080;fill-rule:evenodd;stroke:none;stroke-width:0.765;stroke-linecap:round;stroke-linejoin:round"
     class="UnoptimicedTransforms"
     d="m 71.77288,133.8585 -0.932243,0.15037 -0.459403,1.26091 0.192236,0.80512 c -0.05802,0.004 -0.116959,0.0105 -0.176217,0.0201 l -4.782137,0.80719 -4.136698,-1.38131 c -0.173776,-0.0578 -0.360123,-0.0811 -0.542603,-0.076 -0.547438,0.0154 -1.062131,0.28835 -1.11466,0.66456 l -0.383956,2.50166 -4.131531,0.22376 v 2.66702 h 0.03411 c -0.122709,0.30066 0.09218,0.61678 0.597379,0.72295 l 4.33617,0.92087 1.686718,2.55644 c 0.280147,0.42879 1.269577,0.48472 1.835547,0.10438 l 3.348116,-2.25671 4.925798,-0.36845 c 0.604965,-0.0423 1.035587,-0.33719 1.073319,-0.65112 8.2e-5,-6.9e-4 -7.8e-5,-0.001 0,-0.002 0.0033,-0.0283 0.0033,-0.0568 0,-0.0853 v -2.74557 l -0.624768,-0.0718 -1.85415,-0.15142 1.077453,-2.60294 c 0.01853,-0.0464 0.02887,-0.0922 0.03152,-0.13694 v -0.0424 z"
     transform="translate(-55.10373,-117.10397)" /><path
     id="path49859"
     style="fill:#e6e6e6;fill-opacity:1;fill-rule:evenodd;stroke:none;stroke-width:0.765;stroke-linecap:round;stroke-linejoin:round"
     d="m 71.741104,136.87129 -1.191786,2.87972 2.450497,2.422 c 0.41053,0.40699 -0.09265,0.94983 -0.930186,1.00834 l -4.925783,0.36832 -3.348502,2.25702 c -0.565972,0.38034 -1.554982,0.32438 -1.835129,-0.10441 l -1.686663,-2.55633 -4.336325,-0.92105 c -0.727271,-0.15284 -0.853933,-0.74101 -0.235994,-1.09135 l 3.667356,-2.07293 0.452492,-2.95098 c 0.07004,-0.50161 0.962161,-0.81991 1.657265,-0.58855 l 4.136881,1.38122 4.781835,-0.807 c 0.812673,-0.13286 1.539403,0.28671 1.344042,0.77598 z"
     class="UnoptimicedTransforms"
     transform="translate(-55.10373,-119.93719)" /><path
     id="path49861"
     style="fill:#808080;fill-opacity:1;fill-rule:evenodd;stroke:none;stroke-width:0.765;stroke-linecap:round;stroke-linejoin:round"
     class="UnoptimicedTransforms"
     d="m 71.77288,133.8585 -0.932243,0.15037 -0.459403,1.26091 0.192236,0.80512 c -0.05802,0.004 -0.116959,0.0105 -0.176217,0.0201 l -4.782137,0.80719 -4.136698,-1.38131 c -0.173776,-0.0578 -0.360123,-0.0811 -0.542603,-0.076 -0.547438,0.0154 -1.062131,0.28835 -1.11466,0.66456 l -0.383956,2.50166 -4.131531,0.22376 v 2.66702 h 0.03411 c -0.122709,0.30066 0.09218,0.61678 0.597379,0.72295 l 4.33617,0.92087 1.686718,2.55644 c 0.280147,0.42879 1.269577,0.48472 1.835547,0.10438 l 3.348116,-2.25671 4.925798,-0.36845 c 0.604965,-0.0423 1.035587,-0.33719 1.073319,-0.65112 8.2e-5,-6.9e-4 -7.8e-5,-0.001 0,-0.002 0.0033,-0.0283 0.0033,-0.0568 0,-0.0853 v -2.74557 l -0.624768,-0.0718 -1.85415,-0.15142 1.077453,-2.60294 c 0.01853,-0.0464 0.02887,-0.0922 0.03152,-0.13694 v -0.0424 z"
     transform="translate(-39.3068,-102.79301)" /><path
     id="path49863"
     style="fill:#e6e6e6;fill-opacity:1;fill-rule:evenodd;stroke:none;stroke-width:0.765;stroke-linecap:round;stroke-linejoin:round"
     d="m 71.741104,136.87129 -1.191786,2.87972 2.450497,2.422 c 0.41053,0.40699 -0.09265,0.94983 -0.930186,1.00834 l -4.925783,0.36832 -3.348502,2.25702 c -0.565972,0.38034 -1.554982,0.32438 -1.835129,-0.10441 l -1.686663,-2.55633 -4.336325,-0.92105 c -0.727271,-0.15284 -0.853933,-0.74101 -0.235994,-1.09135 l 3.667356,-2.07293 0.452492,-2.95098 c 0.07004,-0.50161 0.962161,-0.81991 1.657265,-0.58855 l 4.136881,1.38122 4.781835,-0.807 c 0.812673,-0.13286 1.539403,0.28671 1.344042,0.77598 z"
     class="UnoptimicedTransforms"
     transform="translate(-39.3068,-105.62623)" /><path
     id="path49865"
     style="fill:#808080;fill-rule:evenodd;stroke:none;stroke-width:0.765;stroke-linecap:round;stroke-linejoin:round"
     class="UnoptimicedTransforms"
     d="m 71.77288,133.8585 -0.932243,0.15037 -0.459403,1.26091 0.192236,0.80512 c -0.05802,0.004 -0.116959,0.0105 -0.176217,0.0201 l -4.782137,0.80719 -4.136698,-1.38131 c -0.173776,-0.0578 -0.360123,-0.0811 -0.542603,-0.076 -0.547438,0.0154 -1.062131,0.28835 -1.11466,0.66456 l -0.383956,2.50166 -4.131531,0.22376 v 2.66702 h 0.03411 c -0.122709,0.30066 0.09218,0.61678 0.597379,0.72295 l 4.33617,0.92087 1.686718,2.55644 c 0.280147,0.42879 1.269577,0.48472 1.835547,0.10438 l 3.348116,-2.25671 4.925798,-0.36845 c 0.604965,-0.0423 1.035587,-0.33719 1.073319,-0.65112 8.2e-5,-6.9e-4 -7.8e-5,-0.001 0,-0.002 0.0033,-0.0283 0.0033,-0.0568 0,-0.0853 v -2.74557 l -0.624768,-0.0718 -1.85415,-0.15142 1.077453,-2.60294 c 0.01853,-0.0464 0.02887,-0.0922 0.03152,-0.13694 v -0.0424 z"
     transform="translate(-27.64722,-117.54099)" /><path
     id="path49867"
     style="fill:#e6e6e6;fill-opacity:1;fill-rule:evenodd;stroke:none;stroke-width:0.765;stroke-linecap:round;stroke-linejoin:round"
     d="m 71.741104,136.87129 -1.191786,2.87972 2.450497,2.422 c 0.41053,0.40699 -0.09265,0.94983 -0.930186,1.00834 l -4.925783,0.36832 -3.348502,2.25702 c -0.565972,0.38034 -1.554982,0.32438 -1.835129,-0.10441 l -1.686663,-2.55633 -4.336325,-0.92105 c -0.727271,-0.15284 -0.853933,-0.74101 -0.235994,-1.09135 l 3.667356,-2.07293 0.452492,-2.95098 c 0.07004,-0.50161 0.962161,-0.81991 1.657265,-0.58855 l 4.136881,1.38122 4.781835,-0.807 c 0.812673,-0.13286 1.539403,0.28671 1.344042,0.77598 z"
     class="UnoptimicedTransforms"
     transform="translate(-27.62307,-120.31258)" /><path
     id="path49871"
     style="fill:#808080;fill-rule:evenodd;stroke:none;stroke-width:0.765;stroke-linecap:round;stroke-linejoin:round"
     class="UnoptimicedTransforms"
     d="m 71.77288,133.8585 -0.932243,0.15037 -0.459403,1.26091 0.192236,0.80512 c -0.05802,0.004 -0.116959,0.0105 -0.176217,0.0201 l -4.782137,0.80719 -4.136698,-1.38131 c -0.173776,-0.0578 -0.360123,-0.0811 -0.542603,-0.076 -0.547438,0.0154 -1.062131,0.28835 -1.11466,0.66456 l -0.383956,2.50166 -4.131531,0.22376 v 2.66702 h 0.03411 c -0.122709,0.30066 0.09218,0.61678 0.597379,0.72295 l 4.33617,0.92087 1.686718,2.55644 c 0.280147,0.42879 1.269577,0.48472 1.835547,0.10438 l 3.348116,-2.25671 4.925798,-0.36845 c 0.604965,-0.0423 1.035587,-0.33719 1.073319,-0.65112 8.2e-5,-6.9e-4 -7.8e-5,-0.001 0,-0.002 0.0033,-0.0283 0.0033,-0.0568 0,-0.0853 v -2.74557 l -0.624768,-0.0718 -1.85415,-0.15142 1.077453,-2.60294 c 0.01853,-0.0464 0.02887,-0.0922 0.03152,-0.13694 v -0.0424 z"
     transform="translate(-27.64722,-117.54099)" /><path
     id="path49873"
     style="fill:#e6e6e6;fill-opacity:1;fill-rule:evenodd;stroke:none;stroke-width:0.765;stroke-linecap:round;stroke-linejoin:round"
     d="m 71.741104,136.87129 -1.191786,2.87972 2.450497,2.422 c 0.41053,0.40699 -0.09265,0.94983 -0.930186,1.00834 l -4.925783,0.36832 -3.348502,2.25702 c -0.565972,0.38034 -1.554982,0.32438 -1.835129,-0.10441 l -1.686663,-2.55633 -4.336325,-0.92105 c -0.727271,-0.15284 -0.853933,-0.74101 -0.235994,-1.09135 l 3.667356,-2.07293 0.452492,-2.95098 c 0.07004,-0.50161 0.962161,-0.81991 1.657265,-0.58855 l 4.136881,1.38122 4.781835,-0.807 c 0.812673,-0.13286 1.539403,0.28671 1.344042,0.77598 z"
     class="UnoptimicedTransforms"
     transform="translate(-27.62307,-120.31258)" /><path
     id="path49875"
     style="fill:#ffffff;fill-rule:evenodd;stroke:none;stroke-width:0.765;stroke-linecap:round;stroke-linejoin:round"
     class="UnoptimicedTransforms"
     d="m 71.77288,133.8585 -0.932243,0.15037 -0.459403,1.26091 0.192236,0.80512 c -0.05802,0.004 -0.116959,0.0105 -0.176217,0.0201 l -4.782137,0.80719 -4.136698,-1.38131 c -0.173776,-0.0578 -0.360123,-0.0811 -0.542603,-0.076 -0.547438,0.0154 -1.062131,0.28835 -1.11466,0.66456 l -0.383956,2.50166 -4.131531,0.22376 v 2.66702 h 0.03411 c -0.122709,0.30066 0.09218,0.61678 0.597379,0.72295 l 4.33617,0.92087 1.686718,2.55644 c 0.280147,0.42879 1.269577,0.48472 1.835547,0.10438 l 3.348116,-2.25671 4.925798,-0.36845 c 0.604965,-0.0423 1.035587,-0.33719 1.073319,-0.65112 8.2e-5,-6.9e-4 -7.8e-5,-0.001 0,-0.002 0.0033,-0.0283 0.0033,-0.0568 0,-0.0853 v -2.74557 l -0.624768,-0.0718 -1.85415,-0.15142 1.077453,-2.60294 c 0.01853,-0.0464 0.02887,-0.0922 0.03152,-0.13694 v -0.0424 z"
     transform="translate(-27.62296,-120.31246)" /><path
     id="path49877"
     style="fill:#808080;fill-opacity:1;fill-rule:evenodd;stroke:none;stroke-width:0.765;stroke-linecap:round;stroke-linejoin:round"
     class="UnoptimicedTransforms"
     d="m 71.77288,133.8585 -0.932243,0.15037 -0.459403,1.26091 0.192236,0.80512 c -0.05802,0.004 -0.116959,0.0105 -0.176217,0.0201 l -4.782137,0.80719 -4.136698,-1.38131 c -0.173776,-0.0578 -0.360123,-0.0811 -0.542603,-0.076 -0.547438,0.0154 -1.062131,0.28835 -1.11466,0.66456 l -0.383956,2.50166 -4.131531,0.22376 v 2.66702 h 0.03411 c -0.122709,0.30066 0.09218,0.61678 0.597379,0.72295 l 4.33617,0.92087 1.686718,2.55644 c 0.280147,0.42879 1.269577,0.48472 1.835547,0.10438 l 3.348116,-2.25671 4.925798,-0.36845 c 0.604965,-0.0423 1.035587,-0.33719 1.073319,-0.65112 8.2e-5,-6.9e-4 -7.8e-5,-0.001 0,-0.002 0.0033,-0.0283 0.0033,-0.0568 0,-0.0853 v -2.74557 l -0.624768,-0.0718 -1.85415,-0.15142 1.077453,-2.60294 c 0.01853,-0.0464 0.02887,-0.0922 0.03152,-0.13694 v -0.0424 z"
     transform="translate(-27.62296,-120.99679)" /><path
     id="path49879"
     style="fill:#fcff14;fill-opacity:1;fill-rule:evenodd;stroke:none;stroke-width:0.765;stroke-linecap:round;stroke-linejoin:round"
     d="m 71.741104,136.87129 -1.191786,2.87972 2.450497,2.422 c 0.41053,0.40699 -0.09265,0.94983 -0.930186,1.00834 l -4.925783,0.36832 -3.348502,2.25702 c -0.565972,0.38034 -1.554982,0.32438 -1.835129,-0.10441 l -1.686663,-2.55633 -4.336325,-0.92105 c -0.727271,-0.15284 -0.853933,-0.74101 -0.235994,-1.09135 l 3.667356,-2.07293 0.452492,-2.95098 c 0.07004,-0.50161 0.962161,-0.81991 1.657265,-0.58855 l 4.136881,1.38122 4.781835,-0.807 c 0.812673,-0.13286 1.539403,0.28671 1.344042,0.77598 z"
     class="UnoptimicedTransforms"
     transform="translate(-27.59881,-123.76837)" /><path
     id="path49881"
     style="fill:#ffffff;fill-rule:evenodd;stroke:none;stroke-width:0.765;stroke-linecap:round;stroke-linejoin:round"
     class="UnoptimicedTransforms"
     d="m 71.77288,133.8585 -0.932243,0.15037 -0.459403,1.26091 0.192236,0.80512 c -0.05802,0.004 -0.116959,0.0105 -0.176217,0.0201 l -4.782137,0.80719 -4.136698,-1.38131 c -0.173776,-0.0578 -0.360123,-0.0811 -0.542603,-0.076 -0.547438,0.0154 -1.062131,0.28835 -1.11466,0.66456 l -0.383956,2.50166 -4.131531,0.22376 v 2.66702 h 0.03411 c -0.122709,0.30066 0.09218,0.61678 0.597379,0.72295 l 4.33617,0.92087 1.686718,2.55644 c 0.280147,0.42879 1.269577,0.48472 1.835547,0.10438 l 3.348116,-2.25671 4.925798,-0.36845 c 0.604965,-0.0423 1.035587,-0.33719 1.073319,-0.65112 8.2e-5,-6.9e-4 -7.8e-5,-0.001 0,-0.002 0.0033,-0.0283 0.0033,-0.0568 0,-0.0853 v -2.74557 l -0.624768,-0.0718 -1.85415,-0.15142 1.077453,-2.60294 c 0.01853,-0.0464 0.02887,-0.0922 0.03152,-0.13694 v -0.0424 z"
     transform="translate(-27.5987,-123.08392)" /><path
     id="path49883"
     style="fill:#808080;fill-opacity:1;fill-rule:evenodd;stroke:none;stroke-width:0.765;stroke-linecap:round;stroke-linejoin:round"
     class="UnoptimicedTransforms"
     d="m 71.77288,133.8585 -0.932243,0.15037 -0.459403,1.26091 0.192236,0.80512 c -0.05802,0.004 -0.116959,0.0105 -0.176217,0.0201 l -4.782137,0.80719 -4.136698,-1.38131 c -0.173776,-0.0578 -0.360123,-0.0811 -0.542603,-0.076 -0.547438,0.0154 -1.062131,0.28835 -1.11466,0.66456 l -0.383956,2.50166 -4.131531,0.22376 v 2.66702 h 0.03411 c -0.122709,0.30066 0.09218,0.61678 0.597379,0.72295 l 4.33617,0.92087 1.686718,2.55644 c 0.280147,0.42879 1.269577,0.48472 1.835547,0.10438 l 3.348116,-2.25671 4.925798,-0.36845 c 0.604965,-0.0423 1.035587,-0.33719 1.073319,-0.65112 8.2e-5,-6.9e-4 -7.8e-5,-0.001 0,-0.002 0.0033,-0.0283 0.0033,-0.0568 0,-0.0853 v -2.74557 l -0.624768,-0.0718 -1.85415,-0.15142 1.077453,-2.60294 c 0.01853,-0.0464 0.02887,-0.0922 0.03152,-0.13694 v -0.0424 z"
     transform="translate(-27.5987,-123.76825)" /><path
     id="path49885"
     style="fill:#e6e6e6;fill-opacity:1;fill-rule:evenodd;stroke:none;stroke-width:0.765;stroke-linecap:round;stroke-linejoin:round"
     d="m 71.741104,136.87129 -1.191786,2.87972 2.450497,2.422 c 0.41053,0.40699 -0.09265,0.94983 -0.930186,1.00834 l -4.925783,0.36832 -3.348502,2.25702 c -0.565972,0.38034 -1.554982,0.32438 -1.835129,-0.10441 l -1.686663,-2.55633 -4.336325,-0.92105 c -0.727271,-0.15284 -0.853933,-0.74101 -0.235994,-1.09135 l 3.667356,-2.07293 0.452492,-2.95098 c 0.07004,-0.50161 0.962161,-0.81991 1.657265,-0.58855 l 4.136881,1.38122 4.781835,-0.807 c 0.812673,-0.13286 1.539403,0.28671 1.344042,0.77598 z"
     class="UnoptimicedTransforms"
     transform="translate(-27.57454,-126.53983)" /><path
     id="path49887"
     style="fill:#ffffff;fill-rule:evenodd;stroke:none;stroke-width:0.765;stroke-linecap:round;stroke-linejoin:round"
     class="UnoptimicedTransforms"
     d="m 71.77288,133.8585 -0.932243,0.15037 -0.459403,1.26091 0.192236,0.80512 c -0.05802,0.004 -0.116959,0.0105 -0.176217,0.0201 l -4.782137,0.80719 -4.136698,-1.38131 c -0.173776,-0.0578 -0.360123,-0.0811 -0.542603,-0.076 -0.547438,0.0154 -1.062131,0.28835 -1.11466,0.66456 l -0.383956,2.50166 -4.131531,0.22376 v 2.66702 h 0.03411 c -0.122709,0.30066 0.09218,0.61678 0.597379,0.72295 l 4.33617,0.92087 1.686718,2.55644 c 0.280147,0.42879 1.269577,0.48472 1.835547,0.10438 l 3.348116,-2.25671 4.925798,-0.36845 c 0.604965,-0.0423 1.035587,-0.33719 1.073319,-0.65112 8.2e-5,-6.9e-4 -7.8e-5,-0.001 0,-0.002 0.0033,-0.0283 0.0033,-0.0568 0,-0.0853 v -2.74557 l -0.624768,-0.0718 -1.85415,-0.15142 1.077453,-2.60294 c 0.01853,-0.0464 0.02887,-0.0922 0.03152,-0.13694 v -0.0424 z"
     transform="translate(-55.10362,-119.14425)" /><path
     id="path49889"
     style="fill:#808080;fill-opacity:1;fill-rule:evenodd;stroke:none;stroke-width:0.765;stroke-linecap:round;stroke-linejoin:round"
     class="UnoptimicedTransforms"
     d="m 71.77288,133.8585 -0.932243,0.15037 -0.459403,1.26091 0.192236,0.80512 c -0.05802,0.004 -0.116959,0.0105 -0.176217,0.0201 l -4.782137,0.80719 -4.136698,-1.38131 c -0.173776,-0.0578 -0.360123,-0.0811 -0.542603,-0.076 -0.547438,0.0154 -1.062131,0.28835 -1.11466,0.66456 l -0.383956,2.50166 -4.131531,0.22376 v 2.66702 h 0.03411 c -0.122709,0.30066 0.09218,0.61678 0.597379,0.72295 l 4.33617,0.92087 1.686718,2.55644 c 0.280147,0.42879 1.269577,0.48472 1.835547,0.10438 l 3.348116,-2.25671 4.925798,-0.36845 c 0.604965,-0.0423 1.035587,-0.33719 1.073319,-0.65112 8.2e-5,-6.9e-4 -7.8e-5,-0.001 0,-0.002 0.0033,-0.0283 0.0033,-0.0568 0,-0.0853 v -2.74557 l -0.624768,-0.0718 -1.85415,-0.15142 1.077453,-2.60294 c 0.01853,-0.0464 0.02887,-0.0922 0.03152,-0.13694 v -0.0424 z"
     transform="translate(-55.10362,-119.82858)" /><path
     id="path49891"
     style="fill:#e6e6e6;fill-opacity:1;fill-rule:evenodd;stroke:none;stroke-width:0.765;stroke-linecap:round;stroke-linejoin:round"
     d="m 71.741104,136.87129 -1.191786,2.87972 2.450497,2.422 c 0.41053,0.40699 -0.09265,0.94983 -0.930186,1.00834 l -4.925783,0.36832 -3.348502,2.25702 c -0.565972,0.38034 -1.554982,0.32438 -1.835129,-0.10441 l -1.686663,-2.55633 -4.336325,-0.92105 c -0.727271,-0.15284 -0.853933,-0.74101 -0.235994,-1.09135 l 3.667356,-2.07293 0.452492,-2.95098 c 0.07004,-0.50161 0.962161,-0.81991 1.657265,-0.58855 l 4.136881,1.38122 4.781835,-0.807 c 0.812673,-0.13286 1.539403,0.28671 1.344042,0.77598 z"
     class="UnoptimicedTransforms"
     transform="translate(-55.07946,-122.60016)" /><path
     id="path49893"
     style="fill:#ffffff;fill-rule:evenodd;stroke:none;stroke-width:0.765;stroke-linecap:round;stroke-linejoin:round"
     class="UnoptimicedTransforms"
     d="m 71.77288,133.8585 -0.932243,0.15037 -0.459403,1.26091 0.192236,0.80512 c -0.05802,0.004 -0.116959,0.0105 -0.176217,0.0201 l -4.782137,0.80719 -4.136698,-1.38131 c -0.173776,-0.0578 -0.360123,-0.0811 -0.542603,-0.076 -0.547438,0.0154 -1.062131,0.28835 -1.11466,0.66456 l -0.383956,2.50166 -4.131531,0.22376 v 2.66702 h 0.03411 c -0.122709,0.30066 0.09218,0.61678 0.597379,0.72295 l 4.33617,0.92087 1.686718,2.55644 c 0.280147,0.42879 1.269577,0.48472 1.835547,0.10438 l 3.348116,-2.25671 4.925798,-0.36845 c 0.604965,-0.0423 1.035587,-0.33719 1.073319,-0.65112 8.2e-5,-6.9e-4 -7.8e-5,-0.001 0,-0.002 0.0033,-0.0283 0.0033,-0.0568 0,-0.0853 v -2.74557 l -0.624768,-0.0718 -1.85415,-0.15142 1.077453,-2.60294 c 0.01853,-0.0464 0.02887,-0.0922 0.03152,-0.13694 v -0.0424 z"
     transform="translate(-55.07935,-122.60004)" /><path
     id="path49895"
     style="fill:#808080;fill-opacity:1;fill-rule:evenodd;stroke:none;stroke-width:0.765;stroke-linecap:round;stroke-linejoin:round"
     class="UnoptimicedTransforms"
     d="m 71.77288,133.8585 -0.932243,0.15037 -0.459403,1.26091 0.192236,0.80512 c -0.05802,0.004 -0.116959,0.0105 -0.176217,0.0201 l -4.782137,0.80719 -4.136698,-1.38131 c -0.173776,-0.0578 -0.360123,-0.0811 -0.542603,-0.076 -0.547438,0.0154 -1.062131,0.28835 -1.11466,0.66456 l -0.383956,2.50166 -4.131531,0.22376 v 2.66702 h 0.03411 c -0.122709,0.30066 0.09218,0.61678 0.597379,0.72295 l 4.33617,0.92087 1.686718,2.55644 c 0.280147,0.42879 1.269577,0.48472 1.835547,0.10438 l 3.348116,-2.25671 4.925798,-0.36845 c 0.604965,-0.0423 1.035587,-0.33719 1.073319,-0.65112 8.2e-5,-6.9e-4 -7.8e-5,-0.001 0,-0.002 0.0033,-0.0283 0.0033,-0.0568 0,-0.0853 v -2.74557 l -0.624768,-0.0718 -1.85415,-0.15142 1.077453,-2.60294 c 0.01853,-0.0464 0.02887,-0.0922 0.03152,-0.13694 v -0.0424 z"
     transform="translate(-55.07935,-123.28438)" /><path
     id="path49897"
     style="fill:#e6e6e6;fill-opacity:1;fill-rule:evenodd;stroke:none;stroke-width:0.765;stroke-linecap:round;stroke-linejoin:round"
     d="m 71.741104,136.87129 -1.191786,2.87972 2.450497,2.422 c 0.41053,0.40699 -0.09265,0.94983 -0.930186,1.00834 l -4.925783,0.36832 -3.348502,2.25702 c -0.565972,0.38034 -1.554982,0.32438 -1.835129,-0.10441 l -1.686663,-2.55633 -4.336325,-0.92105 c -0.727271,-0.15284 -0.853933,-0.74101 -0.235994,-1.09135 l 3.667356,-2.07293 0.452492,-2.95098 c 0.07004,-0.50161 0.962161,-0.81991 1.657265,-0.58855 l 4.136881,1.38122 4.781835,-0.807 c 0.812673,-0.13286 1.539403,0.28671 1.344042,0.77598 z"
     class="UnoptimicedTransforms"
     transform="translate(-55.0552,-126.05596)" /><path
     id="path49899"
     style="fill:#ffffff;fill-rule:evenodd;stroke:none;stroke-width:0.765;stroke-linecap:round;stroke-linejoin:round"
     class="UnoptimicedTransforms"
     d="m 71.77288,133.8585 -0.932243,0.15037 -0.459403,1.26091 0.192236,0.80512 c -0.05802,0.004 -0.116959,0.0105 -0.176217,0.0201 l -4.782137,0.80719 -4.136698,-1.38131 c -0.173776,-0.0578 -0.360123,-0.0811 -0.542603,-0.076 -0.547438,0.0154 -1.062131,0.28835 -1.11466,0.66456 l -0.383956,2.50166 -4.131531,0.22376 v 2.66702 h 0.03411 c -0.122709,0.30066 0.09218,0.61678 0.597379,0.72295 l 4.33617,0.92087 1.686718,2.55644 c 0.280147,0.42879 1.269577,0.48472 1.835547,0.10438 l 3.348116,-2.25671 4.925798,-0.36845 c 0.604965,-0.0423 1.035587,-0.33719 1.073319,-0.65112 8.2e-5,-6.9e-4 -7.8e-5,-0.001 0,-0.002 0.0033,-0.0283 0.0033,-0.0568 0,-0.0853 v -2.74557 l -0.624768,-0.0718 -1.85415,-0.15142 1.077453,-2.60294 c 0.01853,-0.0464 0.02887,-0.0922 0.03152,-0.13694 v -0.0424 z"
     transform="translate(-55.05509,-126.05584)" /><path
     id="path49901"
     style="fill:#808080;fill-opacity:1;fill-rule:evenodd;stroke:none;stroke-width:0.765;stroke-linecap:round;stroke-linejoin:round"
     class="UnoptimicedTransforms"
     d="m 71.77288,133.8585 -0.932243,0.15037 -0.459403,1.26091 0.192236,0.80512 c -0.05802,0.004 -0.116959,0.0105 -0.176217,0.0201 l -4.782137,0.80719 -4.136698,-1.38131 c -0.173776,-0.0578 -0.360123,-0.0811 -0.542603,-0.076 -0.547438,0.0154 -1.062131,0.28835 -1.11466,0.66456 l -0.383956,2.50166 -4.131531,0.22376 v 2.66702 h 0.03411 c -0.122709,0.30066 0.09218,0.61678 0.597379,0.72295 l 4.33617,0.92087 1.686718,2.55644 c 0.280147,0.42879 1.269577,0.48472 1.835547,0.10438 l 3.348116,-2.25671 4.925798,-0.36845 c 0.604965,-0.0423 1.035587,-0.33719 1.073319,-0.65112 8.2e-5,-6.9e-4 -7.8e-5,-0.001 0,-0.002 0.0033,-0.0283 0.0033,-0.0568 0,-0.0853 v -2.74557 l -0.624768,-0.0718 -1.85415,-0.15142 1.077453,-2.60294 c 0.01853,-0.0464 0.02887,-0.0922 0.03152,-0.13694 v -0.0424 z"
     transform="translate(-55.05509,-126.74017)" /><path
     id="path49903"
     style="fill:#fcff14;fill-opacity:1;fill-rule:evenodd;stroke:none;stroke-width:0.765;stroke-linecap:round;stroke-linejoin:round"
     d="m 71.741104,136.87129 -1.191786,2.87972 2.450497,2.422 c 0.41053,0.40699 -0.09265,0.94983 -0.930186,1.00834 l -4.925783,0.36832 -3.348502,2.25702 c -0.565972,0.38034 -1.554982,0.32438 -1.835129,-0.10441 l -1.686663,-2.55633 -4.336325,-0.92105 c -0.727271,-0.15284 -0.853933,-0.74101 -0.235994,-1.09135 l 3.667356,-2.07293 0.452492,-2.95098 c 0.07004,-0.50161 0.962161,-0.81991 1.657265,-0.58855 l 4.136881,1.38122 4.781835,-0.807 c 0.812673,-0.13286 1.539403,0.28671 1.344042,0.77598 z"
     class="UnoptimicedTransforms"
     transform="translate(-55.03094,-129.51175)" /><path
     id="path49905"
     style="fill:#ffffff;fill-rule:evenodd;stroke:none;stroke-width:0.765;stroke-linecap:round;stroke-linejoin:round"
     class="UnoptimicedTransforms"
     d="m 71.77288,133.8585 -0.932243,0.15037 -0.459403,1.26091 0.192236,0.80512 c -0.05802,0.004 -0.116959,0.0105 -0.176217,0.0201 l -4.782137,0.80719 -4.136698,-1.38131 c -0.173776,-0.0578 -0.360123,-0.0811 -0.542603,-0.076 -0.547438,0.0154 -1.062131,0.28835 -1.11466,0.66456 l -0.383956,2.50166 -4.131531,0.22376 v 2.66702 h 0.03411 c -0.122709,0.30066 0.09218,0.61678 0.597379,0.72295 l 4.33617,0.92087 1.686718,2.55644 c 0.280147,0.42879 1.269577,0.48472 1.835547,0.10438 l 3.348116,-2.25671 4.925798,-0.36845 c 0.604965,-0.0423 1.035587,-0.33719 1.073319,-0.65112 8.2e-5,-6.9e-4 -7.8e-5,-0.001 0,-0.002 0.0033,-0.0283 0.0033,-0.0568 0,-0.0853 v -2.74557 l -0.624768,-0.0718 -1.85415,-0.15142 1.077453,-2.60294 c 0.01853,-0.0464 0.02887,-0.0922 0.03152,-0.13694 v -0.0424 z"
     transform="translate(-55.03082,-129.4831)" /><path
     id="path49907"
     style="fill:#808080;fill-opacity:1;fill-rule:evenodd;stroke:none;stroke-width:0.765;stroke-linecap:round;stroke-linejoin:round"
     class="UnoptimicedTransforms"
     d="m 71.77288,133.8585 -0.932243,0.15037 -0.459403,1.26091 0.192236,0.80512 c -0.05802,0.004 -0.116959,0.0105 -0.176217,0.0201 l -4.782137,0.80719 -4.136698,-1.38131 c -0.173776,-0.0578 -0.360123,-0.0811 -0.542603,-0.076 -0.547438,0.0154 -1.062131,0.28835 -1.11466,0.66456 l -0.383956,2.50166 -4.131531,0.22376 v 2.66702 h 0.03411 c -0.122709,0.30066 0.09218,0.61678 0.597379,0.72295 l 4.33617,0.92087 1.686718,2.55644 c 0.280147,0.42879 1.269577,0.48472 1.835547,0.10438 l 3.348116,-2.25671 4.925798,-0.36845 c 0.604965,-0.0423 1.035587,-0.33719 1.073319,-0.65112 8.2e-5,-6.9e-4 -7.8e-5,-0.001 0,-0.002 0.0033,-0.0283 0.0033,-0.0568 0,-0.0853 v -2.74557 l -0.624768,-0.0718 -1.85415,-0.15142 1.077453,-2.60294 c 0.01853,-0.0464 0.02887,-0.0922 0.03152,-0.13694 v -0.0424 z"
     transform="translate(-55.03082,-130.16743)" /><path
     id="path49909"
     style="fill:#e6e6e6;fill-opacity:1;fill-rule:evenodd;stroke:none;stroke-width:0.765;stroke-linecap:round;stroke-linejoin:round"
     d="m 71.741104,136.87129 -1.191786,2.87972 2.450497,2.422 c 0.41053,0.40699 -0.09265,0.94983 -0.930186,1.00834 l -4.925783,0.36832 -3.348502,2.25702 c -0.565972,0.38034 -1.554982,0.32438 -1.835129,-0.10441 l -1.686663,-2.55633 -4.336325,-0.92105 c -0.727271,-0.15284 -0.853933,-0.74101 -0.235994,-1.09135 l 3.667356,-2.07293 0.452492,-2.95098 c 0.07004,-0.50161 0.962161,-0.81991 1.657265,-0.58855 l 4.136881,1.38122 4.781835,-0.807 c 0.812673,-0.13286 1.539403,0.28671 1.344042,0.77598 z"
     class="UnoptimicedTransforms"
     transform="translate(-55.00667,-132.93901)" /></svg>
