<?xml version="1.0" encoding="UTF-8" standalone="no"?>
<!-- Created with Inkscape (http://www.inkscape.org/) -->

<svg
   width="874.56708"
   height="645.02454"
   viewBox="0 0 231.39587 170.66274"
   version="1.1"
   id="svg5"
   xml:space="preserve"
   xmlns="http://www.w3.org/2000/svg"
   xmlns:svg="http://www.w3.org/2000/svg"><defs
     id="defs2"><rect
       x="1665.8032"
       y="175.7682"
       width="872.18317"
       height="298.27332"
       id="rect5677" /><rect
       x="1805.6189"
       y="150.46825"
       width="732.36755"
       height="332.89432"
       id="rect5671" /><rect
       x="1665.8032"
       y="175.7682"
       width="872.18317"
       height="298.27332"
       id="rect8036" /><rect
       x="1665.8032"
       y="175.7682"
       width="872.18317"
       height="298.27332"
       id="rect836" /><rect
       x="1665.8032"
       y="175.7682"
       width="872.18317"
       height="298.27332"
       id="rect52157" /><rect
       x="1665.8032"
       y="175.7682"
       width="872.18317"
       height="298.27332"
       id="rect52175" /><rect
       x="1665.8032"
       y="175.7682"
       width="872.18317"
       height="298.27332"
       id="rect52345" /></defs><g
     id="layer1"><text
       xml:space="preserve"
       transform="scale(0.26458333)"
       id="text5669"
       style="font-style:normal;font-weight:normal;font-size:40px;line-height:1.25;font-family:sans-serif;white-space:pre;shape-inside:url(#rect5671);display:inline;fill:#000000;fill-opacity:1;stroke:none" /><g
       id="g54887"><path
         id="rect38720"
         style="opacity:1;mix-blend-mode:normal;fill:#2affd5;fill-opacity:1;fill-rule:evenodd;stroke:none;stroke-width:0.764999;stroke-linecap:round;stroke-linejoin:round;stroke-dasharray:none;stroke-opacity:0.866667"
         d="m 11.764296,-11.764296 h 90.750424 c 27.87041,0 50.30786,-22.437448 50.30786,-50.307851 0,-24.776471 -17.7327,-45.257663 -41.2505,-49.499933 z"
         transform="rotate(45)" /><rect
         style="opacity:0.751046;fill:#2affd5;fill-opacity:1;fill-rule:evenodd;stroke:none;stroke-width:0.765;stroke-linecap:round;stroke-linejoin:round;stroke-dasharray:none;stroke-opacity:0.866667"
         id="rect34104"
         width="133.879"
         height="66.939499"
         x="57.40897"
         y="2.689172"
         ry="33.469749"
         transform="rotate(45)" /><rect
         style="opacity:0.751046;fill:#00b6e5;fill-opacity:0.698039;fill-rule:evenodd;stroke:none;stroke-width:0.765003;stroke-linecap:round;stroke-linejoin:round;stroke-dasharray:none;stroke-opacity:0.866667"
         id="rect34106"
         width="101.70082"
         height="50.85041"
         x="40.028313"
         y="-22.736032"
         ry="25.425205"
         transform="rotate(45)" /><rect
         style="opacity:0.751046;fill:#2affd5;fill-opacity:1;fill-rule:evenodd;stroke:none;stroke-width:0.765002;stroke-linecap:round;stroke-linejoin:round;stroke-dasharray:none;stroke-opacity:0.866667"
         id="rect34108"
         width="39.468475"
         height="19.734238"
         x="152.62616"
         y="-106.14635"
         ry="9.8671188"
         transform="rotate(45)" /><rect
         style="opacity:0.751046;fill:#00b7e6;fill-opacity:0.52549;fill-rule:evenodd;stroke:none;stroke-width:0.765002;stroke-linecap:round;stroke-linejoin:round;stroke-dasharray:none;stroke-opacity:0.866667"
         id="rect34110"
         width="76.398582"
         height="38.199287"
         x="111.14378"
         y="-96.678032"
         ry="19.099644"
         transform="rotate(45)" /><rect
         style="opacity:0.751046;fill:#2affd5;fill-opacity:1;fill-rule:evenodd;stroke:none;stroke-width:0.765002;stroke-linecap:round;stroke-linejoin:round;stroke-dasharray:none;stroke-opacity:0.866667"
         id="rect34745"
         width="31.725069"
         height="15.862535"
         x="172.70158"
         y="-55.145969"
         ry="7.9312668"
         transform="rotate(45)" /><path
         id="rect34765"
         style="opacity:0.751046;fill:#00b6e5;fill-opacity:0.698039;fill-rule:evenodd;stroke-width:0.765003;stroke-linecap:round;stroke-linejoin:round;stroke-opacity:0.866667"
         d="M 44.203718,44.203718 92.966991,92.966991 C 101.98159,89.066412 108.2593,80.108033 108.2593,69.62841 c 0,-14.08555 -11.339511,-25.425058 -25.425061,-25.425058 z"
         transform="rotate(45)" /><rect
         style="opacity:0.751046;fill:#00b6e5;fill-opacity:0.698039;fill-rule:evenodd;stroke:none;stroke-width:0.765002;stroke-linecap:round;stroke-linejoin:round;stroke-dasharray:none;stroke-opacity:0.866667"
         id="rect34767"
         width="63.626503"
         height="31.813251"
         x="173.85005"
         y="-25.067389"
         ry="15.906626"
         transform="rotate(45)" /><path
         style="opacity:1;fill:none;fill-opacity:1;fill-rule:evenodd;stroke:#cccccc;stroke-width:0.357684;stroke-linecap:round;stroke-linejoin:round;stroke-dasharray:none;stroke-opacity:1"
         id="path48071"
         d="m 189.56094,90.845908 0.0959,2.934805 2.11682,2.035026 -2.76153,0.998101 -1.2813,2.642075 -1.80261,-2.317944 -2.9087,-0.402134 1.64746,-2.430669 -0.51639,-2.890608 2.8208,0.815708 z"
         transform="matrix(2.9568768,-0.10808476,0.10808476,2.9568768,-346.54053,-225.78483)" /><path
         style="fill:none;stroke:#cccccc;stroke-width:1.05833;stroke-linecap:butt;stroke-linejoin:miter;stroke-dasharray:none;stroke-opacity:1"
         d="m 199.53815,105.34668 8.48496,2.27353 -2.27353,-8.484958 -8.48497,-2.27354 z"
         id="path48179" /><path
         style="fill:none;stroke:#cccccc;stroke-width:1.05833;stroke-linecap:butt;stroke-linejoin:miter;stroke-dasharray:none;stroke-opacity:1"
         d="m 208.02311,107.62021 -6.21142,6.21143 -8.48496,-2.27353 6.21142,-6.21143 z"
         id="path48181" /><path
         style="fill:none;stroke:#cccccc;stroke-width:1.05833;stroke-linecap:butt;stroke-linejoin:miter;stroke-dasharray:none;stroke-opacity:1"
         d="m 193.32673,111.55811 -2.27355,-8.48498 6.21143,-6.211418 2.27354,8.484968 z"
         id="path48183" /><path
         style="opacity:1;fill:none;fill-opacity:1;fill-rule:evenodd;stroke:#cccccc;stroke-width:0.919835;stroke-linecap:round;stroke-linejoin:round;stroke-dasharray:none;stroke-opacity:1"
         id="path49406"
         d="m 189.56094,90.845908 0.0959,2.934805 2.11682,2.035026 -2.76153,0.998101 -1.2813,2.642075 -1.80261,-2.317944 -2.9087,-0.402134 1.64746,-2.430669 -0.51639,-2.890608 2.8208,0.815708 z"
         transform="matrix(0.87740799,0.74428792,-0.74428792,0.87740799,102.06556,-193.59655)" /><path
         style="opacity:1;fill:none;fill-opacity:1;fill-rule:evenodd;stroke:#cccccc;stroke-width:0.752836;stroke-linecap:round;stroke-linejoin:round;stroke-dasharray:none;stroke-opacity:1"
         id="path49408"
         d="m 189.56094,90.845908 0.0959,2.934805 2.11682,2.035026 -2.76153,0.998101 -1.2813,2.642075 -1.80261,-2.317944 -2.9087,-0.402134 1.64746,-2.430669 -0.51639,-2.890608 2.8208,0.815708 z"
         transform="matrix(1.4048575,-0.05135273,0.05135273,1.4048575,-57.978207,-112.45668)" /><path
         style="fill:none;stroke:#cccccc;stroke-width:1.05833;stroke-linecap:butt;stroke-linejoin:miter;stroke-dasharray:none;stroke-opacity:1"
         d="m 34.627054,148.31912 -13.76613,7.94788 22.02578,6.3583 2.75324,-1.58958 z"
         id="path49410" /><path
         style="fill:none;stroke:#cccccc;stroke-width:1.05833;stroke-linecap:butt;stroke-linejoin:miter;stroke-dasharray:none;stroke-opacity:1"
         d="m 45.639944,161.03572 -16.51932,-9.53744 -2.75325,1.58957 16.51933,9.53745"
         id="path49412" /><path
         style="fill:none;stroke:#cccccc;stroke-width:1.05833;stroke-linecap:butt;stroke-linejoin:round;stroke-dasharray:none;stroke-opacity:1"
         d="m 42.886704,162.6253 -13.76608,-1.58958 -2.02067,-2.96766 z"
         id="path49414" /><rect
         style="opacity:1;fill:none;fill-opacity:1;fill-rule:evenodd;stroke:#cccccc;stroke-width:1.05833;stroke-linecap:round;stroke-linejoin:round;stroke-dasharray:none;stroke-opacity:1"
         id="rect49416"
         width="9.5543537"
         height="5.9049144"
         x="190.48615"
         y="30.926826"
         ry="0.20701997"
         transform="rotate(39.854468)" /><path
         style="fill:none;stroke:#cccccc;stroke-width:1.05833;stroke-linecap:butt;stroke-linejoin:round;stroke-dasharray:none;stroke-opacity:1"
         d="m 133.74686,151.93564 -7.17571,-5.99015 1.32708,5.54178 z"
         id="path49420" /><rect
         style="opacity:1;fill:none;fill-opacity:1;fill-rule:evenodd;stroke:#cccccc;stroke-width:1.05833;stroke-linecap:round;stroke-linejoin:round;stroke-dasharray:none;stroke-opacity:1"
         id="rect49491"
         width="12.518801"
         height="7.737042"
         x="130.70676"
         y="-99.260864"
         ry="0.27125239"
         transform="rotate(69.893264)" /><path
         style="fill:none;stroke:#cccccc;stroke-width:1.05833;stroke-linecap:butt;stroke-linejoin:round;stroke-dasharray:none;stroke-opacity:1"
         d="m 142.44793,100.37357 -4.21033,-11.501106 -2.12959,7.156383 z"
         id="path49493" /></g></g></svg>
