<?xml version="1.0" encoding="UTF-8" standalone="no"?>
<!-- Created with Inkscape (http://www.inkscape.org/) -->

<svg
   width="695.00995"
   height="731.9209"
   viewBox="0 0 183.88805 193.65407"
   version="1.1"
   id="svg5"
   xml:space="preserve"
   xmlns="http://www.w3.org/2000/svg"
   xmlns:svg="http://www.w3.org/2000/svg"><defs
     id="defs2"><rect
       x="1665.8032"
       y="175.7682"
       width="872.18317"
       height="298.27332"
       id="rect5677" /><rect
       x="1805.6189"
       y="150.46825"
       width="732.36755"
       height="332.89432"
       id="rect5671" /><rect
       x="1665.8032"
       y="175.7682"
       width="872.18317"
       height="298.27332"
       id="rect8036" /><rect
       x="1665.8032"
       y="175.7682"
       width="872.18317"
       height="298.27332"
       id="rect836" /><rect
       x="1665.8032"
       y="175.7682"
       width="872.18317"
       height="298.27332"
       id="rect52157" /><rect
       x="1665.8032"
       y="175.7682"
       width="872.18317"
       height="298.27332"
       id="rect52175" /><rect
       x="1665.8032"
       y="175.7682"
       width="872.18317"
       height="298.27332"
       id="rect52345" /></defs><g
     id="layer1"
     transform="translate(251.5591,138.38604)"><text
       xml:space="preserve"
       transform="scale(0.26458333)"
       id="text5669"
       style="font-style:normal;font-weight:normal;font-size:40px;line-height:1.25;font-family:sans-serif;white-space:pre;shape-inside:url(#rect5671);display:inline;fill:#000000;fill-opacity:1;stroke:none" /><rect
       style="opacity:0.751046;fill:#2affd5;fill-opacity:1;fill-rule:evenodd;stroke:none;stroke-width:0.765;stroke-linecap:round;stroke-linejoin:round;stroke-dasharray:none;stroke-opacity:0.866667"
       id="rect34104"
       width="97.538567"
       height="48.769283"
       x="-191.20139"
       y="109.6059"
       ry="24.384642"
       transform="rotate(45)" /><rect
       style="opacity:0.751046;fill:#00b6e5;fill-opacity:0.698039;fill-rule:evenodd;stroke:none;stroke-width:0.765;stroke-linecap:round;stroke-linejoin:round;stroke-dasharray:none;stroke-opacity:0.866667"
       id="rect34106"
       width="74.09491"
       height="37.047455"
       x="-196.21655"
       y="92.375977"
       ry="18.523727"
       transform="rotate(45)" /><rect
       style="opacity:0.751046;fill:#2affd5;fill-opacity:1;fill-rule:evenodd;stroke:none;stroke-width:0.765;stroke-linecap:round;stroke-linejoin:round;stroke-dasharray:none;stroke-opacity:0.866667"
       id="rect34108"
       width="28.75506"
       height="14.37753"
       x="-114.18253"
       y="31.606758"
       ry="7.188765"
       transform="rotate(45)" /><rect
       style="opacity:0.751046;fill:#00b7e6;fill-opacity:0.52549;fill-rule:evenodd;stroke:none;stroke-width:0.765;stroke-linecap:round;stroke-linejoin:round;stroke-dasharray:none;stroke-opacity:0.866667"
       id="rect34110"
       width="55.66077"
       height="27.830383"
       x="-144.40483"
       y="38.504971"
       ry="13.915192"
       transform="rotate(45)" /><rect
       style="opacity:0.751046;fill:#2affd5;fill-opacity:1;fill-rule:evenodd;stroke:none;stroke-width:0.765;stroke-linecap:round;stroke-linejoin:round;stroke-dasharray:none;stroke-opacity:0.866667"
       id="rect34745"
       width="34.893375"
       height="11.556771"
       x="-127.65414"
       y="61.312992"
       ry="5.7783852"
       transform="rotate(45)" /><rect
       style="opacity:0.751046;fill:#00b6e5;fill-opacity:0.698039;fill-rule:evenodd;stroke:none;stroke-width:0.638738;stroke-linecap:round;stroke-linejoin:round;stroke-dasharray:none;stroke-opacity:0.866667"
       id="rect34767"
       width="38.704575"
       height="19.352287"
       x="-94.894188"
       y="92.590202"
       ry="9.6761436"
       transform="rotate(45)" /><path
       style="fill:#2affd5;fill-opacity:1;fill-rule:evenodd;stroke:#2affd5;stroke-width:0.490948;stroke-linecap:round;stroke-linejoin:round;stroke-dasharray:none;stroke-opacity:1"
       id="path48071"
       d="m 189.56094,90.845908 0.0959,2.934805 2.11682,2.035026 -2.76153,0.998101 -1.2813,2.642075 -1.80261,-2.317944 -2.9087,-0.402134 1.64746,-2.430669 -0.51639,-2.890608 2.8208,0.815708 z"
       transform="matrix(2.1542553,-0.07874598,0.07874598,2.1542553,-488.87468,-246.83208)" /><path
       id="path48179"
       style="fill:#2affd5;fill-opacity:1;stroke:#2affd5;stroke-width:0.258;stroke-linecap:butt;stroke-linejoin:round;stroke-dasharray:none;stroke-opacity:1"
       d="m -92.090798,-11.607389 1.499134,5.5919064 5.590873,1.49965 -1.498617,-5.5934574 z m -1.021643,0.272851 -4.094323,4.0943239 1.498616,5.5924235 4.092774,-4.0943237 z m 2.245341,6.3401817 -4.092256,4.0943237 5.590873,1.49809977 4.09329,-4.09329017 z" /><path
       style="fill:none;fill-opacity:1;fill-rule:evenodd;stroke:#cccccc;stroke-width:1.26254;stroke-linecap:round;stroke-linejoin:round;stroke-dasharray:none;stroke-opacity:1"
       id="path49406"
       d="m 189.56094,90.845908 0.0959,2.934805 2.11682,2.035026 -2.76153,0.998101 -1.2813,2.642075 -1.80261,-2.317944 -2.9087,-0.402134 1.64746,-2.430669 -0.51639,-2.890608 2.8208,0.815708 z"
       transform="matrix(0.63924231,0.54225667,-0.54225667,0.63924231,-162.03927,-223.38106)" /><path
       style="fill:none;fill-opacity:1;fill-rule:evenodd;stroke:#cccccc;stroke-width:1.03332;stroke-linecap:round;stroke-linejoin:round;stroke-dasharray:none;stroke-opacity:1"
       id="path49408"
       d="m 189.56094,90.845908 0.0959,2.934805 2.11682,2.035026 -2.76153,0.998101 -1.2813,2.642075 -1.80261,-2.317944 -2.9087,-0.402134 1.64746,-2.430669 -0.51639,-2.890608 2.8208,0.815708 z"
       transform="matrix(1.0235197,-0.03741342,0.03741342,1.0235197,-278.64039,-164.26598)" /><path
       style="fill:none;stroke:#cccccc;stroke-width:1.05833;stroke-linecap:butt;stroke-linejoin:round;stroke-dasharray:none;stroke-opacity:1"
       d="m -215.28158,17.412777 -10.84351,4.066612 15.06963,7.202288 2.16871,-0.813318 z"
       id="path49410" /><path
       style="fill:none;stroke:#cccccc;stroke-width:1.05833;stroke-linecap:butt;stroke-linejoin:round;stroke-dasharray:none;stroke-opacity:1"
       d="m -211.05546,28.681677 -9.70349,-2.787826 -1.09751,-2.374333 z"
       id="path49414" /><rect
       style="fill:none;fill-opacity:1;fill-rule:evenodd;stroke:#cccccc;stroke-width:1.05833;stroke-linecap:round;stroke-linejoin:round;stroke-dasharray:none;stroke-opacity:1"
       id="rect49416"
       width="6.9608974"
       height="4.3020706"
       x="-99.025986"
       y="110.47549"
       ry="0.15082599"
       transform="rotate(39.854468)" /><path
       style="fill:none;stroke:#cccccc;stroke-width:1.05833;stroke-linecap:butt;stroke-linejoin:round;stroke-dasharray:none;stroke-opacity:1"
       d="m -141.47313,25.810249 -5.22792,-4.364169 0.96686,4.037506 z"
       id="path49420" /><path
       id="rect49491"
       style="fill:#2affd5;fill-opacity:1;fill-rule:evenodd;stroke:#2affd5;stroke-width:0.094;stroke-linecap:round;stroke-linejoin:round;stroke-dasharray:none;stroke-opacity:1"
       d="m -136.95752,-18.434582 -4.56303,1.670184 c -0.0987,0.03614 -0.14931,0.145179 -0.11317,0.243911 l 2.88096,7.8682562 c 0.0361,0.098731 0.14466,0.1493141 0.2434,0.1131701 l 4.56251,-1.6706983 -4.26072,-2.919203 a 0.29702969,0.29702969 0 0 1 -0.11937,-0.324012 z m 0.5178,0.355534 -1.25832,4.579048 3.91759,2.684076 z" /><path
       id="rect624"
       style="opacity:0.751046;fill:#2affd5;fill-opacity:1;fill-rule:evenodd;stroke:none;stroke-width:0.315301;stroke-linecap:round;stroke-linejoin:round;stroke-dasharray:none;stroke-opacity:0.866667"
       d="m -251.5591,10.724755 v 8.068233 l 35.63691,35.636905 c 1.11751,1.117513 2.91661,1.117513 4.03412,5e-6 1.11751,-1.117513 1.11751,-2.916608 -1e-5,-4.034122 z" /><rect
       style="opacity:0.751046;fill:#2affd5;fill-opacity:1;fill-rule:evenodd;stroke:none;stroke-width:0.118039;stroke-linecap:round;stroke-linejoin:round;stroke-dasharray:none;stroke-opacity:0.866667"
       id="rect628"
       width="53.022453"
       height="2.1359186"
       x="-181.67006"
       y="82.640556"
       ry="1.0679594"
       transform="rotate(45)" /><path
       id="rect684"
       style="opacity:0.751046;fill:#00b7e6;fill-opacity:0.52549;fill-rule:evenodd;stroke:none;stroke-width:0.0674004;stroke-linecap:round;stroke-linejoin:round;stroke-dasharray:none;stroke-opacity:0.866667"
       d="m -251.5591,-78.680948 v 1.724712 l 7.46397,7.463966 c 0.23888,0.238883 0.62366,0.238883 0.86254,0 0.23888,-0.238884 0.23888,-0.623284 0,-0.862168 z" /><path
       id="rect1031"
       style="opacity:0.751046;fill:#00b6e5;fill-opacity:0.698039;fill-rule:evenodd;stroke:none;stroke-width:1.27591;stroke-linecap:round;stroke-linejoin:round;stroke-dasharray:none;stroke-opacity:0.866667"
       d="m -251.5591,-63.079848 v 81.086339 c 10.13263,2.488422 21.262,-0.240161 29.2083,-8.1864533 12.1026,-12.102601 12.1026,-31.5889877 0,-43.6915887 z" /><rect
       style="opacity:0.751046;fill:#00b7e6;fill-opacity:0.52549;fill-rule:evenodd;stroke:none;stroke-width:0.243093;stroke-linecap:round;stroke-linejoin:round;stroke-dasharray:none;stroke-opacity:0.866667"
       id="rect1033"
       width="17.687248"
       height="8.8436241"
       x="-233.85773"
       y="72.179008"
       ry="4.4218121"
       transform="rotate(45)" /><rect
       style="opacity:0.751046;fill:#2bffd6;fill-opacity:0.752941;fill-rule:evenodd;stroke:none;stroke-width:0.453418;stroke-linecap:round;stroke-linejoin:round;stroke-dasharray:none;stroke-opacity:0.866667"
       id="rect1035"
       width="38.213802"
       height="16.498907"
       x="-252.10219"
       y="79.635468"
       ry="8.2494535"
       transform="matrix(0.73047976,0.68293434,-0.67449032,0.73828369,0,0)" /><rect
       style="opacity:0.751046;fill:#00b7e6;fill-opacity:0.52549;fill-rule:evenodd;stroke:none;stroke-width:0.453403;stroke-linecap:round;stroke-linejoin:round;stroke-dasharray:none;stroke-opacity:0.866667"
       id="rect1037"
       width="42.775883"
       height="16.494625"
       x="-190.90741"
       y="48.608395"
       ry="8.2473125"
       transform="rotate(45)" /><path
       id="rect1039"
       style="opacity:0.751046;fill:#2affd5;fill-opacity:1;fill-rule:evenodd;stroke:none;stroke-width:0.118039;stroke-linecap:round;stroke-linejoin:round;stroke-dasharray:none;stroke-opacity:0.866667"
       d="m -251.5591,-88.150113 v 3.0206 l 23.6795,23.679502 c 0.41836,0.418358 1.09176,0.418359 1.51012,0 0.41835,-0.418359 0.41835,-1.092128 0,-1.510491 z" /><rect
       style="fill:none;fill-opacity:1;fill-rule:evenodd;stroke:#cccccc;stroke-width:0.658;stroke-linecap:round;stroke-linejoin:round;stroke-dasharray:none;stroke-opacity:1"
       id="rect2093"
       width="6.1381803"
       height="3.7936032"
       x="-126.0865"
       y="84.217285"
       ry="0.13299966"
       transform="rotate(39.854469)" /><path
       style="fill:none;stroke:#cccccc;stroke-width:0.658;stroke-linecap:butt;stroke-linejoin:round;stroke-dasharray:none;stroke-opacity:1"
       d="m -146.0511,-12.216191 -4.61001,-3.848355 0.85257,3.560307 z"
       id="path2095" /><rect
       style="opacity:0.751046;fill:#000000;fill-opacity:0;fill-rule:evenodd;stroke:none;stroke-width:0.118039;stroke-linecap:round;stroke-linejoin:round;stroke-dasharray:none;stroke-opacity:0.866667"
       id="rect3023"
       width="53.022453"
       height="2.1359186"
       x="-172.74641"
       y="81.012947"
       ry="1.0679594"
       transform="rotate(45)" /><path
       id="rect3240"
       style="opacity:0.751046;fill:#00b7e6;fill-opacity:0.52549;fill-rule:evenodd;stroke:none;stroke-width:0.453403;stroke-linecap:round;stroke-linejoin:round;stroke-dasharray:none;stroke-opacity:0.866667"
       d="m -251.5591,-96.792876 v 23.326726 c 3.23078,3.230776 8.43259,3.230776 11.66337,0 3.23077,-3.230775 3.23077,-8.432588 0,-11.663363 z" /><path
       style="fill:none;stroke:#cccccc;stroke-width:0.442991;stroke-linecap:butt;stroke-linejoin:round;stroke-dasharray:none;stroke-opacity:1"
       d="m -99.516763,-15.915086 1.782599,-2.000736 -2.623976,-0.543402 -1.7826,2.000736 z"
       id="path3543" /><path
       style="fill:none;stroke:#cccccc;stroke-width:0.442991;stroke-linecap:butt;stroke-linejoin:round;stroke-dasharray:none;stroke-opacity:1"
       d="m -97.734164,-17.915822 0.841418,2.544124 -1.782584,2.000736 -0.841425,-2.544124 z"
       id="path3545" /><path
       style="fill:none;stroke:#cccccc;stroke-width:0.442991;stroke-linecap:butt;stroke-linejoin:round;stroke-dasharray:none;stroke-opacity:1"
       d="m -98.675359,-13.370955 -2.623991,-0.543395 -0.84136,-2.544152 2.623984,0.543402 z"
       id="path3547" /><path
       style="fill:none;stroke:#cccccc;stroke-width:0.604874;stroke-linecap:butt;stroke-linejoin:round;stroke-dasharray:none;stroke-opacity:1"
       d="m -102.24056,4.1059774 3.506246,-1.0458809 -2.658876,-2.51353121 -3.50624,1.04586641 z"
       id="path3549" /><path
       style="fill:none;stroke:#cccccc;stroke-width:0.604874;stroke-linecap:butt;stroke-linejoin:round;stroke-dasharray:none;stroke-opacity:1"
       d="m -98.734314,3.0600965 -0.847319,3.559434 -3.506217,1.0458883 0.8473,-3.5594341 z"
       id="path3551" /><path
       style="fill:none;stroke:#cccccc;stroke-width:0.604874;stroke-linecap:butt;stroke-linejoin:round;stroke-dasharray:none;stroke-opacity:1"
       d="m -103.0879,7.6653969 -2.65888,-2.5135458 0.84741,-3.5594121 2.65887,2.5135457 z"
       id="path3553" /><rect
       style="opacity:0.562802;fill:#2affd5;fill-opacity:1;fill-rule:evenodd;stroke:none;stroke-width:1.22354;stroke-linecap:round;stroke-linejoin:round;stroke-dasharray:none;stroke-opacity:0.866667"
       id="rect4426"
       width="77.24366"
       height="22.995398"
       x="-198.46045"
       y="-2.9604557"
       ry="11.497699"
       transform="rotate(45)" /><rect
       style="opacity:0.751046;fill:#00b8e6;fill-opacity:0.396078;fill-rule:evenodd;stroke:none;stroke-width:0.0758822;stroke-linecap:round;stroke-linejoin:round;stroke-dasharray:none;stroke-opacity:0.866667"
       id="rect4428"
       width="34.085777"
       height="1.3730872"
       x="-189.21581"
       y="75.823151"
       ry="0.6865437"
       transform="rotate(45)" /><rect
       style="opacity:0.751046;fill:#00b8e6;fill-opacity:0.396078;fill-rule:evenodd;stroke:none;stroke-width:0.057461;stroke-linecap:round;stroke-linejoin:round;stroke-dasharray:none;stroke-opacity:0.866667"
       id="rect4430"
       width="25.811155"
       height="1.0397582"
       x="-147.05345"
       y="29.397161"
       ry="0.51987916"
       transform="rotate(45)" /><rect
       style="opacity:0.751046;fill:#2affd5;fill-opacity:1;fill-rule:evenodd;stroke:none;stroke-width:0.0432478;stroke-linecap:round;stroke-linejoin:round;stroke-dasharray:none;stroke-opacity:0.866667"
       id="rect4432"
       width="19.426647"
       height="0.78256917"
       x="-149.68713"
       y="25.475794"
       ry="0.39128461"
       transform="rotate(45)" /><rect
       style="opacity:0.751046;fill:#2affd5;fill-opacity:1;fill-rule:evenodd;stroke:none;stroke-width:0.662522;stroke-linecap:round;stroke-linejoin:round;stroke-dasharray:none;stroke-opacity:0.866667"
       id="rect4739"
       width="64.168922"
       height="32.084461"
       x="-233.94904"
       y="29.730511"
       ry="16.042231"
       transform="rotate(45)" /><rect
       style="opacity:0.751046;fill:#2affd5;fill-opacity:1;fill-rule:evenodd;stroke:none;stroke-width:0.118039;stroke-linecap:round;stroke-linejoin:round;stroke-dasharray:none;stroke-opacity:0.866667"
       id="rect4879"
       width="31.803743"
       height="1.2811593"
       x="-173.29639"
       y="71.909256"
       ry="0.64057976"
       transform="rotate(45)" /><path
       style="fill:none;stroke:#cccccc;stroke-width:1.05833;stroke-linecap:butt;stroke-linejoin:round;stroke-dasharray:none;stroke-opacity:1"
       d="m -212.28021,33.307865 -7.17701,1.767926 6.8632,5.714114 1.43541,-0.353577 z"
       id="path5934" /><path
       style="fill:none;stroke:none;stroke-width:0.264583px;stroke-linecap:butt;stroke-linejoin:miter;stroke-opacity:1"
       d="m -192.24985,37.996746 -8.20234,-4.007067"
       id="path6356" /><path
       style="fill:none;stroke:#cccccc;stroke-width:1.05833;stroke-linecap:butt;stroke-linejoin:round;stroke-dasharray:none;stroke-opacity:1"
       d="m -209.98458,28.280067 -10.28073,-8.998263"
       id="path6429" /><path
       style="fill:none;stroke:#cccccc;stroke-width:1.05833;stroke-linecap:butt;stroke-linejoin:round;stroke-dasharray:none;stroke-opacity:1"
       d="m -212.022,40.649002 -3.48448,-6.476667"
       id="path6431" /><path
       id="path6435"
       style="fill:#2bffd6;fill-opacity:1;stroke:#2bffd6;stroke-width:0.264583px;stroke-linecap:butt;stroke-linejoin:round;stroke-opacity:1"
       d="m -199.27024,30.089688 -2.67809,2.623536 5.91279,5.912777 0.2566,-0.256605 z m -3.19885,3.133191 -0.70109,0.686935 -1.95526,1.955267 8.36911,3.481711 0.20557,-0.205577 z" /><path
       id="rect7603"
       style="opacity:0.751046;fill:#2affd5;fill-opacity:1;fill-rule:evenodd;stroke:none;stroke-width:0.662521;stroke-linecap:round;stroke-linejoin:round;stroke-dasharray:none;stroke-opacity:0.866667"
       d="M -251.5591,-121.35763 V -101 c 2.81954,2.819545 7.35928,2.819545 10.17882,0 2.81954,-2.81953 2.81954,-7.35928 0,-10.17881 z" /><rect
       style="opacity:0.751046;fill:#00b7e6;fill-opacity:0.52549;fill-rule:evenodd;stroke:none;stroke-width:0.453403;stroke-linecap:round;stroke-linejoin:round;stroke-dasharray:none;stroke-opacity:0.866667"
       id="rect7967"
       width="38.638573"
       height="14.899255"
       x="-178.90527"
       y="-12.044214"
       ry="7.4496274"
       transform="rotate(45)" /><rect
       style="opacity:0.751046;fill:#2bffd6;fill-opacity:0.752941;fill-rule:evenodd;stroke:none;stroke-width:0.454166;stroke-linecap:round;stroke-linejoin:round;stroke-dasharray:none;stroke-opacity:0.866667"
       id="rect8920"
       width="38.301098"
       height="7.6654773"
       x="-234.98672"
       y="65.815079"
       ry="3.8327386"
       transform="matrix(0.71800013,0.69604297,-0.634907,0.77258857,0,0)" /><path
       id="rect49491-3"
       style="fill:#2affd5;fill-opacity:1;fill-rule:evenodd;stroke:#2affd5;stroke-width:0.094;stroke-linecap:round;stroke-linejoin:round;stroke-dasharray:none;stroke-opacity:1"
       d="m -148.14923,30.621484 -4.97354,1.82044 c -0.10758,0.03939 -0.16274,0.15824 -0.12335,0.265854 l 3.14014,8.576115 c 0.0394,0.107612 0.15767,0.162746 0.2653,0.123351 l 4.97297,-1.821001 -4.64403,-3.181825 a 0.32375161,0.32375161 0 0 1 -0.13011,-0.353162 z m 0.56438,0.387519 -1.37152,4.990997 4.27003,2.925545 z" /><rect
       style="opacity:0.751046;fill:#00b7e6;fill-opacity:0.52549;fill-rule:evenodd;stroke:none;stroke-width:0.453403;stroke-linecap:round;stroke-linejoin:round;stroke-dasharray:none;stroke-opacity:0.866667"
       id="rect5699"
       width="38.638573"
       height="14.899255"
       x="-243.72366"
       y="43.713589"
       ry="7.4496274"
       transform="rotate(45)" /><rect
       style="opacity:0.751046;fill:#00b7e6;fill-opacity:0.52549;fill-rule:evenodd;stroke:none;stroke-width:0.453403;stroke-linecap:round;stroke-linejoin:round;stroke-dasharray:none;stroke-opacity:0.866667"
       id="rect5701"
       width="36.906509"
       height="3.4395952"
       x="-208.66544"
       y="11.952799"
       ry="1.7197976"
       transform="rotate(45)" /><rect
       style="opacity:0.751046;fill:#00b7e6;fill-opacity:0.52549;fill-rule:evenodd;stroke:none;stroke-width:0.453403;stroke-linecap:round;stroke-linejoin:round;stroke-dasharray:none;stroke-opacity:0.866667"
       id="rect5703"
       width="24.311161"
       height="2.2657402"
       x="-201.98576"
       y="7.2618709"
       ry="1.1328701"
       transform="rotate(45)" /></g></svg>
