<?xml version="1.0" encoding="UTF-8" standalone="no"?>
<!-- Created with Inkscape (http://www.inkscape.org/) -->

<svg
   width="953.20813"
   height="1042.5668"
   viewBox="0 0 252.20298 275.84579"
   version="1.1"
   id="svg5"
   xml:space="preserve"
   xmlns="http://www.w3.org/2000/svg"
   xmlns:svg="http://www.w3.org/2000/svg"><defs
     id="defs2"><rect
       x="1665.8032"
       y="175.7682"
       width="872.18317"
       height="298.27332"
       id="rect5677" /><rect
       x="1805.6189"
       y="150.46825"
       width="732.36755"
       height="332.89432"
       id="rect5671" /><rect
       x="1665.8032"
       y="175.7682"
       width="872.18317"
       height="298.27332"
       id="rect8036" /><rect
       x="1665.8032"
       y="175.7682"
       width="872.18317"
       height="298.27332"
       id="rect836" /><rect
       x="1665.8032"
       y="175.7682"
       width="872.18317"
       height="298.27332"
       id="rect52157" /><rect
       x="1665.8032"
       y="175.7682"
       width="872.18317"
       height="298.27332"
       id="rect52175" /><rect
       x="1665.8032"
       y="175.7682"
       width="872.18317"
       height="298.27332"
       id="rect52345" /></defs><g
     id="layer1"
     transform="translate(285.78838,183.13964)"><text
       xml:space="preserve"
       transform="scale(0.26458333)"
       id="text5669"
       style="font-style:normal;font-weight:normal;font-size:40px;line-height:1.25;font-family:sans-serif;white-space:pre;shape-inside:url(#rect5671);display:inline;fill:#000000;fill-opacity:1;stroke:none" /><rect
       style="opacity:0.751046;fill:#2affd5;fill-opacity:1;fill-rule:evenodd;stroke:none;stroke-width:0.765;stroke-linecap:round;stroke-linejoin:round;stroke-dasharray:none;stroke-opacity:0.866667"
       id="rect34104"
       width="133.879"
       height="66.939499"
       x="-208.45631"
       y="120.28513"
       ry="33.469749"
       transform="rotate(45)" /><rect
       style="opacity:0.751046;fill:#00b6e5;fill-opacity:0.698039;fill-rule:evenodd;stroke:none;stroke-width:0.765003;stroke-linecap:round;stroke-linejoin:round;stroke-dasharray:none;stroke-opacity:0.866667"
       id="rect34106"
       width="101.70082"
       height="50.85041"
       x="-215.34"
       y="96.635765"
       ry="25.425205"
       transform="rotate(45)" /><rect
       style="opacity:0.751046;fill:#2affd5;fill-opacity:1;fill-rule:evenodd;stroke:none;stroke-width:0.765002;stroke-linecap:round;stroke-linejoin:round;stroke-dasharray:none;stroke-opacity:0.866667"
       id="rect34108"
       width="39.468475"
       height="19.734238"
       x="-102.74216"
       y="13.225453"
       ry="9.8671188"
       transform="rotate(45)" /><rect
       style="opacity:0.751046;fill:#00b7e6;fill-opacity:0.52549;fill-rule:evenodd;stroke:none;stroke-width:0.765002;stroke-linecap:round;stroke-linejoin:round;stroke-dasharray:none;stroke-opacity:0.866667"
       id="rect34110"
       width="76.398582"
       height="38.199287"
       x="-144.22453"
       y="22.693769"
       ry="19.099644"
       transform="rotate(45)" /><rect
       style="opacity:0.751046;fill:#2affd5;fill-opacity:1;fill-rule:evenodd;stroke:none;stroke-width:0.765002;stroke-linecap:round;stroke-linejoin:round;stroke-dasharray:none;stroke-opacity:0.866667"
       id="rect34745"
       width="47.893776"
       height="15.862535"
       x="-121.23296"
       y="53.999485"
       ry="7.9312668"
       transform="rotate(45)" /><rect
       style="opacity:0.751046;fill:#00b6e5;fill-opacity:0.698039;fill-rule:evenodd;stroke:none;stroke-width:0.638738;stroke-linecap:round;stroke-linejoin:round;stroke-dasharray:none;stroke-opacity:0.866667"
       id="rect34767"
       width="53.124931"
       height="26.562466"
       x="-76.267464"
       y="96.929802"
       ry="13.281233"
       transform="rotate(45)" /><path
       style="fill:#2affd5;fill-opacity:1;fill-rule:evenodd;stroke:#2affd5;stroke-width:0.357684;stroke-linecap:round;stroke-linejoin:round;stroke-dasharray:none;stroke-opacity:1"
       id="path48071"
       d="m 189.56094,90.845908 0.0959,2.934805 2.11682,2.035026 -2.76153,0.998101 -1.2813,2.642075 -1.80261,-2.317944 -2.9087,-0.402134 1.64746,-2.430669 -0.51639,-2.890608 2.8208,0.815708 z"
       transform="matrix(2.9568768,-0.10808476,0.10808476,2.9568768,-611.5218,-321.9489)" /><path
       id="path48179"
       style="fill:#2affd5;fill-opacity:1;stroke:#2affd5;stroke-width:0.258;stroke-linecap:butt;stroke-linejoin:round;stroke-dasharray:none;stroke-opacity:1"
       d="M -67.125758 0.85584747 L -65.009608 8.7499393 L -57.116033 10.866089 L -59.231666 2.9709638 L -67.125758 0.85584747 z M -68.148951 1.1302493 L -73.927927 6.9092247 L -71.81281 14.8028 L -66.033318 9.0233076 L -68.148951 1.1302493 z M -65.285043 9.7736494 L -71.065052 15.552108 L -63.16941 17.667741 L -57.389918 11.888249 L -65.285043 9.7736494 z " /><path
       style="fill:none;fill-opacity:1;fill-rule:evenodd;stroke:#cccccc;stroke-width:0.57189089;stroke-linecap:round;stroke-linejoin:round;stroke-dasharray:none;stroke-opacity:1"
       id="path49406"
       d="m 189.56094,90.845908 0.0959,2.934805 2.11682,2.035026 -2.76153,0.998101 -1.2813,2.642075 -1.80261,-2.317944 -2.9087,-0.402134 1.64746,-2.430669 -0.51639,-2.890608 2.8208,0.815708 z"
       transform="matrix(0.87740799,0.74428792,-0.74428792,0.87740799,-162.91571,-289.76062)" /><path
       style="fill:none;fill-opacity:1;fill-rule:evenodd;stroke:#cccccc;stroke-width:0.4680623;stroke-linecap:round;stroke-linejoin:round;stroke-dasharray:none;stroke-opacity:1"
       id="path49408"
       d="m 189.56094,90.845908 0.0959,2.934805 2.11682,2.035026 -2.76153,0.998101 -1.2813,2.642075 -1.80261,-2.317944 -2.9087,-0.402134 1.64746,-2.430669 -0.51639,-2.890608 2.8208,0.815708 z"
       transform="matrix(1.4048575,-0.05135273,0.05135273,1.4048575,-322.95948,-208.62074)" /><path
       style="fill:none;stroke:#cccccc;stroke-width:0.658;stroke-linecap:butt;stroke-linejoin:round;stroke-dasharray:none;stroke-opacity:1"
       d="m -235.99477,40.74697 -14.88353,5.58173 20.6842,9.88568 2.97672,-1.11634 z"
       id="path49410" /><path
       style="fill:none;stroke:#cccccc;stroke-width:0.658;stroke-linecap:butt;stroke-linejoin:round;stroke-dasharray:none;stroke-opacity:1"
       d="m -230.1941,56.21438 -13.31877,-3.8265 -1.50642,-3.25895 z"
       id="path49414" /><rect
       style="fill:none;fill-opacity:1;fill-rule:evenodd;stroke:#cccccc;stroke-width:0.658;stroke-linecap:round;stroke-linejoin:round;stroke-dasharray:none;stroke-opacity:1"
       id="rect49416"
       width="9.5543537"
       height="5.9049144"
       x="-79.451538"
       y="126.44164"
       ry="0.20701997"
       transform="rotate(39.854468)" /><path
       style="fill:none;stroke:#cccccc;stroke-width:0.658;stroke-linecap:butt;stroke-linejoin:round;stroke-dasharray:none;stroke-opacity:1"
       d="m -134.68714,52.27313 -7.17571,-5.99015 1.32708,5.54178 z"
       id="path49420" /><path
       id="rect624"
       style="opacity:0.751046;fill:#2affd5;fill-opacity:1;fill-rule:evenodd;stroke:none;stroke-width:0.315301;stroke-linecap:round;stroke-linejoin:round;stroke-dasharray:none;stroke-opacity:0.866667"
       d="m -285.78838,31.567159 v 11.074254 l 48.91432,48.914323 c 1.53387,1.533871 4.00327,1.533871 5.53714,7e-6 1.53387,-1.53387 1.53386,-4.003263 -1e-5,-5.537134 z" /><rect
       style="opacity:0.751046;fill:#2affd5;fill-opacity:1;fill-rule:evenodd;stroke:none;stroke-width:0.118039;stroke-linecap:round;stroke-linejoin:round;stroke-dasharray:none;stroke-opacity:0.866667"
       id="rect628"
       width="72.77729"
       height="2.9317083"
       x="-195.37386"
       y="83.273163"
       ry="1.4658544"
       transform="rotate(45)" /><path
       id="rect684"
       style="opacity:0.751046;fill:#00b7e6;fill-opacity:0.52549;fill-rule:evenodd;stroke:none;stroke-width:0.0674004;stroke-linecap:round;stroke-linejoin:round;stroke-dasharray:none;stroke-opacity:0.866667"
       d="m -285.78838,-91.148871 v 2.367297 l 10.24485,10.244852 c 0.32789,0.327886 0.85602,0.327886 1.18391,0 0.32788,-0.327885 0.32788,-0.855504 0,-1.18339 z" /><path
       id="rect1031"
       style="opacity:0.751046;fill:#00b6e5;fill-opacity:0.698039;fill-rule:evenodd;stroke:none;stroke-width:1.27591;stroke-linecap:round;stroke-linejoin:round;stroke-dasharray:none;stroke-opacity:0.866667"
       d="M -285.78838,-69.735192 V 41.561887 c 13.90779,3.415545 29.18369,-0.329639 40.09058,-11.236521 16.61172,-16.611727 16.61172,-43.358253 0,-59.96998 z" /><rect
       style="opacity:0.751046;fill:#00b7e6;fill-opacity:0.52549;fill-rule:evenodd;stroke:none;stroke-width:0.243093;stroke-linecap:round;stroke-linejoin:round;stroke-dasharray:none;stroke-opacity:0.866667"
       id="rect1033"
       width="24.277075"
       height="12.138537"
       x="-267.00534"
       y="68.91391"
       ry="6.0692687"
       transform="rotate(45)" /><rect
       style="opacity:0.751046;fill:#2bffd6;fill-opacity:0.752941;fill-rule:evenodd;stroke:none;stroke-width:0.453418;stroke-linecap:round;stroke-linejoin:round;stroke-dasharray:none;stroke-opacity:0.866667"
       id="rect1035"
       width="52.451309"
       height="22.645987"
       x="-290.73816"
       y="80.978493"
       ry="11.322993"
       transform="matrix(0.73047976,0.68293434,-0.67449032,0.73828369,0,0)" /><rect
       style="opacity:0.751046;fill:#00b7e6;fill-opacity:0.52549;fill-rule:evenodd;stroke:none;stroke-width:0.453403;stroke-linecap:round;stroke-linejoin:round;stroke-dasharray:none;stroke-opacity:0.866667"
       id="rect1037"
       width="58.713104"
       height="22.64011"
       x="-208.05281"
       y="36.561474"
       ry="11.320055"
       transform="rotate(45)" /><path
       id="rect1039"
       style="opacity:0.751046;fill:#2affd5;fill-opacity:1;fill-rule:evenodd;stroke:none;stroke-width:0.118039;stroke-linecap:round;stroke-linejoin:round;stroke-dasharray:none;stroke-opacity:0.866667"
       d="m -285.78838,-104.14601 v 4.146 l 32.50189,32.501892 c 0.57423,0.574227 1.49851,0.574229 2.07274,0 0.57423,-0.574229 0.57423,-1.499027 0,-2.073262 z" /><rect
       style="fill:none;fill-opacity:1;fill-rule:evenodd;stroke:#cccccc;stroke-width:0.658;stroke-linecap:round;stroke-linejoin:round;stroke-dasharray:none;stroke-opacity:1"
       id="rect2093"
       width="6.0923948"
       height="3.7653065"
       x="-111.16675"
       y="96.883591"
       ry="0.13200761"
       transform="rotate(39.854468)" /><path
       style="fill:none;stroke:#cccccc;stroke-width:0.658;stroke-linecap:butt;stroke-linejoin:round;stroke-dasharray:none;stroke-opacity:1"
       d="m -142.74979,7.03924 -4.57564,-3.81965 0.84622,3.53375 z"
       id="path2095" /><rect
       style="opacity:0.751046;fill:#000000;fill-opacity:0;fill-rule:evenodd;stroke:none;stroke-width:0.118039;stroke-linecap:round;stroke-linejoin:round;stroke-dasharray:none;stroke-opacity:0.866667"
       id="rect3023"
       width="72.77729"
       height="2.9317083"
       x="-183.12547"
       y="81.039154"
       ry="1.4658544"
       transform="rotate(45)" /><path
       id="rect3240"
       style="opacity:0.751046;fill:#00b7e6;fill-opacity:0.52549;fill-rule:evenodd;stroke:none;stroke-width:0.453403;stroke-linecap:round;stroke-linejoin:round;stroke-dasharray:none;stroke-opacity:0.866667"
       d="m -285.78838,-116.00885 v 32.017681 c 4.43448,4.434482 11.57436,4.434481 16.00884,0 4.43448,-4.434482 4.43448,-11.57436 0,-16.008841 z" /><path
       style="fill:none;stroke:#cccccc;stroke-width:0.643;stroke-linecap:butt;stroke-linejoin:round;stroke-dasharray:none;stroke-opacity:1"
       d="m -77.09888,-4.99802 2.44675,-2.74616 -3.60161,-0.74586 -2.44675,2.74616 z"
       id="path3543" /><path
       style="fill:none;stroke:#cccccc;stroke-width:0.643;stroke-linecap:butt;stroke-linejoin:round;stroke-dasharray:none;stroke-opacity:1"
       d="m -74.65213,-7.74418 1.15491,3.492 -2.44673,2.74616 -1.15492,-3.492 z"
       id="path3545" /><path
       style="fill:none;stroke:#cccccc;stroke-width:0.643;stroke-linecap:butt;stroke-linejoin:round;stroke-dasharray:none;stroke-opacity:1"
       d="m -75.94399,-1.50601 -3.60163,-0.74585 -1.15482,-3.49204 3.60161,0.74586 z"
       id="path3547" /><path
       style="fill:none;stroke:#cccccc;stroke-width:0.705;stroke-linecap:butt;stroke-linejoin:round;stroke-dasharray:none;stroke-opacity:1"
       d="m -80.83749,22.48239 4.81258,-1.43555 -3.64951,-3.45001 -4.81257,1.43553 z"
       id="path3549" /><path
       style="fill:none;stroke:#cccccc;stroke-width:0.705;stroke-linecap:butt;stroke-linejoin:round;stroke-dasharray:none;stroke-opacity:1"
       d="m -76.02491,21.04684 -1.16301,4.88559 -4.81255,1.43556 1.16299,-4.88559 z"
       id="path3551" /><path
       style="fill:none;stroke:#cccccc;stroke-width:0.705;stroke-linecap:butt;stroke-linejoin:round;stroke-dasharray:none;stroke-opacity:1"
       d="m -82.00053,27.36796 -3.64952,-3.45003 1.16314,-4.88556 3.64949,3.45003 z"
       id="path3553" /><path
       id="rect4422"
       style="fill:#2affd5;fill-rule:evenodd;stroke:#2bffd6;stroke-width:0.013;stroke-linecap:round;stroke-linejoin:round;stroke-opacity:0.752941;stroke-dasharray:none"
       d="M 2.6684501 158.17718 L 2.6682256 165.01296 C 2.6682256 165.15674 2.7838394 165.27246 2.9276224 165.27246 L 14.386601 165.27242 C 14.530384 165.27242 14.646102 165.1568 14.646102 165.01302 L 14.646327 158.17724 L 8.80302 162.34019 A 0.250025 0.250025 0 0 1 8.5114934 162.34132 L 2.6684501 158.17718 z M 3.0990485 157.8698 L 8.6572351 161.82896 L 14.215686 157.86991 L 3.0990485 157.8698 z "
       transform="rotate(69.893264)" /><rect
       style="opacity:0.562802;fill:#2affd5;fill-opacity:1;fill-rule:evenodd;stroke:none;stroke-width:1.22354;stroke-linecap:round;stroke-linejoin:round;stroke-dasharray:none;stroke-opacity:0.866667"
       id="rect4426"
       width="106.02271"
       height="31.562906"
       x="-218.41992"
       y="-34.220638"
       ry="15.781453"
       transform="rotate(45)" /><rect
       style="opacity:0.751046;fill:#00b8e6;fill-opacity:0.396078;fill-rule:evenodd;stroke:none;stroke-width:0.075882;stroke-linecap:round;stroke-linejoin:round;stroke-dasharray:none;stroke-opacity:0.866667"
       id="rect4428"
       width="46.785286"
       height="1.884665"
       x="-205.73096"
       y="73.915771"
       ry="0.94233268"
       transform="rotate(45)" /><rect
       style="opacity:0.751046;fill:#00b8e6;fill-opacity:0.396078;fill-rule:evenodd;stroke:none;stroke-width:0.057461;stroke-linecap:round;stroke-linejoin:round;stroke-dasharray:none;stroke-opacity:0.866667"
       id="rect4430"
       width="35.427746"
       height="1.4271461"
       x="-147.85995"
       y="10.192616"
       ry="0.71357316"
       transform="rotate(45)" /><rect
       style="opacity:0.751046;fill:#2affd5;fill-opacity:1;fill-rule:evenodd;stroke:none;stroke-width:0.0432478;stroke-linecap:round;stroke-linejoin:round;stroke-dasharray:none;stroke-opacity:0.866667"
       id="rect4432"
       width="26.66453"
       height="1.0741348"
       x="-151.47488"
       y="4.8102469"
       ry="0.53706747"
       transform="rotate(45)" /><rect
       style="opacity:0.751046;fill:#2affd5;fill-opacity:1;fill-rule:evenodd;stroke:none;stroke-width:0.662522;stroke-linecap:round;stroke-linejoin:round;stroke-dasharray:none;stroke-opacity:0.866667"
       id="rect4739"
       width="88.076653"
       height="44.038326"
       x="-267.13068"
       y="10.650163"
       ry="22.019163"
       transform="rotate(45)" /><rect
       style="opacity:0.751046;fill:#2affd5;fill-opacity:1;fill-rule:evenodd;stroke:none;stroke-width:0.118039;stroke-linecap:round;stroke-linejoin:round;stroke-dasharray:none;stroke-opacity:0.866667"
       id="rect4879"
       width="43.653023"
       height="1.7584872"
       x="-183.88037"
       y="68.543655"
       ry="0.87924373"
       transform="rotate(45)" /><path
       style="fill:none;stroke:#cccccc;stroke-width:0.658;stroke-linecap:butt;stroke-linejoin:round;stroke-dasharray:none;stroke-opacity:1"
       d="m -231.87516,62.56417 -9.85099,2.42661 9.42026,7.84305 1.97021,-0.48531 z"
       id="path5934" /><path
       style="fill:none;stroke:none;stroke-width:0.264583px;stroke-linecap:butt;stroke-linejoin:miter;stroke-opacity:1"
       d="m -204.38199,69.00001 -11.25833,-5.5"
       id="path6356" /><path
       style="fill:none;stroke:#cccccc;stroke-width:0.658;stroke-linecap:butt;stroke-linejoin:round;stroke-dasharray:none;stroke-opacity:1"
       d="M -228.72424,55.66314 -242.83531,43.31235"
       id="path6429" /><path
       style="fill:none;stroke:#cccccc;stroke-width:0.658;stroke-linecap:butt;stroke-linejoin:round;stroke-dasharray:none;stroke-opacity:1"
       d="m -231.52075,72.64043 -4.78271,-8.88971"
       id="path6431" /><path
       id="path6435"
       style="fill:#2bffd6;fill-opacity:1;stroke:#2bffd6;stroke-width:0.264583px;stroke-linecap:butt;stroke-linejoin:round;stroke-opacity:1"
       d="m -214.01801,58.14698 -3.67587,3.601 8.11574,8.11573 0.3522,-0.35221 z m -4.39066,4.30054 -0.96229,0.94287 -2.68375,2.68375 11.48724,4.77891 0.28216,-0.28217 z" /><path
       id="rect7603"
       style="opacity:0.751046;fill:#2affd5;fill-opacity:1;fill-rule:evenodd;stroke:none;stroke-width:0.662522;stroke-linecap:round;stroke-linejoin:round;stroke-dasharray:none;stroke-opacity:0.866667"
       d="m -285.78838,-183.13964 v 62.2794 c 8.62571,8.62572 22.51398,8.62572 31.1397,0 8.62571,-8.62571 8.62571,-22.51398 0,-31.1397 z" /><rect
       style="opacity:0.751046;fill:#00b7e6;fill-opacity:0.52549;fill-rule:evenodd;stroke:none;stroke-width:0.453403;stroke-linecap:round;stroke-linejoin:round;stroke-dasharray:none;stroke-opacity:0.866667"
       id="rect7967"
       width="53.034336"
       height="20.450344"
       x="-191.57898"
       y="-46.688778"
       ry="10.225172"
       transform="rotate(45)" /><rect
       style="opacity:0.751046;fill:#2bffd6;fill-opacity:0.752941;fill-rule:evenodd;stroke:none;stroke-width:0.454166;stroke-linecap:round;stroke-linejoin:round;stroke-dasharray:none;stroke-opacity:0.866667"
       id="rect8920"
       width="52.571125"
       height="10.521442"
       x="-265.68448"
       y="60.921909"
       ry="5.2607212"
       transform="matrix(0.71800013,0.69604297,-0.634907,0.77258857,0,0)" /><path
       id="path2565"
       style="fill:#2affd5;fill-rule:evenodd;stroke:#2bffd6;stroke-width:0.013;stroke-linecap:round;stroke-linejoin:round;stroke-dasharray:none;stroke-opacity:0.752941"
       d="m -133.73699,0.45078481 -2.02829,6.52793189 c -0.0427,0.1373103 0.0334,0.2821166 0.17073,0.3247735 l 10.94305,3.3996768 c 0.13729,0.04268 0.28212,-0.03342 0.32478,-0.170731 l 2.02829,-6.5279317 -6.81531,2.2418904 a 0.250025,0.250025 0 0 1 -0.27873,-0.085419 z m 0.50241,-0.16579338 4.1333,5.42993617 6.48278,-2.1316824 z" /></g></svg>
